Garamond-Math.sfdir
StartChar: exclam
Encoding: 33 33 4036
Width: 250
Flags: W
HStem: -14 120<78.7454 171.255>
VStem: 65 120<-0.254639 92.2546> 79 92<337.922 639.994>
LayerCount: 2
Fore
SplineSet
123 205 m 0xa0
 113 205 108 215 105 244 c 0
 93 358 79 531 79 594 c 0
 79 623 99 649 126 649 c 0
 153 649 171 623 171 594 c 0
 171 531 153 357 141 244 c 0
 139 222 133 205 123 205 c 0xa0
125 -14 m 0
 92 -14 65 13 65 46 c 0
 65 79 92 106 125 106 c 0
 158 106 185 79 185 46 c 0xc0
 185 13 158 -14 125 -14 c 0
EndSplineSet
Validated: 1
EndChar
StartChar: quotedbl
Encoding: 34 34 4233
Width: 330
Flags: W
HStem: 444 232<80.2416 89.4949 210.242 219.495>
VStem: 65 73<538.333 659.629> 195 73<538.333 659.629>
LayerCount: 2
Fore
SplineSet
72 444 m 0
 67 444 65 458 65 467 c 0
 66 488 66 506 66 524 c 0
 66 560 62 619 62 620 c 0
 62 634 73 648 81 655 c 0
 97 668 108 676 124 676 c 0
 134 676 138 661 138 644 c 0
 138 592 106 505 91 469 c 0
 86 457 77 444 72 444 c 0
202 444 m 0
 197 444 195 458 195 467 c 0
 196 488 196 506 196 524 c 0
 196 560 192 619 192 620 c 0
 192 634 203 648 211 655 c 0
 227 668 238 676 254 676 c 0
 264 676 268 661 268 644 c 0
 268 592 236 505 221 469 c 0
 216 457 207 444 202 444 c 0
EndSplineSet
Validated: 1
EndChar
StartChar: dollar
Encoding: 36 36 3803
Width: 441
Flags: W
HStem: 16 37<212.172 272.57> 595 37<172.311 233.894>
VStem: 40 33<132.141 185.953> 56 78<444.875 547.894> 319 79<107.954 229.529>
LayerCount: 2
Fore
SplineSet
171 -82 m 0xd8
 163 -82 154 -75 156 -62 c 2
 165 9 l 2
 166 15 161 18 158 18 c 0
 121 24 88 40 61 61 c 0
 57 66 51 72 49 79 c 0
 42 104 42 149 40 174 c 0
 40 182 48 186 58 186 c 0
 65 186 72 184 73 176 c 0xe8
 91 110 124 75 161 60 c 0
 165 58 170 58 170 62 c 2
 197 291 l 2
 198 296 197 301 185 308 c 0
 120 346 56 390 56 466 c 0
 56 552 115 625 232 632 c 0
 238 632 242 635 242 638 c 2
 249 695 l 2
 251 708 265 712 278 712 c 0
 285 712 291 704 291 697 c 2
 284 637 l 2
 284 634 285 631 290 630 c 0
 317 625 338 616 353 610 c 0
 363 607 370 597 373 588 c 0
 380 562 392 527 392 499 c 0
 392 491 385 489 378 489 c 0
 366 489 354 494 351 501 c 0
 332 546 310 575 279 588 c 0
 277 588 275 585 275 583 c 2
 251 385 l 2
 250 377 249 377 263 367 c 0
 329 329 398 284 398 194 c 0
 398 93 326 23 214 16 c 0
 209 16 206 14 205 9 c 2
 196 -67 l 2
 195 -78 182 -82 171 -82 c 0xd8
203 404 m 0
 211 400 212 403 212 405 c 2
 234 587 l 2
 234 592 232 595 227 595 c 0
 175 591 134 567 134 497 c 0xd8
 134 460 162 432 203 404 c 0
219 53 m 0
 278 57 319 95 319 158 c 0
 319 219 290 245 243 274 c 0
 239 276 236 273 236 269 c 2
 211 63 l 2
 211 55 213 53 219 53 c 0
EndSplineSet
Validated: 1
EndChar
StartChar: percent
Encoding: 37 37 5
Width: 650
GlyphClass: 2
Flags: W
TeX: 665 62
HStem: -17 22<468.318 535.999> 263 22<118.318 185.999> 310 25<463.363 535.198> 590 25<113.363 185.198> 645 20G<532.5 544.5>
VStem: 15 60<338.06 530.813> 225 60<350.454 543.929> 365 60<58.0598 250.813> 575 60<70.4536 263.929>
LayerCount: 2
Fore
SplineSet
502 648 m 2
 511 662 524 665 541 665 c 0
 548 665 555 658 555 652 c 0
 555 651 555 649 554 648 c 2
 116 -47 l 2
 108 -60 95 -62 80 -62 c 0
 72 -62 63 -56 63 -50 c 0
 63 -49 63 -48 64 -47 c 2
 502 648 l 2
142 263 m 0
 58 263 15 354 15 438 c 0
 15 527 71 615 160 615 c 0
 241 615 285 530 285 449 c 0
 285 358 234 263 142 263 c 0
153 285 m 0
 219 285 225 371 225 437 c 0
 225 504 216 590 149 590 c 0
 87 590 75 511 75 449 c 0
 75 378 82 285 153 285 c 0
492 -17 m 0
 408 -17 365 74 365 158 c 0
 365 247 421 335 510 335 c 0
 591 335 635 250 635 169 c 0
 635 78 584 -17 492 -17 c 0
503 5 m 0
 569 5 575 91 575 157 c 0
 575 224 566 310 499 310 c 0
 437 310 425 231 425 169 c 0
 425 98 432 5 503 5 c 0
EndSplineSet
EndChar
StartChar: ampersand
Encoding: 38 38 344
Width: 756
Flags: W
HStem: -15 65<162.077 296.9> -15 55<547.503 661.519> 384 28<663.601 734.198> 573 26<235.305 315.374>
VStem: 38 77<96.7848 218.101> 145 58<438.754 546.423> 347 64<418.018 543.387>
LayerCount: 2
Fore
SplineSet
212 -15 m 0xbe
 109 -15 38 45 38 127 c 0
 38 233 109 298 205 342 c 2
 225 351 l 1
 210 367 l 2
 191 389 145 425 145 484 c 0
 145 554 215 599 284 599 c 0
 370 599 411 529 411 477 c 0
 412 426 372 389 306 365 c 2
 292 360 l 1
 305 346 l 2
 356 291 395 259 435 201 c 2
 447 183 l 1
 465 202 l 2
 513 253 575 337 575 352 c 0
 575 360 564 377 547 380 c 0
 544 381 535 388 535 391 c 0
 535 401 553 402 557 402 c 0
 563 402 613 397 628 397 c 0
 658 397 700 412 724 412 c 0
 727 412 736 407 736 403 c 0
 736 395 720 385 711 384 c 0
 680 382 654 367 638 353 c 0
 625 342 459 165 459 165 c 1
 476 141 l 2
 518 80 557 40 608 40 c 0
 636 40 662 44 686 58 c 0
 691 61 697 63 703 63 c 0
 712 63 715 60 715 51 c 0
 715 34 641 -15 586 -15 c 0x7e
 511 -15 483 21 432 101 c 2
 419 122 l 1
 413 116 l 2
 350 48 305 -15 212 -15 c 0xbe
279 376 m 1
 292 382 l 2
 329 399 347 442 347 482 c 0
 347 528 325 573 279 573 c 0
 239 573 203 545 203 509 c 0
 203 469 211 448 263 393 c 2
 279 376 l 1
238 50 m 0xbe
 304 50 349 79 398 131 c 2
 407 140 l 1
 395 159 l 2
 362 210 309 259 252 321 c 2
 240 334 l 1
 219 326 l 2
 126 290 115 219 115 160 c 0
 115 99 165 50 238 50 c 0xbe
EndSplineSet
EndChar
StartChar: quotesingle
Encoding: 7 39 7
Width: 200
GlyphClass: 2
Flags: W
TeX: 676 -444
HStem: 444 232<80.2416 89.4949>
VStem: 65 73<538.333 659.629>
LayerCount: 2
Fore
SplineSet
72 444 m 0
 67 444 65 458 65 467 c 0
 66 488 66 506 66 524 c 0
 66 560 62 619 62 620 c 0
 62 634 73 648 81 655 c 0
 97 668 108 676 124 676 c 0
 134 676 138 661 138 644 c 0
 138 592 106 505 91 469 c 0
 86 457 77 444 72 444 c 0
EndSplineSet
EndChar
StartChar: parenleft
Encoding: 40 40 8
Width: 315
GlyphClass: 2
Flags: W
TeX: 810 310
GlyphVariantsVertical: parenleft parenleft.v1 parenleft.v2 parenleft.v3 parenleft.v4 parenleft.v5 parenleft.v6 parenleft.v7 parenleft.v8 parenleft.v9 parenleft.v10 parenleft.v11 parenleft.v12 parenleft.v13 parenleft.v14 parenleft.v15 parenleft.v16 parenleft.v17 parenleft.v18 parenleft.v19 parenleft.v20
GlyphCompositionVertical: 3  uni239D%0,0,250,3194 uni239C%1,500,500,500 uni239B%0,250,0,2376
VStem: 40 83<128.565 416.674>
LayerCount: 2
Fore
SplineSet
237 -210 m 0
 231 -210 225 -207 220 -202 c 0
 149 -131 40 104 40 274 c 0
 40 444 145 627 216 698 c 0
 222 704 233 710 243 710 c 0
 250 710 265 703 265 694 c 0
 265 692 254 676 252 674 c 0
 191 603 123 456 123 286 c 0
 123 116 188 -97 249 -168 c 0
 250 -170 264 -186 264 -188 c 0
 264 -202 250 -210 237 -210 c 0
EndSplineSet
EndChar
StartChar: parenright
Encoding: 41 41 4267
Width: 445
Flags: W
TeX: 810 310
GlyphVariantsVertical: parenright parenright.v1 parenright.v2 parenright.v3 parenright.v4 parenright.v5 parenright.v6 parenright.v7 parenright.v8 parenright.v9 parenright.v10 parenright.v11 parenright.v12 parenright.v13 parenright.v14 parenright.v15 parenright.v16 parenright.v17 parenright.v18 parenright.v19 parenright.v20
GlyphCompositionVertical: 3  uni23A0%0,0,250,3194 uni239F%1,500,500,500 uni239E%0,250,0,2376
VStem: 252 83<128.565 416.674>
LayerCount: 2
Fore
SplineSet
138 -210 m 0
 125 -210 111 -202 111 -188 c 0
 111 -186 125 -170 126 -168 c 0
 187 -97 252 116 252 286 c 0
 252 456 184 603 123 674 c 0
 121 676 110 692 110 694 c 0
 110 703 125 710 132 710 c 0
 142 710 153 704 159 698 c 0
 230 627 335 444 335 274 c 0
 335 104 226 -131 155 -202 c 0
 150 -207 144 -210 138 -210 c 0
EndSplineSet
EndChar
StartChar: asterisk
Encoding: 42 42 4033
Width: 340
Flags: MW
LayerCount: 2
Fore
SplineSet
184 372 m 0
 175 372 168 381 167 390 c 2
 154 482 l 1
 131 466 105 450 75 432 c 0
 72 429 68 428 64 428 c 0
 56 428 46 432 46 442 c 0
 46 448 50 454 55 459 c 2
 128 517 l 1
 102 529 77 541 46 559 c 0
 39 562 34 570 34 577 c 0
 34 591 51 593 59 590 c 0
 91 576 120 566 146 555 c 1
 143 583 141 613 140 648 c 0
 140 659 145 670 157 670 c 0
 166 670 173 661 174 652 c 2
 187 560 l 1
 210 576 236 592 266 610 c 0
 269 613 273 614 277 614 c 0
 285 614 295 610 295 600 c 0
 295 594 291 588 286 583 c 2
 213 525 l 1
 239 513 264 501 295 483 c 0
 302 480 307 472 307 465 c 0
 307 451 290 449 282 452 c 0
 250 466 221 476 195 487 c 1
 198 459 200 429 201 394 c 0
 201 383 196 372 184 372 c 0
EndSplineSet
Validated: 1
EndChar
StartChar: plus
Encoding: 43 43 11
Width: 660
GlyphClass: 2
Flags: W
TeX: 505 5
HStem: -5 21G<314 327> 224 52<77.9531 304 356 582.047>
VStem: 304 52<-2.04688 224 276 502.047>
LayerCount: 2
Fore
SplineSet
554 224 m 2
 366 224 l 2
 359 224 356 221 356 214 c 2
 356 26 l 2
 356 6 337 -5 317 -5 c 0
 311 -5 304 3 304 11 c 2
 304 214 l 2
 304 221 301 224 294 224 c 2
 91 224 l 2
 83 224 75 231 75 237 c 0
 75 257 86 276 106 276 c 2
 294 276 l 2
 301 276 304 279 304 286 c 2
 304 474 l 2
 304 494 323 505 343 505 c 0
 349 505 356 497 356 489 c 2
 356 286 l 2
 356 279 359 276 366 276 c 2
 569 276 l 2
 577 276 585 269 585 263 c 0
 585 243 574 224 554 224 c 2
EndSplineSet
EndChar
StartChar: comma
Encoding: 44 44 4124
Width: 230
Flags: W
HStem: -147 23<20.0329 67.1406> 29 88<52.4428 122.388>
VStem: 130 52<-60.0924 49.1868>
LayerCount: 2
Fore
SplineSet
38 -147 m 0
 26 -147 20 -142 20 -136 c 0
 20 -131 25 -126 34 -124 c 0
 77 -115 130 -85 130 -15 c 0
 130 1 113 27 91 29 c 0
 62 32 44 49 44 71 c 0
 44 98 70 117 99 117 c 0
 147 117 182 76 182 20 c 0
 182 -81 89 -147 38 -147 c 0
EndSplineSet
Validated: 1
EndChar
StartChar: period
Encoding: 46 46 15
Width: 230
Flags: MW
LayerCount: 2
Fore
SplineSet
115 -14 m 0
 85 -14 60 11 60 41 c 0
 60 71 85 96 115 96 c 0
 145 96 170 71 170 41 c 0
 170 11 145 -14 115 -14 c 0
EndSplineSet
EndChar
StartChar: slash
Encoding: 47 47 4181
Width: 489
GlyphClass: 2
Flags: W
TeX: 725 300
GlyphVariantsVertical: slash slash.v1 slash.v2 slash.v3 slash.v4 slash.v5 slash.v6 slash.v7 slash.v8 slash.v9 slash.v10 slash.v11 slash.v12 slash.v13 slash.v14 slash.v15 slash.v16 slash.v17 slash.v18 slash.v19 slash.v20
VStem: 90.5146 308
LayerCount: 2
Fore
SplineSet
398.514648438 709 m 2
 148.514648438 -194 l 2
 142.514648438 -214 119.514648438 -225 99.5146484375 -225 c 0
 92.5146484375 -225 88.5146484375 -217 90.5146484375 -209 c 0
 340.514648438 694 l 2
 346.514648438 714 369.514648438 725 389.514648438 725 c 0
 396.514648438 725 400.514648438 717 398.514648438 709 c 2
EndSplineSet
EndChar
StartChar: zero
Encoding: 48 48 17
Width: 449
GlyphClass: 2
Flags: MW
TeX: 630 14
ItalicCorrection: 34
TopAccentHorizontal: 251
LayerCount: 2
Fore
SplineSet
245 -14 m 0
 109 -14 45 154 45 302 c 0
 45 454 107 630 255 630 c 0
 391 630 455 461 455 316 c 0
 455 166 393 -14 245 -14 c 0
262 12 m 0
 342 12 373 148 373 298 c 0
 373 448 326 602 236 602 c 0
 156 602 128 470 128 320 c 0
 128 170 172 12 262 12 c 0
EndSplineSet
Substitution2: "'pnum' Proportional Numbers" zero.prp
AlternateSubs2: "'ssty' Script Style in Mathematical Alphanumeric Symbols lookup 2 subtable" zero.s zero.ss
EndChar
StartChar: one
Encoding: 49 49 18
Width: 490
GlyphClass: 2
Flags: HMW
TeX: 637 3
TopAccentHorizontal: 244
LayerCount: 2
Fore
SplineSet
228 492 m 25
 283 530 l 1053
103 -3 m 0
 93 -3 88 3 88 9 c 0
 88 14 95 20 103 22 c 0
 179 41 213 50 213 109 c 2
 213 491 l 2
 213 529 172 536 129 539 c 0
 116 540 103 545 103 556 c 0
 103 565 114 572 128 574 c 0
 188 583 233 591 278 636 c 0
 279 637 281 637 283 637 c 0
 289 637 296 633 295 628 c 0
 292 608 291 585 291 557 c 2
 291 97 l 2
 291 46 315 41 397 21 c 0
 405 19 414 14 414 8 c 0
 414 2 408 -3 400 -3 c 0
 343 -3 306 2 253 2 c 0
 199 2 157 -3 103 -3 c 0
EndSplineSet
Substitution2: "'pnum' Proportional Numbers" one.prp
AlternateSubs2: "'ssty' Script Style in Mathematical Alphanumeric Symbols lookup 2 subtable" one.s one.ss
EndChar
StartChar: two
Encoding: 50 50 17
Width: 515
TopAccentHorizontal: 262
GlyphClass: 2
Flags: MW
TeX: 630 3
LayerCount: 2
Fore
SplineSet
437 -3 m 0
 417 -3 352 3 302 3 c 0
 252 3 90 -2 70 -2 c 0
 65 -2 50 9 50 15 c 0
 50 21 52 22 58 28 c 2
 229 205 l 2
 296 274 345 364 345 452 c 0
 345 523 295 566 238 566 c 0
 183 566 134 533 106 485 c 0
 102 477 95 471 89 471 c 0
 84 471 74 483 74 501 c 0
 74 532 156 630 269 630 c 0
 369 630 429 562 429 465 c 0
 429 411 398 341 356 290 c 0
 311 236 146 76 146 71 c 0
 146 66 152 65 160 64 c 0
 182 62 211 61 248 61 c 0
 286 61 326 62 362 64 c 0
 419 67 432 71 457 111 c 0
 462 119 471 134 482 134 c 0
 488 134 489 127 489 122 c 0
 489 112 469 71 459 21 c 0
 455 0 444 -3 437 -3 c 0
EndSplineSet
Validated: 1
Substitution2: "'pnum' Proportional Numbers" two.prp
AlternateSubs2: "'ssty' Script Style in Mathematical Alphanumeric Symbols lookup 2 subtable" two.s two.ss
EndChar
StartChar: three
Encoding: 51 51 18
Width: 432
ItalicCorrection: 48
TopAccentHorizontal: 221
GlyphClass: 2
Flags: MW
TeX: 630 38
LayerCount: 2
Fore
SplineSet
140 -38 m 0
 93 -38 29 -11 29 5 c 0
 29 19 58 51 73 51 c 0
 88 51 99 41 112 31 c 0
 129 16 150 0 187 0 c 0
 260 0 333 63 333 146 c 0
 333 223 294 304 217 304 c 0
 202 304 175 302 152 289 c 0
 145 285 133 291 135 298 c 0
 140 315 152 326 165 332 c 0
 188 343 291 395 291 466 c 0
 291 521 251 570 197 570 c 0
 94 570 78 481 63 481 c 0
 58 481 47 490 47 500 c 0
 47 535 104 630 240 630 c 0
 306 630 370 584 370 516 c 0
 370 468 343 411 265 366 c 0
 261 364 261 360 266 360 c 0
 351 360 418 288 418 203 c 0
 418 53 276 -38 140 -38 c 0
EndSplineSet
Validated: 1
Substitution2: "'pnum' Proportional Numbers" three.prp
AlternateSubs2: "'ssty' Script Style in Mathematical Alphanumeric Symbols lookup 2 subtable" three.s three.ss
EndChar
StartChar: four
Encoding: 52 52 19
Width: 463
GlyphClass: 2
Flags: MW
TeX: 642 3
ItalicCorrection: 26
TopAccentHorizontal: 284
LayerCount: 2
Fore
SplineSet
199 -3 m 0
 192 -3 181 1 181 10 c 0
 181 17 191 21 199 22 c 0
 261 30 276 48 276 80 c 2
 276 173 l 2
 276 179 262 182 261 182 c 0
 179 182 123 176 18 175 c 0
 13 175 8 181 8 185 c 0
 8 186 8 187 9 188 c 0
 34 219 35 217 48 235 c 2
 312 614 l 2
 320 626 332 642 342 642 c 2
 363 642 l 2
 369 642 361 628 361 628 c 1
 91 240 l 2
 89 237 87 231 91 231 c 2
 264 231 l 2
 269 231 276 235 276 239 c 2
 276 394 l 2
 276 408 277 412 285 416 c 0
 305 427 332 429 341 429 c 0
 356 429 356 407 356 365 c 2
 356 236 l 2
 356 233 358 230 361 230 c 0
 376 229 389 229 401 229 c 0
 420 229 438 230 460 231 c 0
 466 231 471 227 471 223 c 0
 471 207 454 185 450 185 c 0
 435 185 417 186 401 186 c 0
 389 186 378 185 370 184 c 0
 365 183 357 179 357 178 c 2
 357 84 l 2
 357 45 370 36 424 22 c 0
 432 20 442 14 442 8 c 0
 442 2 435 -3 427 -3 c 0
 370 -3 361 2 314 2 c 0
 263 2 253 -3 199 -3 c 0
EndSplineSet
Validated: 1
Substitution2: "'pnum' Proportional Numbers" four.prp
AlternateSubs2: "'ssty' Script Style in Mathematical Alphanumeric Symbols lookup 2 subtable" four.s four.ss
EndChar
StartChar: five
Encoding: 53 53 20
Width: 428
ItalicCorrection: 51
TopAccentHorizontal: 241
GlyphClass: 2
Flags: MW
TeX: 627 38
LayerCount: 2
Fore
SplineSet
97 -38 m 0
 82 -38 60 -35 60 -26 c 0
 60 -16 84 -7 96 -7 c 0
 254 -7 329 93 329 179 c 0
 329 256 266 305 89 351 c 1
 71 366 65 379 65 397 c 0
 65 433 99 512 113 556 c 0
 120 576 133 587 154 592 c 0
 215 608 283 620 361 627 c 0
 371 628 377 619 372 610 c 2
 355 577 l 2
 346 557 335 547 318 545 c 0
 266 539 176 532 146 527 c 0
 132 525 103 464 102 448 c 0
 101 439 103 432 115 429 c 0
 190 407 251 386 297 362 c 0
 371 323 408 274 408 193 c 0
 408 120 360 53 286 10 c 0
 233 -20 168 -38 97 -38 c 0
EndSplineSet
Validated: 1
Substitution2: "'pnum' Proportional Numbers" five.prp
AlternateSubs2: "'ssty' Script Style in Mathematical Alphanumeric Symbols lookup 2 subtable" five.s five.ss
EndChar
StartChar: six
Encoding: 54 54 3823
Width: 515
TopAccentHorizontal: 361
GlyphClass: 2
Flags: MW
TeX: 641 16
LayerCount: 2
Fore
SplineSet
293 -16 m 0
 190 -16 88 53 88 193 c 0
 88 342 171 439 209 477 c 0
 259 528 353 608 476 641 c 0
 488 644 496 638 494 634 c 0
 488 622 475 617 468 614 c 0
 378 575 317 529 266 456 c 0
 233 408 174 299 174 195 c 0
 176 84 251 23 317 22 c 0
 371 21 420 59 420 142 c 0
 420 203 382 260 329 260 c 0
 294 260 272 257 249 245 c 0
 237 239 235 248 242 256 c 0
 252 267 258 272 269 280 c 0
 284 291 330 313 367 313 c 0
 436 313 498 262 498 190 c 0
 498 65 390 -16 293 -16 c 0
EndSplineSet
Validated: 33
Substitution2: "'pnum' Proportional Numbers" six.prp
AlternateSubs2: "'ssty' Script Style in Mathematical Alphanumeric Symbols lookup 2 subtable" six.s six.ss
EndChar
StartChar: seven
Encoding: 55 55 23
Width: 480
GlyphClass: 2
Flags: W
TeX: 626 32
TopAccentHorizontal: 263
HStem: 551 65<85.9778 405.578>
LayerCount: 2
Fore
SplineSet
127 -32 m 0
 112 -32 106 -21 106 -6 c 0
 106 -2 118 19 127 35 c 2
 410 541 l 2
 412 545 415 550 400 551 c 2
 144 551 l 2
 112 551 89 542 67 505 c 0
 63 498 53 480 43 480 c 0
 37 480 36 489 36 494 c 0
 36 501 39 511 40 516 c 0
 47 545 53 590 56 615 c 0
 57 624 63 626 66 626 c 0
 69 626 108 617 150 617 c 0
 180 617 202 616 249 616 c 0
 347 616 460 618 479 621 c 0
 482 621 485 613 485 608 c 0
 485 592 457 555 447 538 c 2
 146 -5 l 2
 140 -16 131 -32 127 -32 c 0
EndSplineSet
AlternateSubs2: "'ssty' Script Style in Mathematical Alphanumeric Symbols lookup 2 subtable" seven.s seven.ss
EndChar
StartChar: eight
Encoding: 56 56 25
Width: 480
GlyphClass: 2
Flags: MW
TeX: 630 14
ItalicCorrection: 35
TopAccentHorizontal: 247
HStem: -14 29<221 285.5 221 291> 606 24<234 286>
VStem: 65 80<122 185> 80 77<470.5 528> 203.87 98.13 344 77<472.5 531> 359 80<112 155>
LayerCount: 2
Fore
SplineSet
242 -14 m 0xe4
 150 -14 65 49 65 141 c 0xe4
 65 229 148 274 199 302 c 0
 208 307 204 308 196 315 c 0
 136 366 80 404 80 489 c 0
 80 567 173 630 262 630 c 0
 342 630 421 577 421 496 c 0
 421 448 391 420 368 400 c 0xdc
 349 384 338 375 315 358 c 0
 298 346 299 344 310 337 c 0
 385 285 439 241 439 164 c 0xea
 439 60 340 -14 242 -14 c 0xe4
288 358 m 0
 334 396 344 442 344 503 c 0
 344 559 315 606 257 606 c 0
 211 606 157 563 157 509 c 0xd4
 157 432 204 418 274 361 c 0
 278 358 284 355 288 358 c 0
256 15 m 0xe2
 315 15 359 65 359 124 c 0
 359 186 299 240 241 280 c 0
 233 286 227 290 221 290 c 0
 218 290 214 288 209 284 c 0
 166 249 145 221 145 157 c 0
 145 87 186 15 256 15 c 0xe2
EndSplineSet
Substitution2: "'pnum' Proportional Numbers" eight.prp
AlternateSubs2: "'ssty' Script Style in Mathematical Alphanumeric Symbols lookup 2 subtable" eight.s eight.ss
EndChar
StartChar: nine
Encoding: 57 57 3815
Width: 507
ItalicCorrection: 7
TopAccentHorizontal: 280
GlyphClass: 2
Flags: MW
TeX: 629 31
LayerCount: 2
Fore
SplineSet
86 -31 m 0
 75 -31 72 -27 72 -23 c 0
 72 -16 79 -13 86 -13 c 0
 146 -13 244 52 308 134 c 0
 372 217 397 292 397 389 c 0
 397 485 330 593 257 593 c 0
 192 593 159 531 159 482 c 0
 159 421 209 357 262 357 c 0
 303 357 317 371 342 383 c 0
 347 385 351 376 349 372 c 0
 342 359 327 345 316 337 c 0
 301 326 261 304 224 304 c 0
 155 304 84 358 84 430 c 0
 84 521 169 629 290 629 c 0
 387 629 482 515 482 400 c 0
 482 275 429 186 338 87 c 0
 265 7 156 -31 86 -31 c 0
EndSplineSet
Validated: 1
Substitution2: "'pnum' Proportional Numbers" nine.prp
AlternateSubs2: "'ssty' Script Style in Mathematical Alphanumeric Symbols lookup 2 subtable" nine.s nine.ss
EndChar
StartChar: colon
Encoding: 58 58 282
Width: 248
Flags: W
HStem: -14 110<81.8467 168.153> 262 110<81.8467 168.153>
VStem: 70 110<-2.15331 84.1533 273.847 360.153>
LayerCount: 2
Fore
SplineSet
125 262 m 0
 95 262 70 287 70 317 c 0
 70 347 95 372 125 372 c 0
 155 372 180 347 180 317 c 0
 180 287 155 262 125 262 c 0
125 -14 m 0
 95 -14 70 11 70 41 c 0
 70 71 95 96 125 96 c 0
 155 96 180 71 180 41 c 0
 180 11 155 -14 125 -14 c 0
EndSplineSet
EndChar
StartChar: semicolon
Encoding: 59 59 28
Width: 228
Flags: MW
HStem: 263 110<90 120>
VStem: 50 110<303 333> 130 52<-30.5 -7>
LayerCount: 2
Fore
SplineSet
105 263 m 0xc0
 75 263 50 288 50 318 c 0
 50 348 75 373 105 373 c 0
 135 373 160 348 160 318 c 0
 160 288 135 263 105 263 c 0xc0
38 -147 m 0
 26 -147 20 -142 20 -136 c 0
 20 -131 25 -126 34 -124 c 0
 77 -115 130 -85 130 -15 c 0
 130 1 113 27 91 29 c 0
 62 32 44 49 44 71 c 0
 44 98 70 117 99 117 c 0
 147 117 182 76 182 20 c 0xa0
 182 -81 89 -147 38 -147 c 0
EndSplineSet
EndChar
StartChar: less
Encoding: 28 60 28
Width: 666
GlyphClass: 2
Flags: W
TeX: 511 11
LayerCount: 2
Fore
SplineSet
575 -10 m 2
 88 220 l 2
 81 223 75 232 75 238 c 0
 75 256 83 278 100 286 c 2
 575 510 l 2
 583 514 591 510 591 503 c 0
 591 481 580 455 560 445 c 2
 156 254 l 2
 150 251 150 249 156 246 c 2
 560 55 l 2
 580 45 591 19 591 -3 c 0
 591 -10 583 -14 575 -10 c 2
EndSplineSet
EndChar
StartChar: equal
Encoding: 61 61 30
Width: 566
Flags: HMW
GlyphCompositionHorizontal: 3  equal.lf%0,83,83,250 equal.ex%0,200,200,200 equal.rt%0,83,83,250
LayerCount: 2
Fore
SplineSet
64 314 m 2
 57 314 50 320 50 326 c 0
 50 335 56 364 74 364 c 2
 502 364 l 2
 508 364 516 359 516 353 c 0
 516 339 500 314 484 314 c 2
 64 314 l 2
64 143 m 2
 57 143 50 149 50 155 c 0
 50 164 56 193 74 193 c 2
 502 193 l 2
 508 193 516 188 516 182 c 0
 516 164 500 143 484 143 c 2
 64 143 l 2
EndSplineSet
Substitution2: "'ss11' Style Set 11" equal.large
EndChar
StartChar: greater
Encoding: 62 62 6
Width: 560
Flags: W
HStem: 10 61<63.5423 85>
LayerCount: 2
Fore
SplineSet
73 481 m 2
 466 284 l 2
 483 276 507 263 507 257 c 0
 507 248 494 221 474 211 c 2
 71 13 l 2
 68 11 64 10 63 10 c 0
 57 10 54 14 54 20 c 0
 54 32 65 61 85 71 c 2
 428 245 l 2
 431 246 430 249 427 250 c 2
 77 424 l 2
 58 433 53 463 53 472 c 0
 53 485 66 484 73 481 c 2
EndSplineSet
Validated: 1
EndChar
StartChar: question
Encoding: 63 63 7
Width: 381
Flags: W
HStem: -14 120<103.745 196.255> 573 88<78.3613 180.784>
VStem: 90 120<-0.254639 92.2546> 98 53<195.696 274.776> 260 51<415.721 503.256>
LayerCount: 2
Fore
SplineSet
136 181 m 0xd8
 129 181 118 194 114 210 c 0
 108 231 98 252 98 297 c 0
 98 331 136 355 199 387 c 0
 227 401 260 429 260 458 c 0
 260 524 227 572 159 573 c 0
 150 573 143 572 136 571 c 0
 129 570 122 569 112 569 c 0
 91 569 70 598 70 625 c 0
 70 644 93 661 110 661 c 0
 143 661 185 644 218 611 c 0
 274 555 311 469 311 418 c 0
 311 369 289 345 269 334 c 0
 225 310 215 304 183 283 c 0
 155 265 152 236 151 204 c 0
 151 194 146 181 136 181 c 0xd8
150 -14 m 0
 117 -14 90 13 90 46 c 0
 90 79 117 106 150 106 c 0
 183 106 210 79 210 46 c 0xe8
 210 13 183 -14 150 -14 c 0
EndSplineSet
Validated: 1
EndChar
StartChar: A
Encoding: 65 65 2260
AltUni2: 000391.ffffffff.0
Width: 779
TopAccentHorizontal: 396
GlyphClass: 2
Flags: MW
TeX: 685 5
LayerCount: 2
Fore
SplineSet
66 -5 m 0
 49 -5 37 0 37 8 c 0
 37 17 48 24 70 31 c 0
 104 41 134 58 156 108 c 0
 231 279 275 393 343 578 c 0
 350 597 355 615 357 636 c 1
 369 640 381 643 393 651 c 0
 405 659 408 679 412 685 c 0
 413 686 416 686 417 684 c 0
 420 678 421 670 424 662 c 0
 488 459 569 223 602 128 c 0
 630 48 663 35 703 28 c 0
 726 24 736 14 736 5 c 0
 736 -3 724 -5 707 -5 c 0
 679 -5 613 1 568 1 c 0
 529 1 487 0 463 0 c 0
 446 0 434 4 434 12 c 0
 434 21 449 28 467 31 c 0
 511 38 528 54 528 76 c 0
 528 105 504 188 489 238 c 0
 486 248 480 249 462 249 c 2
 273 249 l 2
 267 249 261 245 256 231 c 0
 247 205 215 100 215 87 c 0
 215 58 241 38 273 30 c 0
 296 24 306 19 306 10 c 0
 306 2 294 -1 277 -1 c 0
 259 -1 223 1 186 1 c 0
 142 1 99 -5 66 -5 c 0
300 282 m 2
 455 282 l 2
 465 282 469 282 469 287 c 0
 469 289 468 293 467 297 c 2
 389 541 l 2
 385 553 383 559 380 559 c 0
 378 559 376 553 372 542 c 2
 281 297 l 2
 280 294 279 291 279 289 c 0
 279 282 287 282 300 282 c 2
EndSplineSet
Validated: 1
AlternateSubs2: "'ssty' Script Style in Mathematical Alphanumeric Symbols lookup 2 subtable" A.s A.ss
EndChar
StartChar: B
Encoding: 66 66 2281
AltUni2: 000392.ffffffff.0
Width: 600
GlyphClass: 2
Flags: MW
TeX: 657 5
TopAccentHorizontal: 290
LayerCount: 2
Fore
SplineSet
59 -5 m 0
 42 -5 30 -2 30 6 c 0
 30 15 40 20 63 24 c 0
 113 33 141 51 141 99 c 2
 141 549 l 2
 141 597 123 618 74 622 c 0
 51 624 41 633 41 642 c 0
 41 650 53 653 70 653 c 0
 124 653 133 652 174 652 c 0
 212 652 227 657 285 657 c 0
 441 657 517 617 517 508 c 0
 517 463 498 427 483 412 c 0
 462 391 449 382 416 369 c 0
 411 367 410 361 416 359 c 0
 476 339 558 310 558 194 c 0
 558 84 495 51 454 30 c 0
 412 9 360 -4 284 -4 c 0
 266 -4 229 0 189 0 c 0
 137 0 117 -5 59 -5 c 0
265 371 m 0
 301 371 345 377 386 400 c 0
 400 408 431 437 431 495 c 0
 431 552 408 627 285 627 c 0
 230 627 219 612 219 582 c 2
 219 408 l 2
 219 373 249 371 265 371 c 0
298 37 m 0
 386 37 464 103 464 189 c 0
 464 266 417 303 390 318 c 0
 372 328 336 343 276 343 c 0
 233 343 219 320 219 307 c 2
 219 108 l 2
 219 52 247 37 298 37 c 0
EndSplineSet
Validated: 1
AlternateSubs2: "'ssty' Script Style in Mathematical Alphanumeric Symbols lookup 2 subtable" B.s B.ss
EndChar
StartChar: C
Encoding: 67 67 2281
Width: 802
GlyphClass: 2
Flags: MW
TeX: 663 15
TopAccentHorizontal: 508
LayerCount: 2
Fore
SplineSet
473 -15 m 0
 286 -15 112 119 112 323 c 0
 112 517 293 663 498 663 c 0
 575 663 608 654 676 637 c 0
 696 632 703 621 705 603 c 0
 708 572 712 540 714 488 c 0
 715 473 686 464 680 487 c 0
 667 538 653 574 618 598 c 0
 585 620 536 632 481 632 c 0
 325 632 213 494 213 347 c 0
 213 184 322 16 488 16 c 0
 584 16 643 62 687 141 c 0
 696 158 721 159 721 138 c 0
 721 122 706 70 694 41 c 0
 684 22 683 21 662 14 c 0
 613 -6 538 -15 473 -15 c 0
EndSplineSet
Validated: 33
AlternateSubs2: "'ssty' Script Style in Mathematical Alphanumeric Symbols lookup 2 subtable" C.s C.ss
EndChar
StartChar: D
Encoding: 68 68 37
Width: 754
GlyphClass: 2
Flags: MW
TeX: 659 7
HStem: -7 35<361 437 321.5 466.5> 0 21G<143 202.5> 628 25 628 31<326.5 413.5>
VStem: 129 80<99 121 121 549 549 567> 624 95<246 421>
LayerCount: 2
Fore
SplineSet
371 -7 m 0x9c
 351 -7 242 0 163 0 c 0x5c
 123 0 111 -5 58 -5 c 0
 41 -5 29 -2 29 8 c 0
 29 19 39 20 62 24 c 0
 112 33 129 51 129 99 c 2
 129 549 l 2
 129 597 112 613 62 622 c 0
 39 626 29 629 29 640 c 0
 29 649 41 653 58 653 c 0xac
 109 653 121 651 169 651 c 0
 212 651 313 659 340 659 c 0
 611 659 719 517 719 342 c 0
 719 150 562 -7 371 -7 c 0x9c
359 28 m 0
 515 28 624 151 624 325 c 0
 624 517 482 628 345 628 c 0
 258 628 209 627 209 567 c 2
 209 121 l 2
 209 40 284 28 359 28 c 0
EndSplineSet
AlternateSubs2: "'ssty' Script Style in Mathematical Alphanumeric Symbols lookup 2 subtable" D.s D.ss
EndChar
StartChar: E
Encoding: 69 69 2286
AltUni2: 000395.ffffffff.0
Width: 654
TopAccentHorizontal: 320
GlyphClass: 2
Flags: MW
TeX: 653 5
LayerCount: 2
Fore
SplineSet
112 -5 m 0
 95 -5 83 -2 83 6 c 0
 83 15 93 20 116 24 c 0
 166 33 190 51 190 99 c 2
 190 549 l 2
 190 597 173 613 123 622 c 0
 100 626 90 633 90 642 c 0
 90 650 102 653 119 653 c 0
 194 653 226 650 296 650 c 0
 340 650 391 651 433 651 c 2
 518 653 l 2
 525 653 535 651 536 644 c 0
 543 606 551 568 551 541 c 0
 551 529 543 526 537 526 c 0
 530 526 528 529 526 536 c 0
 519 558 513 581 504 591 c 0
 485 612 462 618 437 618 c 2
 306 618 l 2
 295 618 270 605 270 586 c 2
 270 374 l 2
 270 362 278 352 288 352 c 2
 387 352 l 2
 426 352 435 364 445 401 c 0
 449 416 455 423 463 423 c 0
 468 423 476 417 476 407 c 0
 476 398 473 353 473 337 c 0
 473 317 475 268 475 260 c 0
 475 251 474 243 466 243 c 0
 456 243 448 254 443 275 c 0
 435 306 423 320 397 320 c 2
 304 320 l 2
 281 320 270 317 270 294 c 2
 270 102 l 2
 270 51 291 35 336 35 c 2
 410 35 l 2
 453 35 480 39 501 52 c 0
 522 66 537 89 558 129 c 0
 562 137 567 143 574 142 c 0
 581 141 585 136 585 128 c 0
 585 110 566 39 554 12 c 0
 550 3 548 -5 540 -5 c 0
 412 -5 327 1 227 1 c 0
 182 1 166 -5 112 -5 c 0
EndSplineSet
Validated: 1
AlternateSubs2: "'ssty' Script Style in Mathematical Alphanumeric Symbols lookup 2 subtable" E.s E.ss
EndChar
StartChar: F
Encoding: 70 70 2306
Width: 486
ItalicCorrection: 51
TopAccentHorizontal: 285
GlyphClass: 2
Flags: MW
TeX: 660 5
LayerCount: 2
Fore
SplineSet
83 -5 m 0
 66 -5 54 -2 54 6 c 0
 54 15 64 20 87 24 c 0
 137 33 154 51 154 100 c 2
 154 522 l 2
 154 582 143 613 93 622 c 0
 70 626 60 633 60 642 c 0
 60 650 72 653 89 653 c 0
 162 653 192 650 261 650 c 2
 387 650 l 2
 430 650 462 660 486 660 c 0
 493 660 503 658 504 651 c 0
 507 628 509 564 509 550 c 0
 509 538 506 529 500 529 c 0
 493 529 487 534 485 541 c 0
 479 563 471 580 462 590 c 0
 443 611 420 617 395 617 c 2
 268 617 l 2
 237 617 235 593 234 567 c 0
 233 542 233 502 233 467 c 0
 233 433 233 396 234 372 c 0
 234 361 235 350 244 350 c 0
 286 350 336 353 360 353 c 0
 389 353 411 371 421 394 c 0
 423 399 434 411 439 411 c 0
 444 411 453 404 452 395 c 0
 450 372 449 356 449 340 c 0
 449 320 450 301 452 272 c 0
 452 263 451 255 443 255 c 0
 430 255 422 271 420 278 c 0
 410 309 389 318 373 318 c 0
 356 318 339 319 323 319 c 0
 300 319 279 319 258 317 c 0
 245 316 234 309 234 292 c 0
 234 231 234 167 237 101 c 0
 239 58 253 33 303 24 c 0
 326 20 336 15 336 6 c 0
 336 -2 324 -5 307 -5 c 0
 253 -5 247 2 209 2 c 0
 160 2 137 -5 83 -5 c 0
EndSplineSet
Validated: 1
AlternateSubs2: "'ssty' Script Style in Mathematical Alphanumeric Symbols lookup 2 subtable" F.s F.ss
EndChar
StartChar: G
Encoding: 71 71 2308
Width: 735
GlyphClass: 2
Flags: W
TeX: 663 14
TopAccentHorizontal: 445
HStem: -14 37<332.229 517.441> 256 34<454.011 552.328 659.232 709.897> 625 38<331.976 525.896>
VStem: 62 99<204.234 428.131> 577 65<72.4729 237.12> 611 38<492.515 555.002>
LayerCount: 2
Fore
SplineSet
409 -14 m 0xf8
 224 -14 62 126 62 311 c 0
 62 509 231 663 430 663 c 0
 476 663 603 643 630 630 c 0
 636 627 638 625 639 618 c 0
 644 579 649 538 649 512 c 0
 649 502 642 492 634 492 c 0
 620 492 615 507 611 519 c 0xf4
 603 540 596 553 580 572 c 0
 567 588 516 625 421 625 c 0
 266 625 161 482 161 324 c 0
 161 134 290 23 423 23 c 0
 500 23 533 48 545 60 c 0
 560 75 575 102 575 137 c 0
 575 154 577 177 577 195 c 0
 577 209 576 220 572 225 c 0
 555 247 494 256 474 256 c 0
 469 256 454 263 454 273 c 0
 454 283 469 290 474 290 c 0
 523 290 545 286 600 286 c 0
 635 286 653 290 689 290 c 0
 694 290 710 287 710 274 c 0
 710 265 694 257 689 256 c 0
 660 248 651 234 647 207 c 0
 643 178 642 157 642 132 c 2
 642 105 l 2
 642 98 645 95 648 89 c 0
 652 82 661 77 661 72 c 0
 661 67 661 55 647 53 c 0
 627 50 536 -14 409 -14 c 0xf8
EndSplineSet
Validated: 1
AlternateSubs2: "'ssty' Script Style in Mathematical Alphanumeric Symbols lookup 2 subtable" G.s G.ss
EndChar
StartChar: H
Encoding: 72 72 2313
AltUni2: 000397.ffffffff.0
Width: 865
TopAccentHorizontal: 434
GlyphClass: 2
Flags: MW
TeX: 653 5
LayerCount: 2
Fore
SplineSet
94 -5 m 0
 77 -5 65 0 65 8 c 0
 65 17 74 20 97 24 c 0
 147 33 158 51 158 99 c 2
 158 551 l 2
 158 597 155 613 105 622 c 0
 82 626 72 631 72 640 c 0
 72 648 81 653 101 653 c 0
 155 653 164 650 204 650 c 0
 245 650 256 653 310 653 c 0
 330 653 339 648 339 640 c 0
 339 631 329 626 306 622 c 0
 256 613 238 590 238 551 c 2
 238 354 l 2
 238 346 246 345 252 345 c 2
 623 345 l 2
 628 345 630 348 630 357 c 2
 630 552 l 2
 630 588 614 613 564 622 c 0
 541 626 531 631 531 640 c 0
 531 648 542 653 560 653 c 0
 614 653 631 650 676 650 c 0
 712 650 713 653 767 653 c 0
 786 653 796 648 796 640 c 0
 796 631 786 626 763 622 c 0
 713 613 710 590 710 552 c 2
 710 100 l 2
 710 51 716 33 766 24 c 0
 789 20 798 17 798 8 c 0
 798 0 786 -5 769 -5 c 0
 715 -5 706 0 665 0 c 0
 623 0 612 -5 558 -5 c 0
 541 -5 529 0 529 8 c 0
 529 17 538 20 561 24 c 0
 603 32 630 54 630 97 c 2
 630 292 l 2
 630 299 631 307 625 307 c 2
 243 307 l 2
 238 307 238 304 238 296 c 2
 238 106 l 2
 238 64 272 32 318 24 c 0
 341 20 350 17 350 8 c 0
 350 0 338 -5 321 -5 c 0
 267 -5 250 0 204 0 c 0
 161 0 148 -5 94 -5 c 0
EndSplineSet
Validated: 1
AlternateSubs2: "'ssty' Script Style in Mathematical Alphanumeric Symbols lookup 2 subtable" H.s H.ss
EndChar
StartChar: I
Encoding: 73 73 2317
AltUni2: 000399.ffffffff.0
Width: 353
GlyphClass: 2
Flags: W
TeX: 653 5
TopAccentHorizontal: 178
HStem: -5 29<25.6924 103.104 249.602 327.308> 622 31<37.0745 113.441 241.205 318.926>
VStem: 136 80<46.75 604.158>
LayerCount: 2
Fore
SplineSet
54 -5 m 0
 37 -5 25 -2 25 6 c 0
 25 15 35 20 58 24 c 0
 108 33 136 51 136 98 c 2
 136 550 l 2
 136 597 119 613 69 622 c 0
 46 626 36 633 36 642 c 0
 36 650 48 653 65 653 c 0
 119 653 136 650 182 650 c 0
 225 650 237 653 291 653 c 0
 308 653 320 650 320 642 c 0
 320 633 310 626 287 622 c 0
 237 613 216 597 216 550 c 2
 216 98 l 2
 216 51 245 33 295 24 c 0
 318 20 328 15 328 6 c 0
 328 -2 316 -5 299 -5 c 0
 245 -5 228 0 182 0 c 0
 132 0 108 -5 54 -5 c 0
EndSplineSet
Validated: 1
AlternateSubs2: "'ssty' Script Style in Mathematical Alphanumeric Symbols lookup 2 subtable" I.s I.ss
EndChar
StartChar: J
Encoding: 74 74 2330
Width: 379
GlyphClass: 2
Flags: W
TeX: 653 200
ItalicCorrection: 69
TopAccentHorizontal: 259
HStem: -200 41<120.587 188.266> 622 31<126.16 201.232 319.944 392.926>
VStem: 224 80<-51.6008 606.023>
LayerCount: 2
Fore
SplineSet
128 -200 m 0
 60 -200 25 -182 25 -151 c 0
 25 -128 49 -104 64 -104 c 0
 81 -104 97 -111 111 -129 c 0
 128 -151 141 -159 158 -159 c 0
 205 -159 224 -98 224 -1 c 2
 224 551 l 2
 224 597 206 613 158 622 c 0
 136 626 125 633 125 642 c 0
 125 650 137 653 154 653 c 0
 208 653 225 650 271 650 c 0
 308 650 311 653 365 653 c 0
 382 653 394 650 394 642 c 0
 394 633 384 626 361 622 c 0
 311 613 304 597 304 551 c 2
 304 47 l 2
 304 -37 257 -108 225 -146 c 0
 198 -178 167 -200 128 -200 c 0
EndSplineSet
Validated: 1
AlternateSubs2: "'ssty' Script Style in Mathematical Alphanumeric Symbols lookup 2 subtable" J.s J.ss
EndChar
StartChar: K
Encoding: 75 75 2331
AltUni2: 00039a.ffffffff.0
Width: 752
TopAccentHorizontal: 383
GlyphClass: 2
Flags: MW
TeX: 655 5
LayerCount: 2
Fore
SplineSet
95 -5 m 0
 78 -5 66 -2 66 6 c 0
 66 15 76 20 99 24 c 0
 149 33 166 51 166 101 c 2
 166 551 l 2
 166 597 149 613 99 622 c 0
 76 626 66 633 66 642 c 0
 66 650 78 653 95 653 c 0
 149 653 163 651 207 651 c 0
 245 651 250 653 304 653 c 0
 321 653 333 650 333 642 c 0
 333 633 323 626 300 622 c 0
 250 613 246 590 246 551 c 2
 246 364 l 2
 246 359 246 345 251 345 c 0
 258 345 271 355 278 363 c 2
 478 567 l 2
 488 577 493 588 493 597 c 0
 493 608 486 617 474 620 c 0
 451 626 443 631 443 640 c 0
 443 648 455 651 472 651 c 2
 526 651 l 2
 583 651 675 655 688 655 c 0
 701 655 710 651 710 644 c 0
 710 635 700 628 677 624 c 0
 627 615 571 597 525 558 c 0
 453 497 403 448 333 371 c 0
 328 366 331 360 338 353 c 2
 580 95 l 2
 623 47 633 36 690 24 c 0
 713 19 723 15 723 6 c 0
 723 -2 711 -5 694 -5 c 0
 635 -5 610 0 555 0 c 0
 530 0 519 -1 474 -1 c 0
 457 -1 445 2 445 10 c 0
 445 19 453 23 472 27 c 0
 492 32 500 39 500 47 c 0
 500 55 493 63 485 72 c 2
 273 306 l 2
 265 314 255 323 250 323 c 0
 245 323 246 309 246 302 c 0
 246 239 248 190 251 110 c 0
 253 67 265 33 315 24 c 0
 338 20 348 15 348 6 c 0
 348 -2 336 -5 319 -5 c 0
 265 -5 259 2 221 2 c 0
 172 2 149 -5 95 -5 c 0
EndSplineSet
Validated: 1
AlternateSubs2: "'ssty' Script Style in Mathematical Alphanumeric Symbols lookup 2 subtable" K.s K.ss
EndChar
StartChar: M
Encoding: 77 77 2340
AltUni2: 00039c.ffffffff.0
Width: 972
TopAccentHorizontal: 484
GlyphClass: 2
Flags: MW
TeX: 656 10
LayerCount: 2
Fore
SplineSet
89 -5 m 0
 72 -5 60 -2 60 6 c 0
 60 15 70 20 93 24 c 0
 126 30 148 55 155 102 c 0
 179 282 196 444 196 528 c 0
 196 538 196 551 195 561 c 0
 194 572 193 583 180 594 c 0
 156 614 135 618 105 624 c 0
 92 627 83 635 83 644 c 0
 83 654 97 655 117 655 c 0
 143 655 241 647 267 647 c 0
 276 647 283 641 286 631 c 0
 293 607 298 579 308 554 c 2
 466 153 l 2
 470 143 484 140 489 150 c 2
 686 560 l 1
 692 582 700 614 704 635 c 0
 706 643 709 648 714 648 c 2
 750 648 l 2
 790 648 841 656 864 656 c 0
 870 656 885 655 885 646 c 0
 885 637 879 633 859 625 c 0
 841 618 818 610 800 602 c 0
 786 596 776 583 776 568 c 0
 776 382 790 246 798 95 c 0
 800 54 823 33 873 24 c 0
 896 20 906 15 906 6 c 0
 906 -2 894 -5 877 -5 c 0
 823 -5 806 0 760 0 c 0
 719 0 709 -5 655 -5 c 0
 638 -5 626 -2 626 6 c 0
 626 15 636 21 659 24 c 0
 698 29 710 49 710 96 c 0
 710 240 704 329 698 464 c 0
 696 478 689 477 682 464 c 2
 452 -5 l 2
 449 -12 437 -13 434 -4 c 0
 382 152 325 296 250 471 c 0
 247 478 238 478 237 471 c 0
 218 330 205 238 205 102 c 0
 205 66 229 32 270 24 c 0
 293 20 303 15 303 6 c 0
 303 -2 291 -5 274 -5 c 0
 220 -5 217 0 180 0 c 0
 144 0 143 -5 89 -5 c 0
EndSplineSet
Validated: 1
AlternateSubs2: "'ssty' Script Style in Mathematical Alphanumeric Symbols lookup 2 subtable" M.s M.ss
EndChar
StartChar: N
Encoding: 78 78 2342
AltUni2: 00039d.ffffffff.0
Width: 755
GlyphClass: 2
Flags: W
TeX: 658 17
ItalicCorrection: 70
TopAccentHorizontal: 407
HStem: -5 30<51.9015 112.289 224 293.099> 619 31<560.182 634.256 717.5 796.979> 620 38<31.6632 105.805>
VStem: 160 37<306.848 499.991> 661 43<136.004 599.75>
LayerCount: 2
Fore
SplineSet
686 -17 m 0xd8
 674 -17 632 2 600 46 c 0
 582 71 255 456 232 484 c 0
 222 496 216 500 211 500 c 0
 204 500 202 487 202 479 c 0
 200 380 197 227 197 104 c 0
 197 68 211 33 261 24 c 0
 284 20 294 15 294 6 c 0
 294 -2 282 -5 265 -5 c 0
 211 -5 208 0 171 0 c 0
 135 0 134 -5 80 -5 c 0
 63 -5 51 -2 51 6 c 0
 51 15 61 19 84 25 c 0
 122 35 138 66 142 107 c 0
 150 182 160 342 160 507 c 0
 160 578 120 601 61 620 c 0
 55 622 30 632 30 644 c 0
 30 656 46 658 53 658 c 0xb8
 131 656 135 653 207 653 c 0
 219 653 224 645 231 636 c 0
 250 609 604 180 624 156 c 0
 629 150 641 136 649 136 c 0
 654 136 658 142 659 157 c 0
 660 195 661 381 661 564 c 0
 660 590 625 615 603 619 c 0
 580 623 558 630 558 639 c 0
 558 647 582 650 599 650 c 2
 656 650 l 2
 704 650 710 653 771 653 c 0
 788 653 800 650 800 642 c 0
 800 633 790 626 767 622 c 0
 717 613 706 601 704 568 c 0
 703 550 702 263 702 105 c 0
 702 57 707 21 707 8 c 0
 707 -13 696 -17 686 -17 c 0xd8
EndSplineSet
Validated: 1
AlternateSubs2: "'ssty' Script Style in Mathematical Alphanumeric Symbols lookup 2 subtable" N.s N.ss
EndChar
StartChar: O
Encoding: 79 79 2346
AltUni2: 00039f.ffffffff.0
Width: 818
TopAccentHorizontal: 410
GlyphClass: 2
Flags: MW
TeX: 664 14
LayerCount: 2
Fore
SplineSet
405 -14 m 0
 229 -14 73 118 73 315 c 0
 73 495 192 664 414 664 c 0
 590 664 746 532 746 335 c 0
 746 155 627 -14 405 -14 c 0
420 26 m 0
 573 26 650 129 650 286 c 0
 650 471 565 622 398 622 c 0
 247 622 169 521 169 365 c 0
 169 179 253 26 420 26 c 0
EndSplineSet
Validated: 1
AlternateSubs2: "'ssty' Script Style in Mathematical Alphanumeric Symbols lookup 2 subtable" O.s O.ss
EndChar
StartChar: P
Encoding: 80 80 2371
AltUni2: 0003a1.ffffffff.0
Width: 497
ItalicCorrection: 154
TopAccentHorizontal: 305
GlyphClass: 2
Flags: MW
TeX: 658 5
LayerCount: 2
Fore
SplineSet
111 -5 m 0
 94 -5 82 -2 82 6 c 0
 82 15 92 20 115 24 c 0
 165 33 188 51 188 100 c 2
 188 522 l 2
 188 582 177 613 127 622 c 0
 104 626 94 633 94 642 c 0
 94 650 106 653 123 653 c 0
 177 653 180 652 221 652 c 0
 261 652 304 658 332 658 c 0
 484 658 585 592 585 480 c 0
 585 357 514 254 361 254 c 0
 332 254 316 265 316 273 c 0
 316 278 325 287 332 287 c 0
 338 287 351 285 378 285 c 0
 458 285 499 355 499 473 c 0
 499 579 429 630 332 630 c 0
 294 630 268 618 268 588 c 2
 268 111 l 2
 268 63 285 33 335 24 c 0
 358 20 368 15 368 6 c 0
 368 -2 356 -5 339 -5 c 0
 285 -5 279 2 241 2 c 0
 190 2 165 -5 111 -5 c 0
EndSplineSet
Validated: 1
AlternateSubs2: "'ssty' Script Style in Mathematical Alphanumeric Symbols lookup 2 subtable" P.s P.ss
EndChar
StartChar: Q
Encoding: 81 81 2375
Width: 976
TopAccentHorizontal: 440
GlyphClass: 2
Flags: MW
TeX: 664 248
LayerCount: 2
Fore
SplineSet
802 -248 m 0
 706 -248 645 -219 581 -173 c 0
 529 -136 488 -108 423 -54 c 0
 376 -15 336 -3 308 10 c 0
 199 61 103 151 103 315 c 0
 103 495 222 664 444 664 c 0
 620 664 776 532 776 335 c 0
 776 183 692 40 533 -2 c 0
 526 -4 525 -7 525 -9 c 0
 525 -12 526 -15 529 -18 c 0
 568 -60 606 -93 656 -129 c 0
 723 -177 773 -192 851 -192 c 0
 875 -192 898 -189 907 -185 c 0
 913 -183 920 -181 926 -181 c 0
 932 -181 937 -183 937 -189 c 0
 937 -201 934 -206 919 -215 c 0
 881 -238 839 -248 802 -248 c 0
450 26 m 0
 603 26 680 129 680 286 c 0
 680 471 595 622 428 622 c 0
 277 622 199 521 199 365 c 0
 199 179 283 26 450 26 c 0
EndSplineSet
Validated: 1
AlternateSubs2: "'ssty' Script Style in Mathematical Alphanumeric Symbols lookup 2 subtable" Q.s Q.ss
EndChar
StartChar: R
Encoding: 82 82 2377
Width: 804
GlyphClass: 2
Flags: W
TeX: 657 21
TopAccentHorizontal: 340
HStem: -21 46<664.627 774.254> -5 29<85.6924 161.631 301.775 370.308> 627 30<97.0088 169.406 289.013 406.755>
VStem: 191 80<46.2739 306.04 331.373 612.383> 474 90<411.17 575.094>
LayerCount: 2
Fore
SplineSet
698 -21 m 0xb8
 641 -21 595 -10 560 33 c 0
 511 93 477 134 408 246 c 0
 397 264 385 275 365 285 c 0
 336 299 304 304 286 306 c 0
 275 307 271 298 271 286 c 2
 271 110 l 2
 271 67 288 33 338 24 c 0
 361 20 371 15 371 6 c 0
 371 -2 359 -5 342 -5 c 0
 288 -5 282 2 244 2 c 0
 193 2 168 -5 114 -5 c 0
 97 -5 85 -2 85 6 c 0
 85 15 95 20 118 24 c 0x78
 168 33 191 51 191 100 c 2
 191 526 l 2
 191 602 187 616 130 622 c 0
 107 624 97 633 97 642 c 0
 97 650 109 653 126 653 c 0
 180 653 183 652 224 652 c 0
 262 652 281 657 339 657 c 0
 485 657 564 602 564 493 c 0
 564 403 501 353 446 325 c 0
 441 323 442 318 446 312 c 0
 508 218 555 143 649 58 c 0
 684 27 717 25 764 25 c 0
 774 25 779 22 779 14 c 0
 779 -15 723 -21 698 -21 c 0xb8
324 329 m 0
 416 329 474 400 474 477 c 0
 474 558 453 627 327 627 c 0
 284 627 276 603 273 534 c 0
 272 500 271 444 271 364 c 0
 271 331 291 329 324 329 c 0
EndSplineSet
Validated: 1
AlternateSubs2: "'ssty' Script Style in Mathematical Alphanumeric Symbols lookup 2 subtable" R.s R.ss
EndChar
StartChar: S
Encoding: 83 83 2380
Width: 545
GlyphClass: 2
Flags: MW
TeX: 664 16
TopAccentHorizontal: 292
LayerCount: 2
Fore
SplineSet
241 -16 m 0
 185 -16 137 1 100 32 c 0
 95 37 89 44 87 52 c 0
 80 79 79 129 77 157 c 0
 77 166 86 171 97 171 c 0
 104 171 111 168 113 160 c 0
 139 57 198 17 255 17 c 0
 324 17 375 65 375 139 c 0
 375 221 333 247 262 291 c 0
 184 340 97 385 97 482 c 0
 97 583 165 664 306 664 c 0
 354 664 389 651 411 642 c 0
 421 638 429 627 432 617 c 0
 440 589 452 550 452 518 c 0
 452 510 445 507 437 507 c 0
 425 507 412 513 409 521 c 0
 381 591 346 630 289 630 c 0
 229 630 174 600 174 516 c 0
 174 456 239 416 314 370 c 0
 384 327 459 280 459 180 c 0
 459 61 372 -16 241 -16 c 0
EndSplineSet
Validated: 1
AlternateSubs2: "'ssty' Script Style in Mathematical Alphanumeric Symbols lookup 2 subtable" S.s S.ss
EndChar
StartChar: T
Encoding: 84 84 2386
AltUni2: 0003a4.ffffffff.0
Width: 568
ItalicCorrection: 135
TopAccentHorizontal: 367
GlyphClass: 2
Flags: MW
TeX: 694 5
LayerCount: 2
Fore
SplineSet
220 -5 m 0
 203 -5 191 -2 191 6 c 0
 191 15 201 20 224 24 c 0
 274 33 302 54 302 102 c 2
 302 490 l 2
 302 581 297 603 281 606 c 0
 262 610 244 610 210 610 c 2
 163 610 l 2
 131 610 95 597 81 571 c 0
 75 560 55 533 40 533 c 0
 35 533 33 539 33 546 c 0
 33 552 35 560 38 566 c 0
 57 604 63 629 69 671 c 0
 72 693 81 694 86 694 c 0
 91 694 105 673 111 662 c 0
 119 648 153 642 181 642 c 2
 533 642 l 2
 579 642 606 647 628 657 c 0
 644 665 651 677 667 677 c 0
 671 677 674 664 674 654 c 0
 674 647 671 632 670 626 c 0
 664 589 660 593 660 567 c 2
 660 555 l 2
 660 543 654 523 644 523 c 0
 634 523 630 538 625 564 c 0
 620 592 597 610 533 610 c 2
 432 610 l 2
 387 610 382 605 382 495 c 2
 382 102 l 2
 382 54 411 33 461 24 c 0
 484 20 494 15 494 6 c 0
 494 -2 482 -5 465 -5 c 0
 411 -5 394 0 348 0 c 0
 298 0 274 -5 220 -5 c 0
EndSplineSet
Validated: 1
AlternateSubs2: "'ssty' Script Style in Mathematical Alphanumeric Symbols lookup 2 subtable" T.s T.ss
EndChar
StartChar: U
Encoding: 85 85 2393
Width: 725
GlyphClass: 2
Flags: W
TeX: 653 14
ItalicCorrection: 69
TopAccentHorizontal: 416
HStem: -14 50<334.425 520.672> 620 33<67.4669 125.959 244.114 298.781 557.06 608.939 704.499 768.313>
VStem: 145 80<153.613 606.064> 630 57<323.395 604.72> 634 43<161.769 455.301>
LayerCount: 2
Fore
SplineSet
414 -14 m 0xe8
 235 -14 145 87 145 240 c 2
 145 547 l 2
 145 595 121 614 99 620 c 0
 76 626 66 633 66 642 c 0
 66 650 78 653 95 653 c 0
 125 653 154 650 191 650 c 0
 222 650 250 652 271 652 c 0
 288 652 300 649 300 641 c 0
 300 632 289 628 267 621 c 0
 251 616 225 589 225 549 c 2
 225 268 l 2
 225 108 313 36 435 36 c 0
 572 36 634 140 634 296 c 0xe8
 634 340 632 434 630 511 c 0
 629 562 617 612 589 620 c 0
 575 624 556 631 556 640 c 0
 556 648 568 651 585 651 c 0
 615 651 631 650 660 650 c 0
 692 650 718 653 741 653 c 0
 758 653 770 650 770 642 c 0
 770 633 760 627 737 622 c 0
 702 615 689 587 687 547 c 0xf0
 680 432 680 342 677 250 c 0
 672 95 561 -14 414 -14 c 0xe8
EndSplineSet
Validated: 1
AlternateSubs2: "'ssty' Script Style in Mathematical Alphanumeric Symbols lookup 2 subtable" U.s U.ss
EndChar
StartChar: W
Encoding: 87 87 2414
Width: 878
GlyphClass: 2
Flags: W
TeX: 653 16
ItalicCorrection: 115
TopAccentHorizontal: 503
HStem: -12 21G<657.5 663.5> 620 33<39.6494 104.504 227.109 276.926 304.649 371.392 651.369 727.313 749.06 804.25 898.08 966.313>
VStem: 38 187<577.5 646>
LayerCount: 2
Fore
SplineSet
373 -16 m 0
 370 -16 364 -1 359 12 c 2
 143 554 l 2
 127 588 105 610 71 620 c 0
 49 627 38 633 38 642 c 0
 38 650 50 653 67 653 c 0
 98 653 122 650 156 650 c 0
 193 650 229 652 249 652 c 0
 266 652 278 649 278 641 c 0
 278 632 268 627 245 621 c 0
 229 617 225 603 225 588 c 0
 225 567 233 545 233 545 c 1
 294 389 330 303 397 152 c 0
 404 137 408 140 412 151 c 2
 490 344 l 2
 494 354 496 361 496 367 c 0
 496 375 493 383 488 396 c 2
 431 538 l 2
 414 581 370 610 336 620 c 0
 314 627 303 633 303 642 c 0
 303 650 315 653 332 653 c 0
 363 653 390 650 426 650 c 0
 456 650 483 652 503 652 c 0
 520 652 532 649 532 641 c 0
 532 624 491 622 491 599 c 0
 491 596 492 594 493 591 c 0
 497 579 529 497 538 478 c 0
 545 462 548 460 556 478 c 0
 572 514 591 574 596 591 c 0
 597 594 597 596 597 598 c 0
 597 622 560 624 560 641 c 0
 560 649 572 652 589 652 c 0
 618 652 622 650 641 650 c 0
 664 650 676 653 700 653 c 0
 717 653 729 650 729 642 c 0
 729 633 719 627 696 622 c 0
 653 612 645 602 628 574 c 0
 617 555 591 494 575 451 c 0
 571 441 566 420 569 413 c 2
 672 148 l 2
 675 141 679 145 683 154 c 0
 716 242 760 388 805 541 c 0
 809 553 811 566 811 577 c 0
 811 597 803 614 781 620 c 0
 767 624 748 631 748 640 c 0
 748 648 760 651 777 651 c 0
 803 651 823 650 849 650 c 0
 882 650 914 653 939 653 c 0
 956 653 968 650 968 642 c 0
 968 633 958 627 935 622 c 0
 886 611 864 563 853 534 c 2
 676 11 l 2
 674 5 667 -12 660 -12 c 0
 655 -12 647 -2 643 7 c 0
 590 126 567 199 520 316 c 0
 516 325 514 323 509 310 c 0
 461 197 437 133 395 15 c 0
 390 1 381 -16 373 -16 c 0
EndSplineSet
Validated: 33
AlternateSubs2: "'ssty' Script Style in Mathematical Alphanumeric Symbols lookup 2 subtable" W.s W.ss
EndChar
StartChar: X
Encoding: 88 88 2416
AltUni2: 0003a7.ffffffff.0
Width: 763
GlyphClass: 2
Flags: W
TeX: 656 5
TopAccentHorizontal: 383
HStem: -5 33<26.6494 97.7729 233.123 297.861 425.055 483.346 656.864 727.313> 622 33<49.6494 121.12 273.386 347.637 473.217 543.033 656.879 723.56>
LayerCount: 2
Fore
SplineSet
54 -5 m 0
 37 -5 25 -2 25 6 c 0
 25 15 36 21 58 28 c 0
 92 38 159 72 201 124 c 2
 326 280 l 2
 340 299 350 314 331 341 c 2
 197 529 l 2
 147 599 115 612 81 622 c 0
 59 629 48 635 48 644 c 0
 48 652 60 655 77 655 c 0
 110 655 170 650 220 650 c 0
 260 650 301 652 319 652 c 0
 336 652 348 649 348 641 c 0
 348 632 338 628 315 621 c 0
 282 611 264 606 264 590 c 0
 264 578 274 560 297 528 c 2
 388 400 l 2
 402 379 407 382 418 397 c 2
 525 538 l 2
 541 558 551 576 551 589 c 0
 551 604 538 614 506 620 c 0
 492 623 473 631 473 640 c 0
 473 648 485 651 502 651 c 0
 526 651 553 650 583 650 c 0
 622 650 670 656 697 656 c 0
 714 656 726 653 726 645 c 0
 726 636 716 631 693 625 c 0
 655 615 607 562 563 510 c 2
 448 374 l 2
 430 353 427 349 434 334 c 2
 589 111 l 2
 619 67 658 36 696 26 c 0
 719 20 729 15 729 6 c 0
 729 -2 717 -5 700 -5 c 0
 672 -5 604 1 557 1 c 0
 516 1 478 0 454 0 c 0
 437 0 425 3 425 11 c 0
 425 20 444 27 458 31 c 0
 478 37 502 53 502 78 c 0
 502 88 499 99 490 111 c 2
 386 262 l 2
 376 276 371 276 364 267 c 2
 229 93 l 2
 223 85 220 77 220 70 c 0
 220 51 238 36 265 30 c 0
 288 24 298 19 298 10 c 0
 298 2 286 -1 269 -1 c 0
 251 -1 216 1 180 1 c 0
 135 1 87 -5 54 -5 c 0
EndSplineSet
Validated: 33
AlternateSubs2: "'ssty' Script Style in Mathematical Alphanumeric Symbols lookup 2 subtable" X.s X.ss
EndChar
StartChar: Y
Encoding: 89 89 2418
Width: 585
GlyphClass: 2
Flags: W
TeX: 653 5
ItalicCorrection: 106
TopAccentHorizontal: 354
HStem: -5 29<199.692 272.247 428.521 501.308> 620 33<47.6494 105.141 237.55 299.781 431.06 498.318 586.619 663.641>
VStem: 310 80<52.5 323.281> 504 163<579 646>
LayerCount: 2
Fore
SplineSet
228 -5 m 0
 211 -5 199 -2 199 6 c 0
 199 15 209 20 232 24 c 0
 282 33 310 60 310 108 c 2
 310 256 l 2
 310 283 290 321 285 330 c 2
 168 522 l 2
 153 546 113 610 79 620 c 0
 57 627 46 633 46 642 c 0
 46 650 58 653 75 653 c 0
 105 653 146 650 192 650 c 0
 223 650 251 652 272 652 c 0
 289 652 301 649 301 641 c 0
 301 632 290 626 268 621 c 0
 249 616 236 611 236 596 c 0
 236 588 240 576 249 560 c 2
 341 390 l 2
 355 364 363 352 369 352 c 0
 377 352 384 362 402 390 c 0
 432 437 452 474 486 534 c 0
 499 556 504 573 504 585 c 0
 504 610 482 617 463 620 c 0
 449 622 430 631 430 640 c 0
 430 648 442 651 459 651 c 0
 489 651 505 650 534 650 c 0
 575 650 615 653 638 653 c 0
 655 653 667 650 667 642 c 0
 667 633 642 625 614 617 c 0
 579 607 562 581 526 526 c 0
 472 443 461 425 415 350 c 0
 389 307 390 299 390 260 c 2
 390 108 l 2
 390 63 419 33 469 24 c 0
 492 20 502 15 502 6 c 0
 502 -2 490 -5 473 -5 c 0
 419 -5 402 0 356 0 c 0
 306 0 282 -5 228 -5 c 0
EndSplineSet
Validated: 33
AlternateSubs2: "'ssty' Script Style in Mathematical Alphanumeric Symbols lookup 2 subtable" Y.s Y.ss
EndChar
StartChar: Z
Encoding: 90 90 2425
AltUni2: 000396.ffffffff.0
Width: 711
TopAccentHorizontal: 366
GlyphClass: 2
Flags: MW
TeX: 676 5
LayerCount: 2
Fore
SplineSet
582 -5 m 0
 468 -5 369 -2 280 -2 c 0
 240 -2 199 -3 161 -3 c 2
 84 -3 l 2
 78 -3 77 11 77 11 c 1
 77 21 112 73 135 104 c 0
 271 290 355 401 483 593 c 0
 485 596 487 598 487 601 c 0
 487 605 483 608 468 609 c 0
 432 610 375 611 322 611 c 0
 283 611 245 611 220 609 c 0
 188 606 140 584 122 535 c 0
 117 523 109 503 94 503 c 0
 88 503 85 508 85 514 c 0
 85 522 89 533 92 541 c 0
 99 562 116 617 119 659 c 0
 120 674 129 676 134 676 c 0
 139 676 154 667 165 662 c 0
 178 656 217 646 251 646 c 2
 377 646 l 2
 460 646 534 647 608 649 c 0
 614 649 623 636 619 631 c 2
 558 550 l 2
 420 364 344 262 220 70 c 0
 218 67 217 62 217 58 c 0
 217 50 221 42 228 41 c 0
 257 38 297 36 341 36 c 0
 386 36 435 38 482 41 c 0
 541 46 580 81 606 150 c 0
 609 158 618 171 628 171 c 0
 634 171 637 167 637 158 c 0
 637 147 611 36 600 12 c 0
 596 4 592 -5 582 -5 c 0
EndSplineSet
Validated: 1
AlternateSubs2: "'ssty' Script Style in Mathematical Alphanumeric Symbols lookup 2 subtable" Z.s Z.ss
EndChar
StartChar: bracketleft
Encoding: 91 91 32
Width: 341
GlyphClass: 2
Flags: MW
TeX: 702 300
GlyphVariantsVertical: bracketleft bracketleft.v1 bracketleft.v2 bracketleft.v3 bracketleft.v4 bracketleft.v5 bracketleft.v6 bracketleft.v7 bracketleft.v8 bracketleft.v9 bracketleft.v10 bracketleft.v11 bracketleft.v12 bracketleft.v13 bracketleft.v14 bracketleft.v15 bracketleft.v16 bracketleft.v17 bracketleft.v18 bracketleft.v19 bracketleft.v20
GlyphCompositionVertical: 3  uni23A3%0,0,500,2359 uni23A2%1,1000,1000,1000 uni23A1%0,500,0,2357
LayerCount: 2
Fore
SplineSet
151 -200 m 2
 128 -200 120 -199 120 -175 c 2
 120 668 l 2
 120 702 126 702 158 702 c 2
 303 701 l 2
 312 701 321 698 321 688 c 0
 321 678 308 674 295 673 c 2
 216 667 l 2
 207 666 193 653 193 642 c 2
 193 -121 l 2
 193 -139 204 -152 216 -154 c 2
 295 -167 l 2
 308 -169 321 -173 321 -185 c 0
 321 -197 307 -200 295 -200 c 2
 151 -200 l 2
EndSplineSet
EndChar
StartChar: backslash
Encoding: 92 92 3806
Width: 466
GlyphClass: 2
Flags: W
TeX: 725 300
GlyphVariantsVertical: backslash backslash.v1 backslash.v2 backslash.v3 backslash.v4 backslash.v5 backslash.v6 backslash.v7 backslash.v8 backslash.v9 backslash.v10 backslash.v11 backslash.v12 backslash.v13 backslash.v14 backslash.v15 backslash.v16 backslash.v17 backslash.v18 backslash.v19 backslash.v20
VStem: 79 308
LayerCount: 2
Fore
SplineSet
79 709 m 2
 77 717 81 725 88 725 c 0
 108 725 131 714 137 694 c 0
 387 -209 l 2
 389 -217 385 -225 378 -225 c 0
 358 -225 335 -214 329 -194 c 0
 79 709 l 2
EndSplineSet
Validated: 1
EndChar
StartChar: bracketright
Encoding: 93 93 34
Width: 421
GlyphClass: 2
Flags: W
TeX: 702 300
GlyphVariantsVertical: bracketright bracketright.v1 bracketright.v2 bracketright.v3 bracketright.v4 bracketright.v5 bracketright.v6 bracketright.v7 bracketright.v8 bracketright.v9 bracketright.v10 bracketright.v11 bracketright.v12 bracketright.v13 bracketright.v14 bracketright.v15 bracketright.v16 bracketright.v17 bracketright.v18 bracketright.v19 bracketright.v20
GlyphCompositionVertical: 3  uni23A6%0,0,500,2357 uni23A5%1,1000,1000,1000 uni23A4%0,500,0,2359
HStem: -200 33<110.091 178.538> 673 28<110.084 215>
VStem: 238 73<-153.78 666.782>
LayerCount: 2
Fore
SplineSet
280 -200 m 2
 136 -200 l 2
 124 -200 110 -197 110 -185 c 0
 110 -173 123 -169 136 -167 c 2
 215 -154 l 2
 227 -152 238 -139 238 -121 c 2
 238 642 l 2
 238 653 224 666 215 667 c 2
 136 673 l 2
 123 674 110 678 110 688 c 0
 110 698 119 701 128 701 c 2
 273 702 l 2
 305 702 311 702 311 668 c 2
 311 -175 l 2
 311 -199 303 -200 280 -200 c 2
EndSplineSet
Validated: 1
EndChar
StartChar: asciicircum
Encoding: 94 94 355
Width: 500
Flags: W
HStem: 284 319
LayerCount: 2
Fore
SplineSet
57 284 m 0
 52 284 48 289 48 295 c 0
 48 298 49 302 51 305 c 2
 248 603 l 1
 251 603 l 1
 449 305 l 2
 454 297 452 284 443 284 c 0
 428 284 408 293 402 302 c 2
 254 514 l 2
 249 520 248 520 244 514 c 2
 98 303 l 2
 90 291 69 284 57 284 c 0
EndSplineSet
Validated: 1
EndChar
StartChar: underscore
Encoding: 95 95 4217
Width: 500
GlyphClass: 2
Flags: W
TeX: -132 182
ItalicCorrection: 28
HStem: -182 50<3.10421 495.543>
LayerCount: 2
Fore
SplineSet
487 -132 m 2
 493 -132 501 -137 501 -143 c 0
 501 -157 485 -182 469 -182 c 2
 14 -182 l 2
 7 -182 0 -176 0 -170 c 0
 0 -161 6 -132 24 -132 c 2
 487 -132 l 2
EndSplineSet
EndChar
StartChar: grave
Encoding: 64 96 38
Width: 200
GlyphClass: 2
Flags: W
TeX: 649 -457
TopAccentHorizontal: 128
HStem: 457 192
VStem: 22 157
LayerCount: 2
Fore
SplineSet
171 457 m 0
 164 457 154 464 140 478 c 0
 114 504 56 572 32 607 c 0
 26 616 22 620 22 628 c 0
 22 642 46 649 71 649 c 0
 81 649 92 641 98 631 c 0
 114 604 161 521 175 484 c 0
 178 476 179 470 179 466 c 0
 179 459 176 457 171 457 c 0
EndSplineSet
EndChar
StartChar: a
Encoding: 97 97 38
Width: 420
GlyphClass: 2
Flags: W
TeX: 414 14
TopAccentHorizontal: 203
HStem: -14 48<96 195.414 309.435 368.606> 365 49<150.283 250>
VStem: 34 78<42.5666 125.471 280.17 320.237> 235 68<58.3296 168.996 199.884 353.979>
LayerCount: 2
Fore
SplineSet
114 -14 m 0
 78 -14 34 35 34 72 c 0
 34 114 56 135 105 155 c 2
 207 197 l 2
 233 208 234 210 235 237 c 2
 237 301 l 2
 238 336 216 365 178 365 c 0
 158 365 136 358 123 347 c 0
 115 341 113 330 113 318 c 2
 114 300 l 2
 114 290 68 265 48 265 c 0
 41 265 37 269 37 274 c 0
 37 295 52 321 77 343 c 0
 122 384 186 414 226 414 c 0
 274 414 309 376 308 325 c 2
 303 85 l 2
 302 57 317 38 339 38 c 0
 356 38 367 41 376 49 c 0
 380 53 382 54 384 54 c 0
 390 54 395 49 395 43 c 0
 395 37 390 27 384 21 c 0
 363 0 336 -14 315 -14 c 0
 284 -14 260 3 242 38 c 1
 239 38 l 1
 195 2 157 -14 114 -14 c 0
161 34 m 0
 187 34 205 43 220 58 c 0
 227 65 232 74 233 99 c 2
 235 148 l 2
 236 163 234 169 226 169 c 0
 223 169 217 168 206 164 c 0
 135 138 112 110 112 87 c 0
 112 52 137 34 161 34 c 0
EndSplineSet
Validated: 33
AlternateSubs2: "'ssty' Script Style in Mathematical Alphanumeric Symbols lookup 2 subtable" a.s a.ss
EndChar
StartChar: b
Encoding: 98 98 39
Width: 618
GlyphClass: 2
Flags: MW
TeX: 705 14
TopAccentHorizontal: 166
LayerCount: 2
Fore
SplineSet
329 -14 m 0
 300 -14 269 -8 243 -1 c 0
 214 7 190 15 183 15 c 0
 175 15 167 8 161 2 c 0
 158 -1 155 -3 152 -3 c 0
 146 -3 138 2 138 9 c 0
 138 21 145 56 145 81 c 2
 145 566 l 2
 145 601 126 627 99 639 c 0
 93 642 86 646 86 654 c 0
 86 661 93 663 98 664 c 0
 124 669 190 696 203 702 c 0
 207 704 210 705 212 705 c 0
 215 705 218 702 218 698 c 0
 218 693 215 649 215 593 c 2
 215 388 l 2
 215 362 217 356 224 355 c 1
 265 389 326 414 370 414 c 0
 471 414 550 328 550 217 c 0
 550 80 460 -14 329 -14 c 0
352 17 m 0
 428 17 475 94 475 195 c 0
 475 272 432 372 337 372 c 0
 284 372 244 353 215 326 c 1
 215 132 l 2
 215 62 282 17 352 17 c 0
EndSplineSet
Validated: 1
AlternateSubs2: "'ssty' Script Style in Mathematical Alphanumeric Symbols lookup 2 subtable" b.s b.ss
EndChar
StartChar: c
Encoding: 99 99 3654
Width: 415
GlyphClass: 2
Flags: MW
TeX: 414 15
TopAccentHorizontal: 260
LayerCount: 2
Fore
SplineSet
227 -15 m 0
 126 -15 49 69 49 180 c 0
 49 310 143 414 260 414 c 0
 303 414 342 402 374 379 c 0
 382 373 386 367 386 360 c 0
 386 343 360 319 343 319 c 0
 336 319 330 324 322 330 c 0
 293 352 252 377 228 377 c 0
 163 377 118 310 118 212 c 0
 118 118 185 45 270 45 c 0
 309 45 333 56 365 88 c 0
 368 91 372 93 375 93 c 0
 381 93 386 87 386 79 c 0
 386 71 381 61 371 48 c 0
 339 7 288 -15 227 -15 c 0
EndSplineSet
Validated: 1
AlternateSubs2: "'ssty' Script Style in Mathematical Alphanumeric Symbols lookup 2 subtable" c.s c.ss
EndChar
StartChar: d
Encoding: 100 100 41
Width: 654
TopAccentHorizontal: 429
GlyphClass: 2
Flags: MW
TeX: 704 19
LayerCount: 2
Fore
SplineSet
411 -19 m 0
 408 -19 400 -12 400 -9 c 0
 400 4 405 34 405 51 c 2
 405 57 l 1
 385 26 340 -14 274 -14 c 0
 160 -14 89 89 89 190 c 0
 89 306 174 414 314 414 c 0
 341 414 371 408 386 403 c 0
 392 401 396 400 399 400 c 0
 402 400 406 406 406 424 c 2
 406 566 l 2
 406 620 388 633 356 639 c 0
 350 640 347 646 347 652 c 0
 347 657 349 662 355 664 c 0
 414 679 444 693 463 701 c 0
 468 703 473 704 476 704 c 0
 480 704 482 702 483 698 c 0
 483 686 476 652 476 562 c 2
 476 110 l 2
 476 64 482 45 497 45 c 0
 504 45 523 46 540 48 c 0
 553 49 558 47 558 39 c 0
 558 30 551 21 544 21 c 0
 507 16 474 7 427 -13 c 0
 416 -19 415 -19 411 -19 c 0
310 38 m 0
 345 38 380 58 405 87 c 1
 406 267 l 2
 406 321 357 379 283 379 c 0
 237 379 160 346 160 213 c 0
 160 62 266 38 310 38 c 0
EndSplineSet
Validated: 1
AlternateSubs2: "'ssty' Script Style in Mathematical Alphanumeric Symbols lookup 2 subtable" d.s d.ss
EndChar
StartChar: e
Encoding: 101 101 3906
Width: 403
GlyphClass: 2
Flags: W
TeX: 414 15
TopAccentHorizontal: 232
HStem: -15 61<187.086 312.389> 257 31<122.637 297.97> 385 29<174.117 271.964>
VStem: 43 64<133.835 256.062> 307 66<277.5 358.559>
LayerCount: 2
Fore
SplineSet
226 -15 m 0
 116 -15 43 72 43 203 c 0
 43 318 131 414 236 414 c 0
 316 414 373 362 373 288 c 0
 373 267 364 257 343 257 c 2
 132 257 l 2
 113 257 107 249 107 220 c 0
 107 124 176 46 261 46 c 0
 301 46 334 62 359 91 c 0
 364 98 366 99 370 99 c 0
 375 99 378 95 378 89 c 0
 378 76 372 62 360 47 c 0
 330 8 279 -15 226 -15 c 0
134 288 m 2
 225 288 l 2
 257 288 277 289 299 293 c 0
 305 294 307 301 307 315 c 0
 307 353 268 385 221 385 c 0
 175 385 122 338 122 298 c 0
 122 291 126 288 134 288 c 2
EndSplineSet
Validated: 1
AlternateSubs2: "'ssty' Script Style in Mathematical Alphanumeric Symbols lookup 2 subtable" e.s e.ss
EndChar
StartChar: f
Encoding: 102 102 43
Width: 400
ItalicCorrection: 129
TopAccentHorizontal: 376
GlyphClass: 2
Flags: MW
TeX: 706 3
LayerCount: 2
Fore
SplineSet
117 -3 m 0
 104 -3 97 0 97 8 c 0
 97 18 106 21 120 24 c 0
 151 31 163 41 163 68 c 2
 163 350 l 1
 150 350 132 350 111 352 c 0
 107 353 97 363 97 370 c 0
 97 373 102 375 104 376 c 2
 163 406 l 1
 163 637 296 706 383 706 c 0
 457 706 493 681 493 646 c 0
 493 619 477 606 459 606 c 0
 447 606 438 617 425 629 c 0
 408 646 385 665 341 665 c 0
 278 665 233 611 233 498 c 2
 233 410 l 2
 233 402 238 400 244 400 c 2
 369 400 l 2
 376 400 382 395 382 389 c 0
 382 380 380 368 376 360 c 0
 374 355 370 352 367 352 c 2
 252 352 l 2
 236 352 233 347 233 339 c 2
 233 68 l 2
 233 41 245 30 299 24 c 0
 313 22 322 18 322 8 c 0
 322 0 315 -3 302 -3 c 0
 262 -3 235 2 200 2 c 0
 165 2 157 -3 117 -3 c 0
EndSplineSet
Validated: 1
AlternateSubs2: "'ssty' Script Style in Mathematical Alphanumeric Symbols lookup 2 subtable" f.s f.ss
EndChar
StartChar: g
Encoding: 103 103 44
Width: 526
GlyphClass: 2
Flags: MW
TeX: 416 290
ItalicCorrection: 22
TopAccentHorizontal: 312
LayerCount: 2
Fore
SplineSet
480 388 m 0
 487 388 493 382 493 373 c 0
 493 368 489 360 483 354 c 0
 480 351 477 349 475 349 c 2
 448 349 l 2
 430 349 420 346 418 341 c 0
 415 332 412 313 412 295 c 0
 412 193 339 106 253 106 c 0
 235 106 217 109 200 116 c 1
 176 104 158 86 158 74 c 0
 158 46 203 29 288 24 c 0
 411 17 470 -16 470 -77 c 0
 470 -180 355 -290 247 -290 c 0
 133 -290 63 -244 63 -170 c 0
 63 -135 73 -113 96 -95 c 0
 115 -79 148 -54 180 -28 c 1
 116 -16 92 6 92 44 c 0
 92 57 99 68 115 81 c 0
 154 110 163 117 171 129 c 1
 125 156 91 205 91 258 c 0
 91 351 174 416 265 416 c 0
 304 416 330 403 358 395 c 0
 390 386 405 385 425 385 c 0
 441 385 470 388 480 388 c 0
259 141 m 0
 309 141 347 199 347 275 c 0
 347 333 301 386 252 386 c 0
 205 386 163 331 163 270 c 0
 163 200 207 141 259 141 c 0
409 -109 m 0
 409 -65 365 -44 259 -37 c 0
 243 -36 229 -35 216 -33 c 1
 158 -72 138 -104 138 -155 c 0
 138 -208 192 -250 261 -250 c 0
 301 -250 332 -241 356 -223 c 0
 389 -198 409 -155 409 -109 c 0
EndSplineSet
Validated: 1
AlternateSubs2: "'ssty' Script Style in Mathematical Alphanumeric Symbols lookup 2 subtable" g.s g.ss
EndChar
StartChar: h
Encoding: 104 104 3920
Width: 557
GlyphClass: 2
Flags: W
TeX: 705 3
TopAccentHorizontal: 149
HStem: -3 27<59.291 111.38 206.714 255.629 336.286 384.612 481.734 531.586> 362 52<268.455 361.254>
VStem: 125 70<32.0327 335.273 351.42 626.703> 398 70<31.9098 325.919>
LayerCount: 2
Fore
SplineSet
79 -3 m 0
 67 -3 59 0 59 8 c 0
 59 16 65 19 82 24 c 0
 102 30 124 38 125 65 c 2
 125 566 l 2
 125 602 115 632 81 638 c 0
 75 639 72 644 72 652 c 0
 72 658 74 662 80 664 c 0
 108 673 158 689 191 703 c 0
 193 704 195 705 197 705 c 0
 201 705 204 702 204 698 c 0
 204 686 195 669 195 562 c 2
 195 388 l 2
 195 367 197 360 202 351 c 1
 233 374 291 414 354 414 c 0
 419 414 468 356 468 278 c 2
 468 68 l 2
 468 41 489 30 509 24 c 0
 523 20 532 16 532 8 c 0
 532 0 526 -3 512 -3 c 0
 472 -3 469 2 434 2 c 0
 399 2 396 -3 356 -3 c 0
 342 -3 336 0 336 8 c 0
 336 17 344 19 359 24 c 0
 379 31 398 41 398 68 c 2
 398 272 l 2
 398 322 348 362 305 362 c 0
 280 362 241 355 222 340 c 0
 201 323 195 309 195 268 c 2
 195 65 l 2
 196 38 214 30 234 24 c 0
 248 20 256 16 256 8 c 0
 256 0 251 -3 236 -3 c 0
 196 -3 195 2 160 2 c 0
 125 2 119 -3 79 -3 c 0
EndSplineSet
Validated: 1
AlternateSubs2: "'ssty' Script Style in Mathematical Alphanumeric Symbols lookup 2 subtable" h.s h.ss
EndChar
StartChar: i
Encoding: 105 105 3601
Width: 263
TopAccentHorizontal: 131
GlyphClass: 2
Flags: MW
TeX: 617 3
LayerCount: 2
Fore
SplineSet
131 516 m 0
 103 516 81 538 81 566 c 0
 81 595 103 617 131 617 c 0
 160 617 182 595 182 566 c 0
 182 538 160 516 131 516 c 0
51 -3 m 0
 39 -3 31 0 31 8 c 0
 31 18 43 21 54 24 c 0
 82 31 97 38 97 62 c 2
 97 279 l 2
 97 315 86 347 52 352 c 0
 45 353 42 357 42 365 c 0
 42 372 45 376 51 377 c 0
 104 389 139 413 156 427 c 0
 161 431 166 434 170 434 c 0
 174 434 176 432 176 429 c 0
 176 413 167 339 167 294 c 2
 167 62 l 2
 167 39 183 31 210 24 c 0
 221 21 233 18 233 8 c 0
 233 0 226 -3 213 -3 c 0
 175 -3 167 2 132 2 c 0
 97 2 90 -3 51 -3 c 0
EndSplineSet
Validated: 1
Substitution2: "'dtls' Dotless Forms in Mathematical Alphanumeric Symbols lookup 1 subtable" dotlessi
AlternateSubs2: "'ssty' Script Style in Mathematical Alphanumeric Symbols lookup 2 subtable" i.s i.ss
EndChar
StartChar: j
Encoding: 106 106 47
Width: 267
GlyphClass: 2
Flags: W
TeX: 617 287
ItalicCorrection: 7
TopAccentHorizontal: 161
HStem: -287 27<25.6152 63.4884> 516 101<120.117 202.823>
VStem: 111 101<525.117 607.823> 134 70<-125.075 340.129>
LayerCount: 2
Fore
SplineSet
161 516 m 0xe0
 133 516 111 538 111 566 c 0
 111 595 133 617 161 617 c 0
 190 617 212 595 212 566 c 0
 212 538 190 516 161 516 c 0xe0
46 -287 m 0
 39 -287 25 -284 25 -277 c 0
 25 -269 34 -261 36 -260 c 0
 60 -254 83 -237 102 -197 c 0
 131 -136 134 0 134 69 c 2
 134 279 l 2
 134 315 122 345 88 352 c 0
 83 353 80 359 80 365 c 0
 80 370 83 376 87 377 c 0
 137 389 172 415 191 427 c 0
 198 431 202 434 204 434 c 0
 208 434 211 432 211 429 c 0
 207 388 204 320 204 275 c 2
 204 91 l 2xd0
 204 29 203 -72 174 -152 c 0
 149 -220 86 -287 46 -287 c 0
EndSplineSet
Validated: 1
Substitution2: "'dtls' Dotless Forms in Mathematical Alphanumeric Symbols lookup 1 subtable" dotlessj
AlternateSubs2: "'ssty' Script Style in Mathematical Alphanumeric Symbols lookup 2 subtable" j.s j.ss
EndChar
StartChar: k
Encoding: 107 107 3823
Width: 566
GlyphClass: 2
Flags: W
TeX: 705 3
TopAccentHorizontal: 172
HStem: -3 27<81.3057 133.766 226.421 274.685 316.143 355.768 485.515 540.593> 206 19<217 233.891> 378 22<335.093 371.401> 384 28<451.323 509.893>
VStem: 147 70<32.0327 205.999 225.002 627.924>
LayerCount: 2
Fore
SplineSet
104 -3 m 0xd8
 89 -3 81 0 81 8 c 0
 81 18 93 20 104 24 c 0
 124 30 147 38 147 65 c 2
 147 566 l 2
 147 613 135 631 102 639 c 0
 96 640 93 646 93 652 c 0
 93 658 96 663 101 664 c 0
 152 676 181 689 211 702 c 0
 215 704 217 705 220 705 c 0
 224 705 226 702 226 696 c 0
 226 682 217 647 217 562 c 2
 217 234 l 2
 217 228 219 225 222 225 c 0
 230 225 243 232 258 245 c 0
 312 292 351 333 364 348 c 0
 371 356 373 360 373 363 c 0
 373 370 359 375 347 378 c 0
 338 380 335 382 335 388 c 0
 335 395 343 400 357 400 c 2
 406 400 l 2xe8
 437 400 478 412 497 412 c 0
 506 412 511 408 511 402 c 0
 511 394 500 388 486 384 c 0
 461 377 438 364 420 353 c 0
 407 345 340 289 292 247 c 0
 288 243 286 240 286 237 c 0
 286 235 287 232 289 230 c 0
 340 166 415 91 436 72 c 0
 458 51 491 33 511 26 c 0
 525 21 541 18 541 8 c 0
 541 -1 533 -3 521 -3 c 0
 469 -3 402 0 334 0 c 0
 320 0 316 4 316 9 c 0
 316 17 324 22 333 25 c 0
 348 30 360 36 360 48 c 0
 360 52 357 57 353 62 c 2
 232 199 l 2
 228 204 226 206 222 206 c 0
 219 206 217 204 217 199 c 0
 216 180 216 158 216 135 c 0
 216 112 216 88 217 65 c 0
 217 38 232 30 252 24 c 0
 263 20 275 18 275 8 c 0
 275 -2 257 -3 252 -3 c 0
 213 -3 217 2 182 2 c 0
 147 2 143 -3 104 -3 c 0xd8
EndSplineSet
Validated: 1
AlternateSubs2: "'ssty' Script Style in Mathematical Alphanumeric Symbols lookup 2 subtable" k.s k.ss
EndChar
StartChar: l
Encoding: 108 108 3760
Width: 398
GlyphClass: 2
Flags: MW
TeX: 705 3
TopAccentHorizontal: 186
LayerCount: 2
Fore
SplineSet
118 -3 m 0
 111 -3 98 -2 98 6 c 0
 98 16 110 20 121 24 c 0
 141 30 164 35 164 62 c 2
 164 566 l 2
 164 605 151 632 118 639 c 0
 113 640 110 646 110 652 c 0
 110 658 113 663 117 664 c 0
 168 676 198 691 230 703 c 0
 232 704 234 705 236 705 c 0
 239 705 241 701 241 698 c 0
 241 686 234 652 234 562 c 2
 234 62 l 2
 234 35 257 30 277 24 c 0
 288 20 300 16 300 6 c 0
 300 -2 287 -3 280 -3 c 0
 241 -3 234 2 199 2 c 0
 164 2 157 -3 118 -3 c 0
EndSplineSet
Validated: 1
AlternateSubs2: "'ssty' Script Style in Mathematical Alphanumeric Symbols lookup 2 subtable" l.s l.ss
EndChar
StartChar: m
Encoding: 109 109 3617
Width: 796
TopAccentHorizontal: 375
GlyphClass: 2
Flags: MW
TeX: 430 3
LayerCount: 2
Fore
SplineSet
55 -3 m 0
 44 -3 35 -1 35 8 c 0
 35 17 45 20 58 24 c 0
 77 30 101 35 101 62 c 2
 101 277 l 2
 101 313 97 343 63 349 c 0
 57 350 54 354 54 362 c 0
 54 370 57 373 62 374 c 0
 116 387 128 403 164 426 c 0
 166 427 169 430 173 430 c 0
 176 430 179 427 179 423 c 0
 179 414 174 378 174 359 c 0
 174 353 175 348 176 347 c 2
 178 347 l 1
 208 376 257 414 334 414 c 0
 382 414 413 396 434 345 c 1
 437 345 l 1
 480 383 535 414 600 414 c 0
 665 414 700 345 700 275 c 2
 700 62 l 2
 700 35 723 30 743 24 c 0
 756 20 766 17 766 8 c 0
 766 0 761 -3 746 -3 c 0
 706 -3 702 2 667 2 c 0
 632 2 624 -3 584 -3 c 0
 572 -3 564 0 564 8 c 0
 564 18 574 21 587 24 c 0
 608 29 630 35 630 62 c 2
 630 272 l 2
 630 320 593 367 550 367 c 0
 516 367 488 360 463 340 c 0
 445 326 435 303 435 268 c 2
 435 62 l 2
 435 35 460 29 480 24 c 0
 493 21 503 17 503 8 c 0
 503 0 496 -3 483 -3 c 0
 443 -3 436 2 401 2 c 0
 366 2 358 -3 318 -3 c 0
 307 -3 298 0 298 8 c 0
 298 18 310 20 321 24 c 0
 341 30 365 35 365 62 c 2
 365 272 l 2
 365 320 328 367 285 367 c 0
 251 367 223 360 198 340 c 0
 179 326 171 302 171 268 c 2
 171 62 l 2
 171 35 194 30 214 24 c 0
 225 20 237 18 237 8 c 0
 237 0 229 -3 217 -3 c 0
 177 -3 171 2 136 2 c 0
 101 2 95 -3 55 -3 c 0
EndSplineSet
Validated: 1
AlternateSubs2: "'ssty' Script Style in Mathematical Alphanumeric Symbols lookup 2 subtable" m.s m.ss
EndChar
StartChar: n
Encoding: 110 110 51
Width: 538
GlyphClass: 2
Flags: W
TeX: 430 3
TopAccentHorizontal: 242
HStem: -3 27<32.2101 86.9702 179.03 233.668 312.056 365.97 458.03 512.003> 366 48<236.999 346.812>
VStem: 98 70<30.7063 325.762> 377 70<31.1488 335.799>
LayerCount: 2
Fore
SplineSet
52 -3 m 0
 40 -3 32 0 32 8 c 0
 32 18 40 20 55 24 c 0
 75 29 98 35 98 62 c 2
 98 277 l 2
 98 313 95 340 61 349 c 0
 55 351 51 354 51 362 c 0
 51 369 54 373 60 374 c 0
 106 386 132 404 160 425 c 0
 164 428 167 430 171 430 c 0
 174 430 176 427 176 423 c 0
 176 414 171 378 171 359 c 0
 171 353 172 348 173 347 c 0
 220 392 271 414 334 414 c 0
 399 414 447 353 447 275 c 2
 447 62 l 2
 447 35 470 30 490 24 c 0
 501 20 513 16 513 6 c 0
 513 -2 501 -3 493 -3 c 0
 453 -3 448 2 413 2 c 0
 378 2 371 -3 331 -3 c 0
 324 -3 311 -2 311 6 c 0
 311 16 323 20 334 24 c 0
 354 30 377 35 377 62 c 2
 377 272 l 2
 377 330 341 365 287 366 c 0
 239 366 204 349 176 326 c 0
 171 321 168 311 168 303 c 2
 168 62 l 2
 168 35 191 29 211 24 c 0
 227 20 234 16 234 8 c 0
 234 0 227 -3 214 -3 c 0
 174 -3 168 2 133 2 c 0
 98 2 92 -3 52 -3 c 0
EndSplineSet
Validated: 1
AlternateSubs2: "'ssty' Script Style in Mathematical Alphanumeric Symbols lookup 2 subtable" n.s n.ss
EndChar
StartChar: o
Encoding: 111 111 52
Width: 485
GlyphClass: 2
Flags: MW
TeX: 414 14
TopAccentHorizontal: 250
LayerCount: 2
Fore
SplineSet
229 -14 m 0
 117 -14 30 70 30 187 c 0
 30 298 126 414 249 414 c 0
 365 414 455 321 455 213 c 0
 455 96 379 -14 229 -14 c 0
250 16 m 0
 295 16 333 32 353 71 c 0
 369 102 373 150 373 189 c 0
 373 284 317 383 232 383 c 0
 196 383 168 374 144 343 c 0
 117 309 112 258 112 210 c 0
 112 111 170 16 250 16 c 0
EndSplineSet
Validated: 1
AlternateSubs2: "'ssty' Script Style in Mathematical Alphanumeric Symbols lookup 2 subtable" o.s o.ss
EndChar
StartChar: p
Encoding: 112 112 3666
Width: 542
GlyphClass: 2
Flags: W
TeX: 426 285
TopAccentHorizontal: 261
HStem: -285 27<52.9975 106.97 205.131 268.003> -14 31<260.473 355.672> 369 45<265.033 372.995>
VStem: 118 70<-246.875 17.9674 86.2615 336.424> 437 80<127.023 298.226>
LayerCount: 2
Fore
SplineSet
73 -285 m 0
 66 -285 52 -284 52 -276 c 0
 52 -266 64 -262 75 -258 c 0
 95 -252 118 -247 118 -220 c 2
 118 287 l 2
 118 302 105 353 72 360 c 0
 67 361 64 367 64 373 c 0
 64 379 67 384 71 385 c 0
 122 397 155 412 187 425 c 0
 188 425 188 426 189 426 c 0
 192 426 195 421 195 417 c 0
 195 405 190 373 190 357 c 0
 190 353 190 349 191 348 c 1
 210 367 290 414 353 414 c 0
 456 414 517 319 517 225 c 0
 517 106 418 -14 292 -14 c 0
 264 -14 212 0 192 18 c 0
 189 18 188 -27 188 -33 c 2
 188 -220 l 2
 188 -247 226 -252 246 -258 c 0
 257 -262 269 -266 269 -276 c 0
 269 -284 255 -285 247 -285 c 0
 208 -285 188 -280 153 -280 c 0
 118 -280 112 -285 73 -285 c 0
307 17 m 0
 346 17 437 59 437 193 c 0
 437 347 344 369 301 369 c 0
 253 369 191 331 191 317 c 0
 191 259 188 190 188 166 c 0
 188 85 253 17 307 17 c 0
EndSplineSet
Validated: 1
AlternateSubs2: "'ssty' Script Style in Mathematical Alphanumeric Symbols lookup 2 subtable" p.s p.ss
EndChar
StartChar: q
Encoding: 113 113 3956
Width: 554
GlyphClass: 2
Flags: W
TeX: 421 285
TopAccentHorizontal: 281
HStem: -285 27<302.056 355.97 451.69 511.003> -14 53<181.053 301.347> 382 32<188.653 308.636>
VStem: 25 82<112.735 280.438> 367 70<-248.32 42.9948 62.939 335.223>
LayerCount: 2
Fore
SplineSet
321 -285 m 0
 314 -285 301 -284 301 -276 c 0
 301 -266 313 -262 324 -258 c 0
 344 -252 367 -247 367 -220 c 2
 367 13 l 2
 367 36 365 43 361 43 c 0
 358 43 355 44 352 41 c 0
 335 26 278 -14 225 -14 c 0
 121 -14 25 54 25 178 c 0
 25 319 125 414 272 414 c 0
 340 414 395 392 400 392 c 0
 414 392 419 402 426 417 c 0
 427 418 430 421 433 421 c 0
 439 421 449 416 449 411 c 0
 449 398 437 352 437 295 c 2
 437 -220 l 2
 437 -247 469 -252 489 -258 c 0
 500 -262 512 -266 512 -276 c 0
 512 -284 500 -285 492 -285 c 0
 452 -285 438 -280 402 -280 c 0
 367 -280 361 -285 321 -285 c 0
262 39 m 0
 306 39 351 61 368 80 c 1
 368 116 368 250 367 275 c 0
 365 335 313 382 247 382 c 0
 175 382 107 320 107 205 c 0
 107 72 202 39 262 39 c 0
EndSplineSet
Validated: 1
AlternateSubs2: "'ssty' Script Style in Mathematical Alphanumeric Symbols lookup 2 subtable" q.s q.ss
EndChar
StartChar: r
Encoding: 114 114 3775
Width: 307
GlyphClass: 2
Flags: W
TeX: 430 3
ItalicCorrection: 69
TopAccentHorizontal: 225
HStem: -3 27<52.2179 102.143 202.701 259.682> 348 66<240.503 331.124>
VStem: 113 71<35.8108 329.917>
LayerCount: 2
Fore
SplineSet
72 -3 m 0
 58 -3 52 0 52 8 c 0
 52 18 60 20 75 24 c 0
 100 30 113 43 113 62 c 2
 113 277 l 2
 113 313 105 342 72 349 c 0
 67 350 62 356 62 362 c 0
 62 368 67 373 71 374 c 0
 106 385 149 410 170 423 c 0
 178 428 182 430 185 430 c 0
 188 430 190 427 190 423 c 0
 190 416 189 380 187 348 c 0
 187 347 188 346 189 346 c 0
 221 385 265 414 304 414 c 0
 332 414 352 400 352 382 c 0
 352 362 333 330 313 330 c 0
 305 330 295 334 285 339 c 0
 274 343 263 348 253 348 c 0
 221 348 184 331 184 264 c 2
 184 62 l 2
 184 44 204 34 237 24 c 0
 251 20 260 17 260 8 c 0
 260 0 254 -3 240 -3 c 0
 200 -3 188 2 153 2 c 0
 118 2 112 -3 72 -3 c 0
EndSplineSet
Validated: 1
AlternateSubs2: "'ssty' Script Style in Mathematical Alphanumeric Symbols lookup 2 subtable" r.s r.ss
EndChar
StartChar: s
Encoding: 115 115 84
Width: 398
GlyphClass: 2
Flags: MW
TeX: 414 14
ItalicCorrection: 10
TopAccentHorizontal: 217
LayerCount: 2
Fore
SplineSet
187 -14 m 0
 146 -14 108 -1 83 22 c 1
 76 36 73 79 72 102 c 0
 72 108 78 111 85 111 c 0
 90 111 96 109 97 104 c 0
 114 38 157 13 196 13 c 0
 235 13 266 42 266 81 c 0
 266 117 245 138 185 175 c 0
 117 217 90 249 90 299 c 0
 90 363 135 414 225 414 c 0
 265 414 292 404 305 395 c 1
 315 380 324 344 324 316 c 0
 324 311 319 309 314 309 c 0
 306 309 297 313 295 318 c 0
 277 362 252 386 214 386 c 0
 181 386 150 365 150 327 c 0
 150 296 165 276 219 245 c 0
 296 201 334 170 334 108 c 0
 334 36 274 -14 187 -14 c 0
EndSplineSet
Validated: 1
AlternateSubs2: "'ssty' Script Style in Mathematical Alphanumeric Symbols lookup 2 subtable" s.s s.ss
EndChar
StartChar: t
Encoding: 116 116 4048
Width: 341
GlyphClass: 2
Flags: W
TeX: 475 14
TopAccentHorizontal: 190
HStem: -14 55<183.591 272.431> 352 48<166.312 313.775>
VStem: 95 70<58.7654 351.595>
LayerCount: 2
Fore
SplineSet
199 -14 m 0
 134 -14 95 26 95 105 c 2
 95 337 l 2
 95 348 89 352 63 352 c 2
 57 352 l 2
 50 352 45 362 45 372 c 0
 45 375 50 382 52 383 c 0
 91 410 123 441 141 463 c 0
 147 470 151 475 158 475 c 0
 164 475 172 473 171 464 c 2
 166 419 l 2
 164 404 173 400 190 400 c 2
 304 400 l 2
 309 400 314 390 314 378 c 0
 314 366 309 352 304 352 c 2
 205 352 l 2
 171 352 165 351 165 324 c 2
 165 127 l 2
 165 73 188 41 231 41 c 0
 270 41 288 47 305 59 c 0
 306 60 308 61 309 61 c 0
 314 61 316 54 316 47 c 0
 316 36 260 -14 199 -14 c 0
EndSplineSet
Validated: 1
AlternateSubs2: "'ssty' Script Style in Mathematical Alphanumeric Symbols lookup 2 subtable" t.s t.ss
EndChar
StartChar: u
Encoding: 117 117 58
Width: 615
GlyphClass: 2
Flags: MW
TeX: 415 19
TopAccentHorizontal: 276
LayerCount: 2
Fore
SplineSet
406 -19 m 0
 401 -19 399 -16 399 -11 c 0
 399 2 404 34 404 51 c 2
 404 57 l 1
 352 6 301 -14 239 -14 c 0
 174 -14 125 27 125 105 c 2
 125 308 l 2
 125 337 112 353 82 365 c 0
 75 367 69 370 69 381 c 0
 69 393 76 396 84 397 c 0
 129 400 146 404 183 413 c 0
 187 414 188 414 191 414 c 0
 197 414 202 411 201 400 c 0
 197 369 195 353 195 323 c 2
 195 128 l 2
 195 80 236 37 279 37 c 0
 313 37 338 38 363 57 c 0
 378 68 408 91 408 132 c 2
 408 315 l 2
 408 356 361 365 341 365 c 0
 329 365 320 368 320 382 c 0
 320 394 330 397 341 397 c 0
 402 398 428 403 464 413 c 0
 467 414 471 415 474 415 c 0
 481 415 487 411 487 404 c 0
 487 402 486 399 485 395 c 0
 483 388 478 342 478 326 c 2
 478 95 l 2
 478 59 486 45 496 45 c 0
 506 45 532 48 542 48 c 0
 549 48 557 47 557 35 c 0
 557 24 551 22 543 21 c 0
 491 14 455 -1 426 -13 c 0
 422 -15 412 -19 406 -19 c 0
EndSplineSet
Validated: 1
AlternateSubs2: "'ssty' Script Style in Mathematical Alphanumeric Symbols lookup 2 subtable" u.s u.ss
EndChar
StartChar: v
Encoding: 118 118 3463
Width: 437
GlyphClass: 2
Flags: W
TeX: 405 21
ItalicCorrection: 63
TopAccentHorizontal: 256
HStem: 378 27<187.71 224.076 303.785 345.345 429.433 474.165>
VStem: 352 123<330.5 400>
LayerCount: 2
Fore
SplineSet
246 -21 m 2
 241 -21 231 8 228 17 c 0
 219 39 211 65 203 87 c 0
 173 170 138 247 106 329 c 0
 96 353 75 374 55 380 c 0
 44 384 37 387 37 396 c 0
 37 404 50 405 57 405 c 0
 96 405 95 400 130 400 c 0
 165 400 166 405 205 405 c 0
 212 405 225 404 225 396 c 0
 225 386 214 382 202 378 c 0
 188 373 182 356 182 337 c 0
 182 328 183 318 186 310 c 2
 265 100 l 2
 266 99 267 99 268 100 c 2
 344 295 l 2
 349 308 352 325 352 336 c 0
 352 362 344 371 326 378 c 0
 309 384 303 387 303 396 c 0
 303 404 314 405 323 405 c 0
 338 405 361 400 396 400 c 0
 431 400 436 405 455 405 c 0
 465 405 475 404 475 396 c 0
 475 387 468 383 452 378 c 0
 432 372 404 344 390 311 c 2
 312 123 l 2
 307 112 274 24 274 24 c 1
 274 24 259 -12 252 -21 c 1
 246 -21 l 2
EndSplineSet
Validated: 1
AlternateSubs2: "'ssty' Script Style in Mathematical Alphanumeric Symbols lookup 2 subtable" v.s v.ss
EndChar
StartChar: w
Encoding: 119 119 3464
Width: 686
GlyphClass: 2
Flags: W
TeX: 405 23
ItalicCorrection: 58
TopAccentHorizontal: 377
HStem: 378 27<35.0556 82.3292 191.927 228.997 281.997 328.151 431.984 478.944 547.056 590.145 676.56 718.003>
VStem: 355 68<275.812 361.27> 604 115<329.5 400>
LayerCount: 2
Fore
SplineSet
255 -23 m 0
 252 -23 249 -20 248 -16 c 2
 109 329 l 2
 99 355 77 372 57 378 c 0
 46 382 34 386 34 396 c 0
 34 404 47 405 54 405 c 0
 79 405 101 400 127 400 c 0
 155 400 182 405 210 405 c 0
 215 405 230 404 230 396 c 0
 230 386 218 382 207 378 c 0
 193 374 186 357 186 338 c 0
 186 329 188 320 191 312 c 2
 269 111 l 2
 270 108 272 107 274 107 c 0
 276 107 278 108 279 111 c 2
 347 273 l 2
 354 290 355 306 355 321 c 0
 355 350 327 369 304 378 c 0
 293 382 281 386 281 396 c 0
 281 404 293 405 301 405 c 0
 319 405 339 400 376 400 c 0
 413 400 438 405 460 405 c 0
 467 405 480 404 480 396 c 0
 480 386 468 382 457 378 c 0
 442 373 423 366 423 342 c 0
 423 334 425 324 430 312 c 2
 505 119 l 2
 508 112 511 108 513 108 c 0
 516 108 518 111 521 118 c 2
 597 295 l 2
 602 306 604 325 604 334 c 0
 604 358 584 373 569 378 c 0
 558 382 546 386 546 396 c 0
 546 404 559 405 566 405 c 0
 595 405 605 400 641 400 c 0
 678 400 677 405 699 405 c 0
 707 405 719 404 719 396 c 0
 719 386 707 382 696 378 c 0
 676 372 656 342 643 312 c 2
 506 -16 l 2
 504 -20 501 -23 497 -23 c 0
 494 -23 491 -20 489 -16 c 2
 385 242 l 2
 383 247 381 250 379 251 c 0
 377 251 375 248 372 241 c 2
 263 -16 l 2
 261 -20 258 -23 255 -23 c 0
EndSplineSet
Validated: 1
AlternateSubs2: "'ssty' Script Style in Mathematical Alphanumeric Symbols lookup 2 subtable" w.s w.ss
EndChar
StartChar: x
Encoding: 120 120 3465
Width: 475
GlyphClass: 2
Flags: MW
TeX: 405 4
TopAccentHorizontal: 238
LayerCount: 2
Fore
SplineSet
50 -4 m 0
 42 -4 30 -3 30 5 c 0
 30 16 42 20 53 23 c 0
 73 29 92 41 120 80 c 2
 197 187 l 2
 206 198 204 202 199 210 c 2
 117 335 l 2
 101 361 91 371 71 377 c 0
 60 380 48 384 48 395 c 0
 48 405 66 404 71 404 c 0
 110 404 101 400 150 400 c 0
 174 400 178 402 201 402 c 0
 206 402 224 403 224 393 c 0
 224 385 215 382 206 379 c 0
 196 376 185 373 185 362 c 0
 185 355 190 343 198 330 c 2
 244 261 l 2
 247 256 250 257 253 261 c 2
 304 338 l 2
 309 345 312 353 312 360 c 0
 312 367 309 373 299 376 c 0
 288 380 276 384 276 394 c 0
 276 404 294 403 299 403 c 0
 309 403 333 400 349 400 c 0
 386 400 395 405 412 405 c 0
 420 405 432 404 432 396 c 0
 432 386 420 382 409 378 c 0
 389 372 357 358 338 331 c 2
 275 236 l 2
 273 233 272 228 276 223 c 2
 373 65 l 2
 389 39 402 29 422 23 c 0
 433 20 445 16 445 5 c 0
 445 -3 433 -4 425 -4 c 0
 384 -4 391 0 341 0 c 0
 317 0 291 -2 268 -2 c 0
 251 -2 245 3 245 8 c 0
 245 20 254 24 270 28 c 0
 284 32 298 38 298 52 c 0
 298 57 296 63 292 70 c 2
 233 166 l 2
 232 167 228 167 227 166 c 2
 161 67 l 2
 159 64 156 56 156 48 c 0
 156 39 160 29 170 26 c 0
 181 22 193 18 193 8 c 0
 193 -2 175 -1 170 -1 c 0
 159 -1 133 1 117 1 c 0
 80 1 68 -4 50 -4 c 0
EndSplineSet
Validated: 1
AlternateSubs2: "'ssty' Script Style in Mathematical Alphanumeric Symbols lookup 2 subtable" x.s x.ss
EndChar
StartChar: y
Encoding: 121 121 3466
Width: 462
GlyphClass: 2
Flags: W
TeX: 405 285
ItalicCorrection: 61
TopAccentHorizontal: 280
HStem: -285 86<73.5102 170.448> 378 27<62.0556 105.899 208.137 249.546 455.046 497.944>
VStem: 69 116<-271.156 -206.881> 378 121<327 400>
LayerCount: 2
Fore
SplineSet
120 -285 m 0
 94 -285 69 -274 69 -244 c 0
 69 -220 81 -199 102 -199 c 0
 117 -199 131 -205 142 -205 c 0
 150 -205 156 -202 161 -194 c 0
 183 -159 217 -93 246 -16 c 0
 248 -10 249 -2 249 7 c 0
 249 18 248 28 245 36 c 2
 129 329 l 2
 119 353 104 372 84 378 c 0
 73 382 61 386 61 396 c 0
 61 404 74 405 81 405 c 0
 121 405 119 400 154 400 c 0
 189 400 190 405 230 405 c 0
 238 405 250 402 250 394 c 0
 250 384 232 375 221 372 c 0
 207 368 201 359 201 340 c 0
 201 332 206 319 209 312 c 2
 290 112 l 2
 291 109 293 106 296 106 c 0
 298 106 300 109 301 112 c 2
 370 295 l 2
 374 304 378 322 378 332 c 0
 378 357 370 365 358 370 c 0
 347 375 329 384 329 394 c 0
 329 402 342 405 349 405 c 0
 367 405 383 400 420 400 c 0
 457 400 457 405 479 405 c 0
 486 405 499 404 499 396 c 0
 499 386 487 382 476 378 c 0
 456 372 430 343 417 311 c 2
 281 -13 l 2
 277 -22 226 -148 185 -244 c 0
 173 -271 149 -285 120 -285 c 0
EndSplineSet
Validated: 1
AlternateSubs2: "'ssty' Script Style in Mathematical Alphanumeric Symbols lookup 2 subtable" y.s y.ss
EndChar
StartChar: z
Encoding: 122 122 3469
Width: 402
GlyphClass: 2
Flags: W
TeX: 416 5
TopAccentHorizontal: 206
HStem: -5 38<127.728 295.781> 368 33<104.002 249.22>
VStem: 38 22<291.683 308.547>
LayerCount: 2
Fore
SplineSet
42 -5 m 0
 37 -5 28 7 28 12 c 0
 28 17 51 51 65 70 c 0
 132 166 183 242 256 358 c 0
 259 362 262 368 247 368 c 2
 148 371 l 2
 129 372 112 360 104 352 c 0
 89 337 74 312 60 294 c 0
 52 286 34 293 38 304 c 0
 44 322 57 373 57 398 c 0
 57 408 68 416 72 416 c 0
 75 416 81 412 87 407 c 0
 93 402 112 401 130 401 c 0
 145 401 159 402 168 402 c 0
 237 402 293 403 354 405 c 0
 359 405 364 397 361 393 c 0
 347 376 336 363 323 343 c 2
 128 48 l 2
 122 38 128 33 137 33 c 2
 255 33 l 2
 270 33 285 41 300 56 c 0
 316 72 335 100 355 129 c 0
 361 138 377 133 377 122 c 0
 377 114 352 25 347 9 c 0
 345 0 339 -5 331 -5 c 0
 302 -5 231 0 122 0 c 0
 94 0 59 -5 42 -5 c 0
EndSplineSet
Validated: 33
AlternateSubs2: "'ssty' Script Style in Mathematical Alphanumeric Symbols lookup 2 subtable" z.s z.ss
EndChar
StartChar: braceleft
Encoding: 123 123 3768
Width: 526
GlyphClass: 2
Flags: W
TeX: 683 300
GlyphVariantsVertical: braceleft braceleft.v1 braceleft.v2 braceleft.v3 braceleft.v4 braceleft.v5 braceleft.v6 braceleft.v7 braceleft.v8 braceleft.v9 braceleft.v10 braceleft.v11 braceleft.v12 braceleft.v13 braceleft.v14 braceleft.v15 braceleft.v16 braceleft.v17 braceleft.v18 braceleft.v19 braceleft.v20
GlyphCompositionVertical: 5  uni23A9%0,0,400,1734 braceleft.ex%1,800,800,800 uni23A8%0,400,400,3464 braceleft.ex%1,800,800,800 uni23A7%0,400,0,1737
HStem: 654 29<332.143 415.974>
VStem: 203 85<-117.689 118.197 379.803 615.561> 216 85<-51.7816 174.392 323.542 549.782>
LayerCount: 2
Fore
SplineSet
395 -184 m 0xc0
 301 -178 203 -146 203 -52 c 0xc0
 203 18 216 64 216 126 c 0
 216 184 172 224 129 234 c 0
 120 236 110 242 110 250 c 0
 110 256 116 266 131 270 c 0
 184 284 216 314 216 372 c 0xa0
 216 434 203 480 203 550 c 0
 203 644 304 679 398 683 c 0
 407 683 416 677 416 668 c 0
 416 657 401 655 390 654 c 0
 326 646 288 629 288 556 c 0xc0
 288 488 301 440 301 382 c 0
 301 316 225 269 183 252 c 0
 179 250 182 249 185 248 c 0
 218 239 301 182 301 116 c 0xa0
 301 58 288 10 288 -58 c 0
 288 -131 323 -151 387 -157 c 0
 398 -158 413 -157 413 -168 c 0
 413 -177 404 -185 395 -184 c 0xc0
EndSplineSet
EndChar
StartChar: bar
Encoding: 92 124 66
Width: 272
GlyphClass: 2
Flags: W
TeX: 725 300
GlyphVariantsVertical: bar divides.v1 divides.v2 divides.v3 divides.v4 divides.v5 divides.v6 divides.v7 divides.v8 divides.v9 divides.v10 divides.v11 divides.v12 divides.v13 divides.v14 divides.v15 divides.v16 divides.v17 divides.v18 divides.v19 divides.v20
GlyphCompositionVertical: 3  divides.bt%0,0,1000,2375 divides.ex%1,500,500,500 divides.tp%0,1000,0,2375
VStem: 110 52<-222.047 722.047>
LayerCount: 2
Fore
SplineSet
162 -209 m 2
 162 -217 155 -225 149 -225 c 0
 129 -225 110 -214 110 -194 c 2
 110 709 l 2
 110 717 117 725 123 725 c 0
 143 725 162 714 162 694 c 2
 162 -209 l 2
EndSplineSet
EndChar
StartChar: braceright
Encoding: 125 125 66
Width: 526
GlyphClass: 2
Flags: W
TeX: 683 300
GlyphVariantsVertical: braceright braceright.v1 braceright.v2 braceright.v3 braceright.v4 braceright.v5 braceright.v6 braceright.v7 braceright.v8 braceright.v9 braceright.v10 braceright.v11 braceright.v12 braceright.v13 braceright.v14 braceright.v15 braceright.v16 braceright.v17 braceright.v18 braceright.v19 braceright.v20
GlyphCompositionVertical: 5  uni23AD%0,0,400,1734 braceright.ex%1,800,800,800 uni23AC%0,400,400,3464 braceright.ex%1,800,800,800 uni23AB%0,400,0,1737
HStem: -184 27<113.311 192.194> 654 29<110.026 193.857>
VStem: 225 85<-51.7816 174.392 323.542 549.782> 238 85<-117.689 118.197 379.803 615.561>
LayerCount: 2
Fore
SplineSet
131 -184 m 0xd0
 122 -185 113 -177 113 -168 c 0
 113 -157 128 -158 139 -157 c 0
 203 -151 238 -131 238 -58 c 0xd0
 238 10 225 58 225 116 c 0
 225 182 308 239 341 248 c 0
 344 249 347 250 343 252 c 0
 301 269 225 316 225 382 c 0xe0
 225 440 238 488 238 556 c 0
 238 629 200 646 136 654 c 0
 125 655 110 657 110 668 c 0
 110 677 119 683 128 683 c 0
 222 679 323 644 323 550 c 0xd0
 323 480 310 434 310 372 c 0
 310 314 342 284 395 270 c 0
 410 266 416 256 416 250 c 0
 416 242 406 236 397 234 c 0
 354 224 310 184 310 126 c 0xe0
 310 64 323 18 323 -52 c 0
 323 -146 225 -178 131 -184 c 0xd0
EndSplineSet
EndChar
StartChar: asciitilde
Encoding: 94 126 68
Width: 541
GlyphClass: 2
Flags: W
TeX: 320 -186
HStem: 186 66<301.467 435.406> 254 66<106.594 240.533>
LayerCount: 2
Fore
SplineSet
500 269 m 0
 455 207 424 186 379 186 c 0
 334 186 316 193 227 240 c 0
 210 249 189 254 168 254 c 0
 157 254 147 252 138 248 c 0
 113 236 75 214 48 214 c 0
 37 214 34 225 42 237 c 0
 87 299 118 320 163 320 c 0
 208 320 226 313 315 266 c 0
 332 257 353 252 374 252 c 0
 385 252 395 254 404 258 c 0
 429 270 467 292 494 292 c 0
 505 292 508 281 500 269 c 0
EndSplineSet
EndChar
StartChar: exclamdown
Encoding: 161 161 3857
Width: 250
Flags: MW
LayerCount: 2
Fore
SplineSet
125 494 m 0
 158 494 185 467 185 434 c 0
 185 401 158 374 125 374 c 0
 92 374 65 401 65 434 c 0
 65 467 92 494 125 494 c 0
123 275 m 0
 133 275 139 258 141 236 c 0
 153 123 171 -51 171 -114 c 0
 171 -143 153 -169 126 -169 c 0
 99 -169 79 -143 79 -114 c 0
 79 -51 93 122 105 236 c 0
 108 265 113 275 123 275 c 0
EndSplineSet
Validated: 1
EndChar
StartChar: cent
Encoding: 162 162 98
Width: 297
Flags: MW
ItalicCorrection: 124
TopAccentHorizontal: 254
LayerCount: 2
Fore
SplineSet
202 -13 m 0
 193 -13 185 -7 186 2 c 2
 194 78 l 1
 109 93 35 179 35 278 c 0
 35 391 119 491 238 502 c 1
 242 562 l 2
 243 573 253 579 264 579 c 0
 272 579 278 570 277 562 c 2
 273 503 l 1
 312 501 353 488 380 455 c 0
 383 451 384 447 384 443 c 0
 384 430 361 409 347 409 c 0
 338 409 329 413 326 419 c 0
 312 444 296 462 269 469 c 1
 235 136 l 1
 240 135 245 135 250 135 c 0
 292 135 340 140 365 178 c 0
 367 181 370 183 374 183 c 0
 381 183 387 177 387 171 c 0
 387 170 387 168 386 167 c 0
 349 105 300 78 228 76 c 1
 221 2 l 2
 220 -7 211 -13 202 -13 c 0
200 143 m 1
 235 474 l 1
 233 474 l 2
 153 474 102 387 102 312 c 0
 102 225 142 165 200 143 c 1
EndSplineSet
Validated: 1
EndChar
StartChar: sterling
Encoding: 163 163 99
Width: 536
Flags: MW
TopAccentHorizontal: 362
LayerCount: 2
Fore
SplineSet
471 167 m 0
 497 167 511 139 511 111 c 0
 511 40 441 -36 355 -36 c 0
 293 -36 255 -12 200 26 c 0
 178 42 146 55 136 55 c 0
 130 55 106 32 92 6 c 0
 81 -14 64 -25 49 -24 c 0
 36 -24 26 -14 26 6 c 0
 26 47 71 81 122 91 c 0
 128 92 130 97 133 103 c 0
 150 135 159 220 164 303 c 1
 81 297 l 2
 74 297 67 303 67 309 c 0
 67 318 78 330 91 331 c 2
 166 336 l 1
 166 341 l 1
 173 474 235 629 386 629 c 0
 454 629 486 586 486 549 c 0
 486 518 470 491 442 491 c 0
 432 491 430 496 430 505 c 0
 430 511 431 519 431 527 c 0
 430 565 405 600 368 600 c 0
 298 600 268 512 254 342 c 1
 387 351 l 2
 394 351 400 344 400 339 c 0
 400 332 384 318 369 317 c 2
 251 309 l 1
 240 218 197 124 171 102 c 0
 168 100 168 93 175 93 c 0
 229 93 269 76 307 60 c 0
 341 46 374 32 411 32 c 0
 449 32 470 53 470 77 c 0
 470 102 454 134 454 148 c 0
 454 157 461 167 471 167 c 0
EndSplineSet
Validated: 33
EndChar
StartChar: currency
Encoding: 164 164 100
Width: 506
Flags: MW
TopAccentHorizontal: 252
LayerCount: 2
Fore
SplineSet
70 57 m 0
 57 57 40 74 40 87 c 0
 40 90 41 93 43 95 c 2
 100 152 l 1
 75 185 61 226 61 270 c 0
 61 314 75 355 100 387 c 1
 43 444 l 2
 41 446 40 448 40 451 c 0
 40 464 58 482 71 482 c 0
 74 482 77 481 79 479 c 2
 134 424 l 1
 167 449 208 465 253 465 c 0
 298 465 339 450 371 424 c 1
 427 480 l 2
 429 482 432 483 435 483 c 0
 447 483 465 467 465 453 c 0
 465 449 464 446 461 443 c 2
 406 388 l 1
 431 355 445 314 445 270 c 0
 445 226 431 185 406 152 c 1
 463 95 l 2
 465 93 466 91 466 88 c 0
 466 75 448 57 435 57 c 0
 432 57 429 58 427 60 c 2
 371 116 l 1
 339 90 298 75 253 75 c 0
 208 75 167 90 135 116 c 1
 78 60 l 2
 76 58 73 57 70 57 c 0
253 125 m 0
 332 125 395 191 395 270 c 0
 395 349 332 415 253 415 c 0
 174 415 111 349 111 270 c 0
 111 191 174 125 253 125 c 0
EndSplineSet
Validated: 1
EndChar
StartChar: yen
Encoding: 165 165 316
Width: 570
Flags: W
HStem: -5 29<153.692 226.247 382.753 455.308> 197 35<126.286 265 345 481.881> 280 35<126.286 255 350 482.881> 620 33<1.64938 58.7163 198.279 253.781 385.06 437.621 547.286 611.313>
VStem: 0 194<584 646> 265 80<51.375 197 232 280>
LayerCount: 2
Fore
SplineSet
182 -5 m 0
 165 -5 153 -2 153 6 c 0
 153 15 163 20 186 24 c 0
 236 33 264 60 264 108 c 2
 265 197 l 1
 139 197 l 2
 132 197 125 203 125 209 c 0
 125 218 136 232 149 232 c 2
 265 232 l 1
 265 256 l 2
 265 265 264 273 263 280 c 1
 139 280 l 2
 132 280 125 286 125 292 c 0
 125 301 136 315 149 315 c 2
 255 315 l 1
 122 522 l 2
 102 552 64 611 33 620 c 0
 11 627 0 633 0 642 c 0
 0 650 12 653 29 653 c 0
 59 653 100 650 146 650 c 0
 177 650 205 652 226 652 c 0
 243 652 255 649 255 641 c 0
 255 632 244 628 222 621 c 0
 211 617 194 608 194 588 c 0
 194 580 196 571 203 560 c 2
 296 395 l 2
 311 369 319 356 326 356 c 0
 334 356 342 370 357 395 c 2
 357 395 413 477 440 534 c 0
 445 545 447 557 447 568 c 0
 447 593 436 615 417 620 c 0
 403 624 384 631 384 640 c 0
 384 648 396 651 413 651 c 0
 443 651 459 650 488 650 c 0
 525 650 561 653 584 653 c 0
 601 653 613 650 613 642 c 0
 613 633 603 627 580 622 c 0
 545 615 501 557 480 526 c 0
 426 444 368 346 368 346 c 2
 360 334 353 323 350 315 c 1
 472 315 l 2
 479 315 485 310 485 304 c 0
 485 294 469 280 454 280 c 2
 345 280 l 1
 345 232 l 1
 471 232 l 2
 478 232 484 229 484 221 c 0
 484 211 468 197 453 197 c 2
 345 197 l 1
 345 108 l 2
 345 63 373 33 423 24 c 0
 446 20 456 15 456 6 c 0
 456 -2 444 -5 427 -5 c 0
 373 -5 356 0 310 0 c 0
 260 0 236 -5 182 -5 c 0
EndSplineSet
EndChar
StartChar: brokenbar
Encoding: 166 166 75
Width: 260
GlyphClass: 2
Flags: W
TeX: 705 290
VStem: 100 60<-286.107 171.668 282.519 698.117>
LayerCount: 2
Fore
SplineSet
112 276 m 0
 106 276 100 289 100 299 c 2
 100 674 l 2
 100 696 140 705 146 705 c 0
 153 705 160 699 160 692 c 2
 160 297 l 2
 160 287 121 276 112 276 c 0
112 -290 m 0
 106 -290 100 -283 100 -276 c 2
 100 156 l 2
 100 166 140 179 146 179 c 0
 153 179 160 167 160 157 c 2
 160 -266 l 2
 160 -287 121 -290 112 -290 c 0
EndSplineSet
EndChar
StartChar: dieresis
Encoding: 168 168 397
Width: 300
Flags: MW
LayerCount: 2
Fore
SplineSet
62 508 m 0
 37 508 12 533 12 558 c 0
 12 583 37 608 62 608 c 0
 87 608 112 583 112 558 c 0
 112 533 87 508 62 508 c 0
239 508 m 0
 214 508 189 533 189 558 c 0
 189 583 214 608 239 608 c 0
 264 608 289 583 289 558 c 0
 289 533 264 508 239 508 c 0
EndSplineSet
Validated: 1
EndChar
StartChar: copyright
Encoding: 169 169 105
Width: 540
Flags: MW
ItalicCorrection: 124
TopAccentHorizontal: 346
LayerCount: 2
Fore
SplineSet
345 24 m 0
 178 24 43 160 43 327 c 0
 43 494 179 630 346 630 c 0
 513 630 649 494 649 327 c 0
 649 160 512 24 345 24 c 0
345 58 m 0
 492 58 609 180 609 327 c 0
 609 472 491 596 346 596 c 0
 201 596 83 472 83 327 c 0
 83 181 199 58 345 58 c 0
359 154 m 0
 264 154 188 239 188 328 c 0
 188 427 281 494 380 494 c 0
 404 494 437 488 460 481 c 0
 470 478 474 479 476 468 c 0
 480 452 479 422 478 409 c 0
 478 405 473 397 468 398 c 0
 462 398 459 405 456 413 c 0
 451 427 442 439 428 448 c 0
 413 458 394 464 371 464 c 0
 303 464 258 404 258 331 c 0
 258 258 298 184 376 184 c 0
 413 184 446 193 462 225 c 0
 467 235 475 240 479 240 c 0
 483 240 484 236 484 227 c 0
 484 217 476 196 469 184 c 0
 461 172 464 176 452 167 c 0
 430 157 394 154 359 154 c 0
EndSplineSet
Validated: 33
EndChar
StartChar: ordfeminine
Encoding: 170 170 3588
Width: 310
Flags: W
HStem: 161 35<36.2861 275.934> 268 40<99.7715 165.165 229.174 270.743> 491 33<110.987 171.265>
VStem: 46 51<310.316 371.53 441.23 477.67> 177 53<317.082 387.993 406.688 487.507>
LayerCount: 2
Fore
SplineSet
101 268 m 0
 74 268 46 304 46 327 c 0
 46 352 51 368 83 380 c 2
 159 408 l 2
 176 414 177 416 177 432 c 2
 177 455 l 2
 177 475 164 491 140 491 c 0
 124 491 101 487 97 478 c 0
 94 471 95 461 95 453 c 0
 95 445 65 438 50 434 c 0
 46 433 43 437 46 444 c 0
 52 459 55 469 71 482 c 0
 91 499 134 524 168 524 c 0
 199 524 231 499 230 471 c 2
 227 347 l 2
 227 330 229 308 248 308 c 0
 257 308 260 312 264 314 c 0
 267 316 269 318 272 318 c 0
 277 318 282 309 282 303 c 0
 282 301 278 295 272 289 c 0
 262 279 248 268 233 268 c 0
 199 268 187 293 184 299 c 1
 180 299 l 1
 165 287 142 268 101 268 c 0
129 308 m 0
 146 308 159 319 169 327 c 0
 174 331 175 335 176 350 c 2
 177 379 l 2
 177 391 173 393 162 390 c 0
 112 376 97 356 97 342 c 0
 97 319 116 308 129 308 c 0
265 196 m 2
 271 196 279 191 279 185 c 0
 279 184 278 183 278 182 c 0
 271 169 262 161 247 161 c 2
 49 161 l 2
 42 161 35 167 35 173 c 0
 35 182 46 196 59 196 c 2
 265 196 l 2
EndSplineSet
Validated: 33
EndChar
StartChar: guillemotleft
Encoding: 171 171 3969
Width: 595
Flags: W
LayerCount: 2
Fore
SplineSet
313 19 m 0
 300 19 288 32 283 37 c 0
 214 104 137 155 78 182 c 0
 68 187 60 202 60 211 c 0
 60 214 61 217 63 218 c 0
 165 279 220 316 289 382 c 0
 294 387 306 400 318 400 c 0
 322 400 324 396 324 391 c 0
 324 386 322 381 319 376 c 0
 263 291 211 251 167 217 c 0
 159 211 159 209 167 203 c 0
 211 169 263 125 319 40 c 0
 321 37 322 34 322 31 c 0
 322 25 318 19 313 19 c 0
524 19 m 0
 511 19 499 32 494 37 c 0
 425 104 348 155 289 182 c 0
 279 187 271 202 271 211 c 4
 271 214 272 217 274 218 c 0
 376 279 431 316 500 382 c 0
 505 387 517 400 529 400 c 0
 533 400 535 396 535 391 c 0
 535 386 533 381 530 376 c 0
 474 291 422 251 378 217 c 0
 370 211 370 209 378 203 c 0
 422 169 474 125 530 40 c 0
 532 37 533 34 533 31 c 0
 533 25 529 19 524 19 c 0
EndSplineSet
EndChar
StartChar: registered
Encoding: 174 174 2609
Width: 665
GlyphClass: 2
Flags: W
TeX: 630 -24
HStem: 24 34<254.755 435.66> 172 27<200.344 239.999 312.048 357.656 489.398 520.02> 320 27<304.738 355.818> 467 29<202.25 242.694 307.079 385.398> 590 40<249.31 442.69>
VStem: 43 40<229.687 423.69> 244 60<203.597 319.997 347.08 465.34> 406 64<366.753 453.791> 609 40<229.48 423.69>
LayerCount: 2
Fore
SplineSet
345 24 m 0
 178 24 43 160 43 327 c 0
 43 494 179 630 346 630 c 0
 513 630 649 494 649 327 c 0
 649 160 512 24 345 24 c 0
345 58 m 0
 492 58 609 180 609 327 c 0
 609 472 491 590 346 590 c 0
 201 590 83 472 83 327 c 0
 83 181 199 58 345 58 c 0
483 173 m 0
 431 173 375 260 358 304 c 0
 355 312 345 320 320 320 c 0
 312 320 304 316 304 309 c 2
 305 231 l 2
 305 209 323 204 339 199 c 0
 348 196 358 191 358 183 c 0
 358 177 348 172 342 172 c 0
 310 172 305 176 277 176 c 0
 249 176 248 172 216 172 c 0
 210 172 200 177 200 183 c 0
 200 191 210 196 219 199 c 0
 235 204 244 209 244 231 c 2
 244 426 l 2
 244 467 241 462 221 468 c 0
 207 472 202 476 202 484 c 0
 202 492 209 497 222 496 c 0
 239 495 257 491 274 491 c 0
 305 491 335 495 366 496 c 0
 418 498 470 470 470 417 c 0
 470 376 438 348 408 337 c 0
 399 334 405 327 408 320 c 0
 428 268 483 204 511 204 c 0
 515 204 527 208 527 200 c 0
 527 182 502 173 483 173 c 0
331 347 m 0
 370 347 406 374 406 413 c 0
 406 445 377 467 342 467 c 0
 312 467 304 455 304 437 c 2
 304 367 l 2
 304 348 317 347 331 347 c 0
EndSplineSet
EndChar
StartChar: macron
Encoding: 109 175 2588
Width: 300
GlyphClass: 2
Flags: W
TeX: 555 -500
ItalicCorrection: 17
TopAccentHorizontal: 167
HStem: 500 55<33.6605 266.414>
VStem: 30 240<501.575 554.782>
LayerCount: 2
Fore
SplineSet
44 500 m 2
 37 500 30 506 30 512 c 0
 30 521 35 555 54 555 c 2
 257 555 l 2
 263 555 270 549 270 543 c 0
 270 521 260 500 239 500 c 2
 44 500 l 2
EndSplineSet
EndChar
StartChar: degree
Encoding: 176 176 351
Width: 290
Flags: W
HStem: 402 42<94.6126 195.387> 602 43<93.9189 196.081>
VStem: 25 43<470.324 577.244> 222 43<469.771 576.766>
LayerCount: 2
Fore
SplineSet
145 402 m 0
 82 402 25 462 25 526 c 0
 25 590 82 645 145 645 c 0
 208 645 265 592 265 528 c 0
 265 464 208 402 145 402 c 0
145 444 m 0
 187 444 222 481 222 523 c 0
 222 567 187 602 145 602 c 0
 103 602 68 567 68 523 c 0
 68 481 103 444 145 444 c 0
EndSplineSet
Validated: 1
EndChar
StartChar: plusminus
Encoding: 177 177 3667
Width: 600
Flags: W
HStem: -8 50<52.2674 270 330 547.272> 232 50<53.1042 270 330 545.949>
VStem: 270 60<42 232 282 475.117>
LayerCount: 2
Fore
SplineSet
64 -8 m 2
 57 -8 50 -2 50 4 c 0
 50 13 53 42 74 42 c 2
 270 42 l 1
 270 227 l 2
 270 230 269 232 266 232 c 2
 64 232 l 2
 57 232 50 238 50 244 c 0
 50 253 56 282 74 282 c 2
 263 282 l 2
 269 282 270 284 270 290 c 2
 270 451 l 2
 270 473 310 482 316 482 c 0
 323 482 330 476 330 469 c 2
 330 288 l 2
 330 283 330 282 332 282 c 2
 537 282 l 2
 544 282 550 278 550 272 c 0
 550 255 538 232 519 232 c 2
 334 232 l 2
 331 232 330 231 330 228 c 2
 330 42 l 1
 537 42 l 2
 543 42 550 36 550 30 c 0
 550 8 537 -8 519 -8 c 2
 64 -8 l 2
EndSplineSet
Validated: 1
EndChar
StartChar: uni00B2
Encoding: 178 178 236
Width: 300
Flags: MW
LayerCount: 2
Fore
SplineSet
238 437 m 0
 195 437 162 441 129 441 c 0
 98 441 52 439 32 439 c 0
 26 439 20 445 20 449 c 0
 20 452 21 453 28 459 c 2
 67 494 l 2
 108 531 178 605 178 660 c 0
 178 703 155 726 122 726 c 0
 87 726 70 715 42 685 c 0
 39 681 36 679 33 679 c 0
 29 679 26 686 26 693 c 0
 26 710 68 777 143 777 c 0
 204 777 234 735 234 684 c 0
 234 657 218 623 194 594 c 0
 160 552 121 511 103 497 c 0
 99 493 109 492 113 492 c 2
 186 492 l 2
 216 492 235 513 256 542 c 0
 261 549 263 553 271 553 c 0
 276 553 275 548 275 545 c 0
 275 542 256 496 247 450 c 0
 245 439 241 437 238 437 c 0
EndSplineSet
Validated: 1
EndChar
StartChar: uni00B3
Encoding: 179 179 4163
Width: 284
Flags: W
HStem: 434 31<82.01 161.704> 737 40<76.1261 163.306>
VStem: 172 51<658.231 728.799> 181 57<492.937 581.187>
LayerCount: 2
Fore
SplineSet
96 434 m 0xd0
 67 434 30 447 30 475 c 0
 30 490 39 501 48 501 c 0
 54 501 62 496 64 494 c 0
 86 477 100 465 127 465 c 0
 160 465 181 495 181 538 c 0xd0
 181 564 154 599 118 599 c 0
 107 599 91 592 79 592 c 0
 74 592 66 597 66 601 c 0
 66 616 118 631 129 636 c 0
 155 648 172 664 172 693 c 0
 172 718 148 737 123 737 c 0
 93 737 70 724 52 698 c 0
 50 695 47 691 42 691 c 0
 38 691 32 702 32 706 c 0
 32 729 85 777 137 777 c 0
 180 777 223 749 223 706 c 0xe0
 223 669 200 654 167 637 c 0
 163 635 163 633 167 632 c 0
 203 620 238 597 238 560 c 0
 238 486 170 434 96 434 c 0xd0
EndSplineSet
EndChar
StartChar: acute
Encoding: 180 180 116
Width: 200
Flags: MW
LayerCount: 2
Fore
SplineSet
30 457 m 0
 25 457 22 459 22 466 c 0
 22 470 23 476 26 484 c 0
 40 521 87 604 103 631 c 0
 109 641 120 649 130 649 c 0
 155 649 179 642 179 628 c 0
 179 620 175 616 169 607 c 0
 145 572 87 504 61 478 c 0
 47 464 37 457 30 457 c 0
EndSplineSet
Validated: 1
EndChar
StartChar: uni00B5
Encoding: 181 181 117
Width: 553
Flags: MW
TopAccentHorizontal: 254
LayerCount: 2
Fore
SplineSet
150 -285 m 0
 118 -285 109 -265 97 -234 c 0
 88 -210 83 -75 83 0 c 2
 82 396 l 2
 82 410 88 414 109 414 c 0
 138 414 173 395 173 386 c 0
 173 344 142 172 142 132 c 0
 142 106 158 53 202 53 c 0
 254 53 280 77 320 152 c 1
 335 204 342 320 342 400 c 0
 342 410 346 415 363 415 c 0
 394 415 430 389 430 377 c 0
 430 336 409 254 382 162 c 1
 382 125 400 75 445 75 c 0
 482 75 510 109 518 109 c 0
 523 109 529 105 529 100 c 0
 529 25 481 -15 438 -15 c 0
 407 -15 379 20 368 79 c 0
 366 91 365 104 364 118 c 1
 362 118 l 1
 355 102 284 -15 234 -15 c 0
 196 -15 169 6 151 26 c 0
 134 44 124 62 121 62 c 0
 117 62 114 49 114 28 c 0
 114 -1 117 -94 118 -131 c 0
 120 -217 199 -236 199 -254 c 0
 199 -274 169 -285 150 -285 c 0
EndSplineSet
Validated: 1
EndChar
StartChar: paragraph
Encoding: 182 182 118
Width: 595
Flags: MW
LayerCount: 2
Fore
SplineSet
282 -289 m 0
 218 -289 158 -247 158 -179 c 0
 158 -112 213 -61 268 -61 c 0
 313 -61 334 -84 334 -114 c 0
 334 -143 314 -163 291 -163 c 0
 278 -163 269 -157 262 -150 c 0
 254 -143 247 -135 236 -135 c 0
 220 -135 200 -152 200 -186 c 0
 200 -225 242 -254 286 -254 c 0
 335 -254 386 -219 386 -112 c 2
 386 94 l 2
 386 104 384 119 373 119 c 0
 194 119 45 202 45 383 c 0
 45 571 183 648 407 648 c 0
 462 648 532 644 547 642 c 0
 557 640 562 631 562 622 c 0
 562 613 556 592 548 592 c 0
 542 592 494 608 443 608 c 0
 433 608 425 599 425 590 c 2
 425 -112 l 2
 425 -239 351 -289 282 -289 c 0
EndSplineSet
EndChar
StartChar: periodcentered
Encoding: 183 183 2603
Width: 200
GlyphClass: 2
Flags: W
TeX: 260 -150
HStem: 150 110<56.8467 143.153>
VStem: 45 110<161.847 248.153>
LayerCount: 2
Fore
SplineSet
100 150 m 0
 70 150 45 175 45 205 c 0
 45 235 70 260 100 260 c 0
 130 260 155 235 155 205 c 0
 155 175 130 150 100 150 c 0
EndSplineSet
EndChar
StartChar: cedilla
Encoding: 116 184 78
Width: 200
GlyphClass: 2
Flags: W
TeX: 8 274
HStem: -274 49<30.6023 108.545>
VStem: 128 50<-205.712 -133.987>
LayerCount: 2
Fore
SplineSet
53 -274 m 0
 32 -274 23 -264 23 -233 c 0
 23 -221 28 -214 36 -214 c 0
 46 -214 58 -225 89 -225 c 0
 115 -225 128 -206 128 -180 c 0
 128 -141 101 -123 69 -123 c 0
 56 -123 50 -129 43 -129 c 0
 36 -129 25 -123 25 -114 c 0
 25 -111 27 -107 30 -103 c 2
 118 8 l 1
 149 8 l 1
 111 -42 l 2
 108 -46 106 -49 106 -52 c 0
 106 -56 110 -60 117 -63 c 0
 149 -77 178 -106 178 -139 c 0
 178 -219 89 -274 53 -274 c 0
EndSplineSet
EndChar
StartChar: uni00B9
Encoding: 185 185 121
Width: 259
Flags: MW
LayerCount: 2
Fore
SplineSet
48 440 m 0
 41 440 35 447 35 455 c 0
 35 461 40 471 48 471 c 0
 75 473 106 473 106 514 c 2
 106 664 l 2
 106 691 79 706 53 710 c 0
 45 711 39 718 39 723 c 0
 39 730 44 736 49 737 c 0
 100 742 135 768 146 780 c 0
 148 782 153 784 155 784 c 0
 161 784 165 778 164 770 c 0
 162 756 158 732 158 700 c 2
 158 514 l 2
 158 479 168 477 212 471 c 0
 220 470 224 462 224 455 c 0
 224 448 220 440 212 440 c 0
 155 440 162 443 130 443 c 0
 98 443 102 440 48 440 c 0
EndSplineSet
EndChar
StartChar: ordmasculine
Encoding: 186 186 3890
Width: 309
Flags: W
HStem: 161 35<26.2861 281.934> 268 29<123.641 195.091> 493 31<112.462 187.042>
VStem: 25 63<325.524 461.154> 221 63<327.053 463.622>
LayerCount: 2
Fore
SplineSet
148 268 m 0
 81 268 25 316 25 388 c 0
 25 462 86 524 160 524 c 0
 225 524 284 469 284 404 c 0
 284 334 238 268 148 268 c 0
160 297 m 0
 204 297 221 341 221 389 c 0
 221 441 194 493 149 493 c 0
 104 493 88 448 88 402 c 0
 88 347 116 297 160 297 c 0
271 196 m 2
 277 196 285 191 285 185 c 0
 285 184 284 183 284 182 c 0
 277 169 268 161 253 161 c 2
 39 161 l 2
 32 161 25 167 25 173 c 0
 25 182 36 196 49 196 c 2
 271 196 l 2
EndSplineSet
Validated: 1
EndChar
StartChar: guillemotright
Encoding: 187 187 3708
Width: 595
Flags: W
LayerCount: 2
Fore
SplineSet
71 19 m 0
 66 19 62 25 62 31 c 0
 62 34 63 37 65 40 c 0
 121 125 173 169 217 203 c 0
 225 209 225 211 217 217 c 0
 173 251 121 291 65 376 c 0
 62 381 60 386 60 391 c 0
 60 396 62 400 66 400 c 0
 78 400 90 387 95 382 c 0
 164 316 219 279 321 218 c 0
 323 217 324 214 324 211 c 0
 324 202 316 187 306 182 c 0
 247 155 170 104 101 37 c 0
 96 32 84 19 71 19 c 0
282 19 m 0
 277 19 273 25 273 31 c 0
 273 34 274 37 276 40 c 0
 332 125 384 169 428 203 c 0
 436 209 436 211 428 217 c 0
 384 251 332 291 276 376 c 0
 273 381 271 386 271 391 c 0
 271 396 273 400 277 400 c 0
 289 400 301 387 306 382 c 0
 375 316 430 279 532 218 c 0
 534 217 535 214 535 211 c 0
 535 202 527 187 517 182 c 0
 458 155 381 104 312 37 c 0
 307 32 295 19 282 19 c 0
EndSplineSet
Validated: 1
EndChar
StartChar: onequarter
Encoding: 188 188 241
Width: 657
Flags: W
HStem: -8 21G<533.5 538> 99 34<422.953 527 579 645.096> 278 31<35.0174 97.9861 164.008 223.988> 548 27<39.0175 87.3378> 645 20G<586.5 598.5>
VStem: 106 52<314.923 536.989> 527 52<-0.817589 96.9946 133.023 257.092>
LayerCount: 2
Fore
SplineSet
556 648 m 2
 565 662 578 665 595 665 c 0
 602 665 609 658 609 652 c 0
 609 651 609 649 608 648 c 2
 170 -47 l 2
 162 -60 149 -62 134 -62 c 0
 126 -62 117 -56 117 -50 c 0
 117 -49 117 -48 118 -47 c 2
 556 648 l 2
48 278 m 0
 41 278 35 285 35 293 c 0
 35 299 40 309 48 309 c 0
 75 311 106 311 106 352 c 2
 106 502 l 2
 106 529 79 544 53 548 c 0
 45 549 39 556 39 561 c 0
 39 568 44 574 49 575 c 0
 100 580 135 606 146 618 c 0
 148 620 153 622 155 622 c 0
 161 622 165 616 164 608 c 0
 162 594 158 570 158 538 c 2
 158 352 l 2
 158 317 168 315 212 309 c 0
 220 308 224 300 224 293 c 0
 224 286 220 278 212 278 c 0
 155 278 162 281 130 281 c 0
 98 281 102 278 48 278 c 0
536 -8 m 0
 531 -8 527 -6 527 0 c 2
 527 92 l 2
 527 96 519 97 518 97 c 0
 469 97 435 94 372 93 c 0
 369 93 365 97 365 100 c 0
 365 101 366 101 366 101 c 1
 408 157 453 211 497 265 c 0
 509 280 531 306 555 330 c 0
 562 337 570 343 575 343 c 0
 578 343 579 337 579 334 c 2
 579 140 l 2
 579 135 580 132 586 132 c 2
 607 132 l 2
 621 132 626 132 641 133 c 0
 646 133 647 130 647 126 c 0
 647 116 639 99 633 99 c 2
 593 99 l 2
 581 99 579 97 579 93 c 2
 579 19 l 2
 579 4 540 -8 536 -8 c 0
423 133 m 2
 519 133 l 2
 522 133 527 135 527 138 c 2
 527 256 l 2
 527 258 523 259 521 257 c 0
 481 212 452 175 423 138 c 0
 422 136 421 133 423 133 c 2
EndSplineSet
EndChar
StartChar: onehalf
Encoding: 189 189 125
Width: 717
Flags: MW
HStem: -15 53 -13 51<530.5 562.5> 272 51<522.5 555.5> 278 31<44.5 48 44 75> 645 20G<586.5 598.5>
VStem: 106 52<352 502 502 515.5> 595 56<216.5 227.5>
LayerCount: 2
Fore
SplineSet
556 648 m 2x5c
 565 662 578 665 595 665 c 0
 602 665 609 658 609 652 c 0
 609 651 609 649 608 648 c 2
 170 -47 l 2
 162 -60 149 -62 134 -62 c 0
 126 -62 117 -56 117 -50 c 0
 117 -49 117 -48 118 -47 c 2
 556 648 l 2x5c
48 278 m 0
 41 278 35 285 35 293 c 0
 35 299 40 309 48 309 c 0
 75 311 106 311 106 352 c 2
 106 502 l 2
 106 529 79 544 53 548 c 0
 45 549 39 556 39 561 c 0
 39 568 44 574 49 575 c 0
 100 580 135 606 146 618 c 0
 148 620 153 622 155 622 c 0
 161 622 165 616 164 608 c 0
 162 594 158 570 158 538 c 2
 158 352 l 2
 158 317 168 315 212 309 c 0
 220 308 224 300 224 293 c 0
 224 286 220 278 212 278 c 0
 155 278 162 281 130 281 c 0
 98 281 102 278 48 278 c 0
655 -17 m 0
 612 -17 579 -13 546 -13 c 0
 515 -13 469 -15 449 -15 c 0
 443 -15 437 -9 437 -5 c 0
 437 -2 438 -1 445 5 c 2
 484 40 l 2
 525 77 595 151 595 206 c 0
 595 249 572 272 539 272 c 0
 504 272 487 261 459 231 c 0
 456 227 453 225 450 225 c 0
 446 225 443 232 443 239 c 0
 443 256 485 323 560 323 c 0
 621 323 651 281 651 230 c 0
 651 203 635 169 611 140 c 0
 577 98 538 57 520 43 c 0
 516 39 526 38 530 38 c 2
 603 38 l 2
 633 38 652 59 673 88 c 0
 678 95 680 99 688 99 c 0
 693 99 692 94 692 91 c 0x6e
 692 88 673 42 664 -4 c 0x9c
 662 -15 658 -17 655 -17 c 0
EndSplineSet
EndChar
StartChar: threequarters
Encoding: 190 190 126
Width: 634
Flags: MW
LayerCount: 2
Fore
SplineSet
533 648 m 2
 542 662 555 665 572 665 c 0
 579 665 586 658 586 652 c 0
 586 651 586 649 585 648 c 2
 147 -47 l 2
 139 -60 126 -62 111 -62 c 0
 103 -62 94 -56 94 -50 c 0
 94 -49 94 -48 95 -47 c 2
 533 648 l 2
96 274 m 0
 67 274 30 287 30 315 c 0
 30 330 39 341 48 341 c 0
 54 341 62 336 64 334 c 0
 86 317 100 305 127 305 c 0
 160 305 181 335 181 378 c 0
 181 404 154 439 118 439 c 0
 107 439 91 432 79 432 c 0
 74 432 66 437 66 441 c 0
 66 456 118 471 129 476 c 0
 155 488 172 504 172 533 c 0
 172 558 148 577 123 577 c 0
 93 577 70 564 52 538 c 0
 50 535 47 531 42 531 c 0
 38 531 32 542 32 546 c 0
 32 569 85 617 137 617 c 0
 180 617 223 589 223 546 c 0
 223 509 200 494 167 477 c 0
 163 475 163 473 167 472 c 0
 203 460 238 437 238 400 c 0
 238 326 170 274 96 274 c 0
513 -8 m 0
 508 -8 504 -6 504 0 c 2
 504 92 l 2
 504 96 496 97 495 97 c 0
 446 97 412 94 349 93 c 0
 346 93 342 97 342 100 c 0
 342 101 343 101 343 101 c 1
 385 157 430 211 474 265 c 0
 486 280 508 306 532 330 c 0
 539 337 547 343 552 343 c 0
 555 343 556 337 556 334 c 2
 556 140 l 2
 556 135 557 132 563 132 c 2
 584 132 l 2
 598 132 603 132 618 133 c 0
 623 133 624 130 624 126 c 0
 624 116 616 99 610 99 c 2
 570 99 l 2
 558 99 556 97 556 93 c 2
 556 19 l 2
 556 4 517 -8 513 -8 c 0
400 133 m 2
 496 133 l 2
 499 133 504 135 504 138 c 2
 504 256 l 2
 504 258 500 259 498 257 c 0
 458 212 429 175 400 138 c 0
 399 136 398 133 400 133 c 2
EndSplineSet
EndChar
StartChar: questiondown
Encoding: 191 191 3994
Width: 376
Flags: W
HStem: -181 88<195.216 297.639> 374 120<179.745 272.255>
VStem: 65 51<-23.2557 64.2791> 166 120<387.745 480.255> 225 53<205.224 284.304>
LayerCount: 2
Fore
SplineSet
226 494 m 0xf0
 259 494 286 467 286 434 c 0
 286 401 259 374 226 374 c 0
 193 374 166 401 166 434 c 0
 166 467 193 494 226 494 c 0xf0
240 299 m 0
 247 299 258 286 262 270 c 0
 268 249 278 228 278 183 c 0
 278 149 240 125 177 93 c 0
 149 79 116 51 116 22 c 0
 116 -44 149 -92 217 -93 c 0
 226 -93 233 -92 240 -91 c 0
 247 -90 254 -89 264 -89 c 0
 285 -89 306 -118 306 -145 c 0
 306 -164 283 -181 266 -181 c 0
 233 -181 191 -164 158 -131 c 0
 102 -75 65 11 65 62 c 0
 65 111 87 135 107 146 c 0
 151 170 161 176 193 197 c 0
 221 215 224 244 225 276 c 0xe8
 225 286 230 299 240 299 c 0
EndSplineSet
Validated: 1
EndChar
StartChar: Agrave
Encoding: 192 192 128
Width: 829
GlyphClass: 2
Flags: MW
TeX: 838 5
TopAccentHorizontal: 390
LayerCount: 2
Fore
SplineSet
461 685 m 0
 458 685 452 687 443 694 c 0
 404 725 352 761 313 796 c 0
 304 804 300 808 300 815 c 0
 300 829 344 838 358 838 c 0
 369 838 378 835 385 825 c 0
 412 786 438 746 462 706 c 0
 465 701 467 695 467 691 c 0
 467 688 465 685 461 685 c 0
93 -5 m 0
 76 -5 64 0 64 8 c 0
 64 17 75 24 97 31 c 0
 131 41 161 58 183 108 c 0
 258 279 302 393 370 578 c 0
 377 597 382 615 384 636 c 1
 396 640 408 643 420 651 c 0
 432 659 435 679 439 685 c 0
 440 686 443 686 444 684 c 0
 447 678 448 670 451 662 c 0
 515 459 596 223 629 128 c 0
 657 48 690 35 730 28 c 0
 753 24 763 14 763 5 c 0
 763 -3 751 -5 734 -5 c 0
 706 -5 640 1 595 1 c 0
 556 1 514 0 490 0 c 0
 473 0 461 4 461 12 c 0
 461 21 476 28 494 31 c 0
 538 38 555 54 555 76 c 0
 555 105 531 188 516 238 c 0
 513 248 507 249 489 249 c 2
 300 249 l 2
 294 249 288 245 283 231 c 0
 274 205 242 100 242 87 c 0
 242 58 268 38 300 30 c 0
 323 24 333 19 333 10 c 0
 333 2 321 -1 304 -1 c 0
 286 -1 250 1 213 1 c 0
 169 1 126 -5 93 -5 c 0
327 282 m 2
 482 282 l 2
 492 282 496 282 496 287 c 0
 496 289 495 293 494 297 c 2
 416 541 l 2
 412 553 410 559 407 559 c 0
 405 559 403 553 399 542 c 2
 308 297 l 2
 307 294 306 291 306 289 c 0
 306 282 314 282 327 282 c 2
EndSplineSet
Validated: 1
EndChar
StartChar: Aacute
Encoding: 193 193 2261
Width: 829
TopAccentHorizontal: 465
GlyphClass: 2
Flags: MW
TeX: 838 5
LayerCount: 2
Fore
SplineSet
393 685 m 0
 389 685 387 688 387 691 c 0
 387 695 389 701 392 706 c 0
 416 746 442 786 469 825 c 0
 476 835 485 838 496 838 c 0
 510 838 554 829 554 815 c 0
 554 808 550 804 541 796 c 0
 502 761 450 725 411 694 c 0
 402 687 396 685 393 685 c 0
90 -5 m 0
 73 -5 61 0 61 8 c 0
 61 17 72 24 94 31 c 0
 128 41 158 58 180 108 c 0
 255 279 299 393 367 578 c 0
 374 597 379 615 381 636 c 1
 393 640 405 643 417 651 c 0
 429 659 432 679 436 685 c 0
 437 686 440 686 441 684 c 0
 444 678 445 670 448 662 c 0
 512 459 593 223 626 128 c 0
 654 48 687 35 727 28 c 0
 750 24 760 14 760 5 c 0
 760 -3 748 -5 731 -5 c 0
 703 -5 637 1 592 1 c 0
 553 1 511 0 487 0 c 0
 470 0 458 4 458 12 c 0
 458 21 473 28 491 31 c 0
 535 38 552 54 552 76 c 0
 552 105 528 188 513 238 c 0
 510 248 504 249 486 249 c 2
 297 249 l 2
 291 249 285 245 280 231 c 0
 271 205 239 100 239 87 c 0
 239 58 265 38 297 30 c 0
 320 24 330 19 330 10 c 0
 330 2 318 -1 301 -1 c 0
 283 -1 247 1 210 1 c 0
 166 1 123 -5 90 -5 c 0
324 282 m 2
 479 282 l 2
 489 282 493 282 493 287 c 0
 493 289 492 293 491 297 c 2
 413 541 l 2
 409 553 407 559 404 559 c 0
 402 559 400 553 396 542 c 2
 305 297 l 2
 304 294 303 291 303 289 c 0
 303 282 311 282 324 282 c 2
EndSplineSet
Validated: 1
EndChar
StartChar: Acircumflex
Encoding: 194 194 2267
Width: 774
GlyphClass: 2
Flags: MW
TeX: 823 5
TopAccentHorizontal: 398
LayerCount: 2
Fore
SplineSet
267 696 m 0
 258 696 252 700 252 706 c 0
 252 710 254 714 259 718 c 2
 357 801 l 2
 376 817 383 823 398 823 c 0
 413 823 420 817 439 801 c 2
 537 718 l 2
 542 714 543 710 543 706 c 0
 543 700 538 695 529 695 c 0
 516 695 434 736 408 751 c 0
 399 756 397 756 388 751 c 0
 362 736 280 696 267 696 c 0
62 -5 m 0
 45 -5 33 0 33 8 c 0
 33 17 44 24 66 31 c 0
 100 41 130 58 152 108 c 0
 227 279 271 393 339 578 c 0
 346 597 351 615 353 636 c 1
 365 640 377 643 389 651 c 0
 401 659 404 679 408 685 c 0
 409 686 412 686 413 684 c 0
 416 678 417 670 420 662 c 0
 484 459 565 223 598 128 c 0
 626 48 659 35 699 28 c 0
 722 24 732 14 732 5 c 0
 732 -3 720 -5 703 -5 c 0
 675 -5 609 1 564 1 c 0
 525 1 483 0 459 0 c 0
 442 0 430 4 430 12 c 0
 430 21 445 28 463 31 c 0
 507 38 524 54 524 76 c 0
 524 105 500 188 485 238 c 0
 482 248 476 249 458 249 c 2
 269 249 l 2
 263 249 257 245 252 231 c 0
 243 205 211 100 211 87 c 0
 211 58 237 38 269 30 c 0
 292 24 302 19 302 10 c 0
 302 2 290 -1 273 -1 c 0
 255 -1 219 1 182 1 c 0
 138 1 95 -5 62 -5 c 0
296 282 m 2
 451 282 l 2
 461 282 465 282 465 287 c 0
 465 289 464 293 463 297 c 2
 385 541 l 2
 381 553 379 559 376 559 c 0
 374 559 372 553 368 542 c 2
 277 297 l 2
 276 294 275 291 275 289 c 0
 275 282 283 282 296 282 c 2
EndSplineSet
Validated: 1
EndChar
StartChar: Atilde
Encoding: 195 195 2278
Width: 769
TopAccentHorizontal: 393
GlyphClass: 2
Flags: MW
TeX: 824 5
LayerCount: 2
Fore
SplineSet
283 692 m 0
 276 692 267 701 267 708 c 0
 267 718 324 792 349 792 c 0
 371 792 398 791 417 789 c 0
 439 787 463 785 481 785 c 0
 496 785 510 794 520 804 c 0
 529 813 536 824 540 824 c 0
 550 824 559 817 559 807 c 0
 559 803 552 796 545 789 c 0
 529 773 511 749 498 733 c 0
 490 723 473 719 469 719 c 0
 453 719 369 727 338 727 c 0
 328 727 313 722 305 715 c 0
 293 705 286 692 283 692 c 0
59 -5 m 0
 42 -5 30 0 30 8 c 0
 30 17 41 24 63 31 c 0
 97 41 127 58 149 108 c 0
 224 279 268 393 336 578 c 0
 343 597 348 615 350 636 c 1
 362 640 374 643 386 651 c 0
 398 659 401 679 405 685 c 0
 406 686 409 686 410 684 c 0
 413 678 414 670 417 662 c 0
 481 459 562 223 595 128 c 0
 623 48 656 35 696 28 c 0
 719 24 729 14 729 5 c 0
 729 -3 717 -5 700 -5 c 0
 672 -5 606 1 561 1 c 0
 522 1 480 0 456 0 c 0
 439 0 427 4 427 12 c 0
 427 21 442 28 460 31 c 0
 504 38 521 54 521 76 c 0
 521 105 497 188 482 238 c 0
 479 248 473 249 455 249 c 2
 266 249 l 2
 260 249 254 245 249 231 c 0
 240 205 208 100 208 87 c 0
 208 58 234 38 266 30 c 0
 289 24 299 19 299 10 c 0
 299 2 287 -1 270 -1 c 0
 252 -1 216 1 179 1 c 0
 135 1 92 -5 59 -5 c 0
293 282 m 2
 448 282 l 2
 458 282 462 282 462 287 c 0
 462 289 461 293 460 297 c 2
 382 541 l 2
 378 553 376 559 373 559 c 0
 371 559 369 553 365 542 c 2
 274 297 l 2
 273 294 272 291 272 289 c 0
 272 282 280 282 293 282 c 2
EndSplineSet
Validated: 1
EndChar
StartChar: Adieresis
Encoding: 196 196 2274
Width: 762
GlyphClass: 2
Flags: W
TeX: 795 5
TopAccentHorizontal: 390
HStem: -5 36<26.4267 97.1888 222.015 293.525 422.098 502.898 639.158 721.277> 249 33<267.006 456.907> 695 100<251.438 334.562 446.438 529.562>
VStem: 25 178<4 93.5> 243 100<703.438 786.562> 438 100<703.438 786.562> 516 208<1 90.5>
LayerCount: 2
Fore
SplineSet
293 695 m 0xf8
 265 695 243 717 243 745 c 0
 243 773 265 795 293 795 c 0
 321 795 343 773 343 745 c 0
 343 717 321 695 293 695 c 0xf8
488 695 m 0
 460 695 438 717 438 745 c 0
 438 773 460 795 488 795 c 0
 516 795 538 773 538 745 c 0xfc
 538 717 516 695 488 695 c 0
54 -5 m 0
 37 -5 25 0 25 8 c 0
 25 17 36 24 58 31 c 0
 92 41 122 58 144 108 c 0
 219 279 263 393 331 578 c 0
 338 597 343 615 345 636 c 1
 357 640 369 643 381 651 c 0
 393 659 396 679 400 685 c 0
 401 686 404 686 405 684 c 0
 408 678 409 670 412 662 c 0
 476 459 557 223 590 128 c 0
 618 48 651 35 691 28 c 0
 714 24 724 14 724 5 c 0
 724 -3 712 -5 695 -5 c 0
 667 -5 601 1 556 1 c 0
 517 1 475 0 451 0 c 0
 434 0 422 4 422 12 c 0
 422 21 437 28 455 31 c 0
 499 38 516 54 516 76 c 0xfa
 516 105 492 188 477 238 c 0
 474 248 468 249 450 249 c 2
 261 249 l 2
 255 249 249 245 244 231 c 0
 235 205 203 100 203 87 c 0
 203 58 229 38 261 30 c 0
 284 24 294 19 294 10 c 0
 294 2 282 -1 265 -1 c 0
 247 -1 211 1 174 1 c 0
 130 1 87 -5 54 -5 c 0
288 282 m 2
 443 282 l 2
 453 282 457 282 457 287 c 0
 457 289 456 293 455 297 c 2
 377 541 l 2
 373 553 371 559 368 559 c 0
 366 559 364 553 360 542 c 2
 269 297 l 2
 268 294 267 291 267 289 c 0
 267 282 275 282 288 282 c 2
EndSplineSet
Validated: 1
EndChar
StartChar: Aring
Encoding: 197 197 2277
Width: 773
TopAccentHorizontal: 392
GlyphClass: 2
Flags: MW
TeX: 844 5
LayerCount: 2
Fore
SplineSet
396 844 m 0
 438 844 479 819 479 777 c 0
 479 730 435 700 388 700 c 0
 345 700 305 726 305 769 c 0
 305 815 350 844 396 844 c 0
347 772 m 0
 347 744 369 722 397 722 c 0
 422 722 437 747 437 772 c 0
 437 799 416 821 389 821 c 0
 363 821 347 798 347 772 c 0
62 -5 m 0
 45 -5 33 0 33 8 c 0
 33 17 44 24 66 31 c 0
 100 41 130 58 152 108 c 0
 227 279 271 393 339 578 c 0
 346 597 351 615 353 636 c 1
 365 640 377 643 389 651 c 0
 401 659 404 679 408 685 c 0
 409 686 412 686 413 684 c 0
 416 678 417 670 420 662 c 0
 484 459 565 223 598 128 c 0
 626 48 659 35 699 28 c 0
 722 24 732 14 732 5 c 0
 732 -3 720 -5 703 -5 c 0
 675 -5 609 1 564 1 c 0
 525 1 483 0 459 0 c 0
 442 0 430 4 430 12 c 0
 430 21 445 28 463 31 c 0
 507 38 524 54 524 76 c 0
 524 105 500 188 485 238 c 0
 482 248 476 249 458 249 c 2
 269 249 l 2
 263 249 257 245 252 231 c 0
 243 205 211 100 211 87 c 0
 211 58 237 38 269 30 c 0
 292 24 302 19 302 10 c 0
 302 2 290 -1 273 -1 c 0
 255 -1 219 1 182 1 c 0
 138 1 95 -5 62 -5 c 0
296 282 m 2
 451 282 l 2
 461 282 465 282 465 287 c 0
 465 289 464 293 463 297 c 2
 385 541 l 2
 381 553 379 559 376 559 c 0
 374 559 372 553 368 542 c 2
 277 297 l 2
 276 294 275 291 275 289 c 0
 275 282 283 282 296 282 c 2
EndSplineSet
Validated: 1
EndChar
StartChar: AE
Encoding: 198 198 2280
Width: 947
GlyphClass: 2
Flags: W
TeX: 653 5
TopAccentHorizontal: 599
HStem: -5 40<581.762 807.358> -5 33<26.6494 89.8209 225.267 297.861 379.687 463.53> 285 43<328.004 484> 292 35<563.497 716.595> 618 30<566.479 782.007> 626 25<320.02 371.067>
VStem: 25 175<2 86.5> 484 79<52.4363 285 328.088 580> 736 32<224.771 274.107> 819 25<532.08 574.023>
LayerCount: 2
Fore
SplineSet
54 -5 m 0x63c0
 37 -5 25 -2 25 6 c 0
 25 15 36 21 58 28 c 0
 92 38 134 78 162 126 c 2
 435 594 l 2
 440 602 431 610 418 611 c 2
 330 626 l 2
 323 629 320 634 320 639 c 0
 320 645 324 651 330 651 c 0x67c0
 372 651 437 648 505 648 c 0
 614 648 763 653 814 653 c 0
 821 653 831 651 832 644 c 0
 839 606 843 576 844 541 c 0
 844 535 836 532 830 532 c 0
 823 532 821 535 819 542 c 0
 812 564 805 581 796 591 c 0
 777 612 754 618 729 618 c 2
 598 618 l 2
 587 618 563 610 563 592 c 2
 563 349 l 2
 563 338 570 327 580 327 c 0
 622 327 652 328 676 329 c 0
 695 330 708 336 720 347 c 0
 738 363 742 388 755 388 c 0
 760 388 769 381 768 372 c 0
 766 349 765 331 765 313 c 0
 765 290 766 269 768 240 c 0
 768 231 767 223 759 223 c 0
 746 223 738 239 736 246 c 0
 726 277 705 289 689 290 c 0
 647 292 625 292 586 292 c 0
 574 292 563 285 563 269 c 2
 563 111 l 2
 563 73 583 35 628 35 c 2
 732 35 l 2x9bc0
 737 35 795 43 808 53 c 0
 826 67 842 99 850 116 c 0
 854 124 857 127 864 126 c 0
 871 125 877 121 877 115 c 0
 877 77 868 43 860 12 c 0
 858 4 856 -5 846 -5 c 0
 732 -5 636 1 522 1 c 0
 477 1 461 -5 407 -5 c 0
 390 -5 378 -2 378 6 c 0
 378 15 388 20 411 24 c 0
 460 33 484 50 484 96 c 2
 484 267 l 2
 484 277 482 285 462 285 c 2
 321 285 l 2
 306 285 298 275 291 262 c 0
 265 217 241 174 209 112 c 0
 203 101 200 91 200 82 c 0
 200 50 236 37 265 30 c 0
 288 24 298 19 298 10 c 0
 298 2 286 -1 269 -1 c 0
 251 -1 216 1 180 1 c 0
 135 1 87 -5 54 -5 c 0x63c0
344 328 m 2
 468 328 l 2
 483 328 484 328 484 343 c 2
 484 580 l 2
 484 604 481 604 468 581 c 2
 332 343 l 2
 329 338 328 335 328 333 c 0
 328 329 333 328 344 328 c 2
EndSplineSet
Validated: 1
EndChar
StartChar: Ccedilla
Encoding: 199 199 135
Width: 781
GlyphClass: 2
Flags: MW
TeX: 663 275
ItalicCorrection: 19
TopAccentHorizontal: 490
LayerCount: 2
Fore
SplineSet
676 141 m 0
 685 158 710 159 710 138 c 0
 710 122 695 70 683 41 c 0
 673 22 672 21 651 14 c 0
 604 -5 532 -14 469 -15 c 1
 447 -48 l 2
 440 -58 443 -66 453 -70 c 0
 481 -81 519 -112 519 -159 c 0
 519 -227 435 -275 390 -275 c 0
 361 -275 345 -263 345 -243 c 0
 345 -220 353 -209 361 -209 c 0
 369 -209 375 -222 424 -222 c 0
 453 -222 466 -205 466 -183 c 0
 466 -145 446 -129 419 -129 c 0
 407 -129 402 -132 393 -132 c 0
 376 -132 367 -121 367 -115 c 0
 367 -108 370 -104 373 -100 c 2
 437 -14 l 1
 260 -3 101 128 101 323 c 0
 101 517 282 663 487 663 c 0
 564 663 597 654 665 637 c 0
 685 632 692 621 694 603 c 0
 697 572 701 540 703 488 c 0
 704 473 675 464 669 487 c 0
 656 538 642 574 607 598 c 0
 574 620 525 632 470 632 c 0
 314 632 202 494 202 347 c 0
 202 184 311 16 477 16 c 0
 573 16 632 62 676 141 c 0
EndSplineSet
Validated: 33
EndChar
StartChar: Egrave
Encoding: 200 200 2299
Width: 681
GlyphClass: 2
Flags: MW
TeX: 838 5
TopAccentHorizontal: 330
LayerCount: 2
Fore
SplineSet
393 685 m 0
 390 685 384 687 375 694 c 0
 336 725 284 761 245 796 c 0
 236 804 232 808 232 815 c 0
 232 829 276 838 290 838 c 0
 301 838 310 835 317 825 c 0
 344 786 370 746 394 706 c 0
 397 701 399 695 399 691 c 0
 399 688 397 685 393 685 c 0
129 -5 m 0
 112 -5 100 -2 100 6 c 0
 100 15 110 20 133 24 c 0
 183 33 207 51 207 99 c 2
 207 549 l 2
 207 597 190 613 140 622 c 0
 117 626 107 633 107 642 c 0
 107 650 119 653 136 653 c 0
 211 653 243 650 313 650 c 0
 357 650 408 651 450 651 c 2
 535 653 l 2
 542 653 552 651 553 644 c 0
 560 606 568 568 568 541 c 0
 568 529 560 526 554 526 c 0
 547 526 545 529 543 536 c 0
 536 558 530 581 521 591 c 0
 502 612 479 618 454 618 c 2
 323 618 l 2
 312 618 287 605 287 586 c 2
 287 374 l 2
 287 362 295 352 305 352 c 2
 404 352 l 2
 443 352 452 364 462 401 c 0
 466 416 472 423 480 423 c 0
 485 423 493 417 493 407 c 0
 493 398 490 353 490 337 c 0
 490 317 492 268 492 260 c 0
 492 251 491 243 483 243 c 0
 473 243 465 254 460 275 c 0
 452 306 440 320 414 320 c 2
 321 320 l 2
 298 320 287 317 287 294 c 2
 287 102 l 2
 287 51 308 35 353 35 c 2
 427 35 l 2
 470 35 497 39 518 52 c 0
 539 66 554 89 575 129 c 0
 579 137 584 143 591 142 c 0
 598 141 602 136 602 128 c 0
 602 110 583 39 571 12 c 0
 567 3 565 -5 557 -5 c 0
 429 -5 344 1 244 1 c 0
 199 1 183 -5 129 -5 c 0
EndSplineSet
Validated: 1
EndChar
StartChar: Eacute
Encoding: 201 201 2287
Width: 676
TopAccentHorizontal: 325
GlyphClass: 2
Flags: MW
TeX: 838 5
LayerCount: 2
Fore
SplineSet
322 685 m 0
 318 685 316 688 316 691 c 0
 316 695 318 701 321 706 c 0
 345 746 371 786 398 825 c 0
 405 835 414 838 425 838 c 0
 439 838 483 829 483 815 c 0
 483 808 479 804 470 796 c 0
 431 761 379 725 340 694 c 0
 331 687 325 685 322 685 c 0
123 -5 m 0
 106 -5 94 -2 94 6 c 0
 94 15 104 20 127 24 c 0
 177 33 201 51 201 99 c 2
 201 549 l 2
 201 597 184 613 134 622 c 0
 111 626 101 633 101 642 c 0
 101 650 113 653 130 653 c 0
 205 653 237 650 307 650 c 0
 351 650 402 651 444 651 c 2
 529 653 l 2
 536 653 546 651 547 644 c 0
 554 606 562 568 562 541 c 0
 562 529 554 526 548 526 c 0
 541 526 539 529 537 536 c 0
 530 558 524 581 515 591 c 0
 496 612 473 618 448 618 c 2
 317 618 l 2
 306 618 281 605 281 586 c 2
 281 374 l 2
 281 362 289 352 299 352 c 2
 398 352 l 2
 437 352 446 364 456 401 c 0
 460 416 466 423 474 423 c 0
 479 423 487 417 487 407 c 0
 487 398 484 353 484 337 c 0
 484 317 486 268 486 260 c 0
 486 251 485 243 477 243 c 0
 467 243 459 254 454 275 c 0
 446 306 434 320 408 320 c 2
 315 320 l 2
 292 320 281 317 281 294 c 2
 281 102 l 2
 281 51 302 35 347 35 c 2
 421 35 l 2
 464 35 491 39 512 52 c 0
 533 66 548 89 569 129 c 0
 573 137 578 143 585 142 c 0
 592 141 596 136 596 128 c 0
 596 110 577 39 565 12 c 0
 561 3 559 -5 551 -5 c 0
 423 -5 338 1 238 1 c 0
 193 1 177 -5 123 -5 c 0
EndSplineSet
Validated: 1
EndChar
StartChar: Ecircumflex
Encoding: 202 202 1983
Width: 686
GlyphClass: 2
Flags: MW
TeX: 823 5
ItalicCorrection: 13
TopAccentHorizontal: 359
LayerCount: 2
Fore
SplineSet
228 696 m 0
 219 696 213 700 213 706 c 0
 213 710 215 714 220 718 c 2
 318 801 l 2
 337 817 344 823 359 823 c 0
 374 823 381 817 400 801 c 2
 498 718 l 2
 503 714 504 710 504 706 c 0
 504 700 499 695 490 695 c 0
 477 695 395 736 369 751 c 0
 360 756 358 756 349 751 c 0
 323 736 241 696 228 696 c 0
127 -5 m 0
 110 -5 98 -2 98 6 c 0
 98 15 108 20 131 24 c 0
 181 33 205 51 205 99 c 2
 205 549 l 2
 205 597 188 613 138 622 c 0
 115 626 105 633 105 642 c 0
 105 650 117 653 134 653 c 0
 209 653 241 650 311 650 c 0
 355 650 406 651 448 651 c 2
 533 653 l 2
 540 653 550 651 551 644 c 0
 558 606 566 568 566 541 c 0
 566 529 558 526 552 526 c 0
 545 526 543 529 541 536 c 0
 534 558 528 581 519 591 c 0
 500 612 477 618 452 618 c 2
 321 618 l 2
 310 618 285 605 285 586 c 2
 285 374 l 2
 285 362 293 352 303 352 c 2
 402 352 l 2
 441 352 450 364 460 401 c 0
 464 416 470 423 478 423 c 0
 483 423 491 417 491 407 c 0
 491 398 488 353 488 337 c 0
 488 317 490 268 490 260 c 0
 490 251 489 243 481 243 c 0
 471 243 463 254 458 275 c 0
 450 306 438 320 412 320 c 2
 319 320 l 2
 296 320 285 317 285 294 c 2
 285 102 l 2
 285 51 306 35 351 35 c 2
 425 35 l 2
 468 35 495 39 516 52 c 0
 537 66 552 89 573 129 c 0
 577 137 582 143 589 142 c 0
 596 141 600 136 600 128 c 0
 600 110 581 39 569 12 c 0
 565 3 563 -5 555 -5 c 0
 427 -5 342 1 242 1 c 0
 197 1 181 -5 127 -5 c 0
EndSplineSet
Validated: 1
EndChar
StartChar: Edieresis
Encoding: 203 203 2296
Width: 672
TopAccentHorizontal: 354
GlyphClass: 2
Flags: MW
TeX: 795 5
LayerCount: 2
Fore
SplineSet
257 695 m 0
 229 695 207 717 207 745 c 0
 207 773 229 795 257 795 c 0
 285 795 307 773 307 745 c 0
 307 717 285 695 257 695 c 0
452 695 m 0
 424 695 402 717 402 745 c 0
 402 773 424 795 452 795 c 0
 480 795 502 773 502 745 c 0
 502 717 480 695 452 695 c 0
122 -5 m 0
 105 -5 93 -2 93 6 c 0
 93 15 103 20 126 24 c 0
 176 33 200 51 200 99 c 2
 200 549 l 2
 200 597 183 613 133 622 c 0
 110 626 100 633 100 642 c 0
 100 650 112 653 129 653 c 0
 204 653 236 650 306 650 c 0
 350 650 401 651 443 651 c 2
 528 653 l 2
 535 653 545 651 546 644 c 0
 553 606 561 568 561 541 c 0
 561 529 553 526 547 526 c 0
 540 526 538 529 536 536 c 0
 529 558 523 581 514 591 c 0
 495 612 472 618 447 618 c 2
 316 618 l 2
 305 618 280 605 280 586 c 2
 280 374 l 2
 280 362 288 352 298 352 c 2
 397 352 l 2
 436 352 445 364 455 401 c 0
 459 416 465 423 473 423 c 0
 478 423 486 417 486 407 c 0
 486 398 483 353 483 337 c 0
 483 317 485 268 485 260 c 0
 485 251 484 243 476 243 c 0
 466 243 458 254 453 275 c 0
 445 306 433 320 407 320 c 2
 314 320 l 2
 291 320 280 317 280 294 c 2
 280 102 l 2
 280 51 301 35 346 35 c 2
 420 35 l 2
 463 35 490 39 511 52 c 0
 532 66 547 89 568 129 c 0
 572 137 577 143 584 142 c 0
 591 141 595 136 595 128 c 0
 595 110 576 39 564 12 c 0
 560 3 558 -5 550 -5 c 0
 422 -5 337 1 237 1 c 0
 192 1 176 -5 122 -5 c 0
EndSplineSet
Validated: 1
EndChar
StartChar: Igrave
Encoding: 204 204 2324
Width: 358
GlyphClass: 2
Flags: W
TeX: 838 5
TopAccentHorizontal: 122
HStem: -5 29<30.6924 108.104 254.602 332.308> 622 31<42.0745 118.441 246.205 323.926>
VStem: 141 80<46.75 604.158>
LayerCount: 2
Fore
SplineSet
213 685 m 0
 210 685 204 687 195 694 c 0
 156 725 104 761 65 796 c 0
 56 804 52 808 52 815 c 0
 52 829 96 838 110 838 c 0
 121 838 130 835 137 825 c 0
 164 786 190 746 214 706 c 0
 217 701 219 695 219 691 c 0
 219 688 217 685 213 685 c 0
59 -5 m 0
 42 -5 30 -2 30 6 c 0
 30 15 40 20 63 24 c 0
 113 33 141 51 141 98 c 2
 141 550 l 2
 141 597 124 613 74 622 c 0
 51 626 41 633 41 642 c 0
 41 650 53 653 70 653 c 0
 124 653 141 650 187 650 c 0
 230 650 242 653 296 653 c 0
 313 653 325 650 325 642 c 0
 325 633 315 626 292 622 c 0
 242 613 221 597 221 550 c 2
 221 98 l 2
 221 51 250 33 300 24 c 0
 323 20 333 15 333 6 c 0
 333 -2 321 -5 304 -5 c 0
 250 -5 233 0 187 0 c 0
 137 0 113 -5 59 -5 c 0
EndSplineSet
Validated: 1
EndChar
StartChar: Iacute
Encoding: 205 205 2318
Width: 358
GlyphClass: 2
Flags: W
TeX: 838 5
TopAccentHorizontal: 234
HStem: -5 29<25.6924 103.104 249.602 327.308> 622 31<37.0745 113.441 241.205 318.926>
VStem: 136 80<46.75 604.158>
LayerCount: 2
Fore
SplineSet
143 685 m 0
 139 685 137 688 137 691 c 0
 137 695 139 701 142 706 c 0
 166 746 192 786 219 825 c 0
 226 835 235 838 246 838 c 0
 260 838 304 829 304 815 c 0
 304 808 300 804 291 796 c 0
 252 761 200 725 161 694 c 0
 152 687 146 685 143 685 c 0
54 -5 m 0
 37 -5 25 -2 25 6 c 0
 25 15 35 20 58 24 c 0
 108 33 136 51 136 98 c 2
 136 550 l 2
 136 597 119 613 69 622 c 0
 46 626 36 633 36 642 c 0
 36 650 48 653 65 653 c 0
 119 653 136 650 182 650 c 0
 225 650 237 653 291 653 c 0
 308 653 320 650 320 642 c 0
 320 633 310 626 287 622 c 0
 237 613 216 597 216 550 c 2
 216 98 l 2
 216 51 245 33 295 24 c 0
 318 20 328 15 328 6 c 0
 328 -2 316 -5 299 -5 c 0
 245 -5 228 0 182 0 c 0
 132 0 108 -5 54 -5 c 0
EndSplineSet
Validated: 1
EndChar
StartChar: Icircumflex
Encoding: 206 206 2319
Width: 466
TopAccentHorizontal: 232
GlyphClass: 2
Flags: MW
TeX: 823 5
LayerCount: 2
Fore
SplineSet
101 696 m 0
 92 696 86 700 86 706 c 0
 86 710 88 714 93 718 c 2
 191 801 l 2
 210 817 217 823 232 823 c 0
 247 823 254 817 273 801 c 2
 371 718 l 2
 376 714 377 710 377 706 c 0
 377 700 372 695 363 695 c 0
 350 695 268 736 242 751 c 0
 233 756 231 756 222 751 c 0
 196 736 114 696 101 696 c 0
110 -5 m 0
 93 -5 81 -2 81 6 c 0
 81 15 91 20 114 24 c 0
 164 33 192 51 192 98 c 2
 192 550 l 2
 192 597 175 613 125 622 c 0
 102 626 92 633 92 642 c 0
 92 650 104 653 121 653 c 0
 175 653 192 650 238 650 c 0
 281 650 293 653 347 653 c 0
 364 653 376 650 376 642 c 0
 376 633 366 626 343 622 c 0
 293 613 272 597 272 550 c 2
 272 98 l 2
 272 51 301 33 351 24 c 0
 374 20 384 15 384 6 c 0
 384 -2 372 -5 355 -5 c 0
 301 -5 284 0 238 0 c 0
 188 0 164 -5 110 -5 c 0
EndSplineSet
Validated: 1
EndChar
StartChar: Idieresis
Encoding: 207 207 2320
Width: 462
GlyphClass: 2
Flags: MW
TeX: 795 5
TopAccentHorizontal: 230
LayerCount: 2
Fore
SplineSet
133 695 m 0
 105 695 83 717 83 745 c 0
 83 773 105 795 133 795 c 0
 161 795 183 773 183 745 c 0
 183 717 161 695 133 695 c 0
328 695 m 0
 300 695 278 717 278 745 c 0
 278 773 300 795 328 795 c 0
 356 795 378 773 378 745 c 0
 378 717 356 695 328 695 c 0
108 -5 m 0
 91 -5 79 -2 79 6 c 0
 79 15 89 20 112 24 c 0
 162 33 190 51 190 98 c 2
 190 550 l 2
 190 597 173 613 123 622 c 0
 100 626 90 633 90 642 c 0
 90 650 102 653 119 653 c 0
 173 653 190 650 236 650 c 0
 279 650 291 653 345 653 c 0
 362 653 374 650 374 642 c 0
 374 633 364 626 341 622 c 0
 291 613 270 597 270 550 c 2
 270 98 l 2
 270 51 299 33 349 24 c 0
 372 20 382 15 382 6 c 0
 382 -2 370 -5 353 -5 c 0
 299 -5 282 0 236 0 c 0
 186 0 162 -5 108 -5 c 0
EndSplineSet
Validated: 1
EndChar
StartChar: Eth
Encoding: 208 208 2304
Width: 762
ItalicCorrection: 113
TopAccentHorizontal: 368
GlyphClass: 2
Flags: MW
TeX: 659 7
LayerCount: 2
Fore
SplineSet
399 659 m 0
 670 659 778 517 778 342 c 0
 778 150 621 -7 430 -7 c 0
 410 -7 301 0 222 0 c 0
 182 0 170 -5 117 -5 c 0
 100 -5 88 -2 88 8 c 0
 88 19 98 20 121 24 c 0
 171 33 188 51 188 99 c 2
 188 317 l 1
 119 317 l 2
 110 317 105 329 105 335 c 0
 105 344 117 353 129 353 c 2
 188 353 l 1
 188 549 l 2
 188 597 171 613 121 622 c 0
 98 626 88 629 88 640 c 0
 88 649 100 653 117 653 c 0
 168 653 180 651 228 651 c 0
 271 651 372 659 399 659 c 0
418 28 m 0
 574 28 683 151 683 325 c 0
 683 517 541 628 404 628 c 0
 317 628 268 627 268 567 c 2
 268 353 l 1
 436 353 l 2
 442 353 450 348 450 342 c 0
 450 341 449 340 449 339 c 0
 442 326 433 317 418 317 c 2
 268 317 l 1
 268 121 l 2
 268 40 343 28 418 28 c 0
EndSplineSet
Validated: 1
EndChar
StartChar: Ntilde
Encoding: 209 209 2345
Width: 841
GlyphClass: 2
Flags: MW
TeX: 824 17
ItalicCorrection: 79
TopAccentHorizontal: 489
LayerCount: 2
Fore
SplineSet
363 692 m 0
 356 692 347 701 347 708 c 0
 347 718 404 792 429 792 c 0
 451 792 478 791 497 789 c 0
 519 787 543 785 561 785 c 0
 576 785 590 794 600 804 c 0
 609 813 616 824 620 824 c 0
 630 824 639 817 639 807 c 0
 639 803 632 796 625 789 c 0
 609 773 591 749 578 733 c 0
 570 723 553 719 549 719 c 0
 533 719 449 727 418 727 c 0
 408 727 393 722 385 715 c 0
 373 705 366 692 363 692 c 0
737 -17 m 0
 725 -17 683 2 651 46 c 0
 633 71 306 456 283 484 c 0
 273 496 267 500 262 500 c 0
 255 500 253 487 253 479 c 0
 251 380 248 227 248 104 c 0
 248 68 262 33 312 24 c 0
 335 20 345 15 345 6 c 0
 345 -2 333 -5 316 -5 c 0
 262 -5 259 0 222 0 c 0
 186 0 185 -5 131 -5 c 0
 114 -5 102 -2 102 6 c 0
 102 15 112 19 135 25 c 0
 173 35 189 66 193 107 c 0
 201 182 211 342 211 507 c 0
 211 578 171 601 112 620 c 0
 106 622 81 632 81 644 c 0
 81 656 97 658 104 658 c 0
 182 656 186 653 258 653 c 0
 270 653 275 645 282 636 c 0
 301 609 655 180 675 156 c 0
 680 150 692 136 700 136 c 0
 705 136 709 142 710 157 c 0
 711 195 712 381 712 564 c 0
 711 590 676 615 654 619 c 0
 631 623 609 630 609 639 c 0
 609 647 633 650 650 650 c 2
 707 650 l 2
 755 650 761 653 822 653 c 0
 839 653 851 650 851 642 c 0
 851 633 841 626 818 622 c 0
 768 613 757 601 755 568 c 0
 754 550 753 263 753 105 c 0
 753 57 758 21 758 8 c 0
 758 -13 747 -17 737 -17 c 0
EndSplineSet
Validated: 1
EndChar
StartChar: Ograve
Encoding: 210 210 2358
Width: 724
GlyphClass: 2
Flags: W
TeX: 838 14
TopAccentHorizontal: 364
HStem: -14 40<281.5 474.695> 622 42<251.656 450.154>
VStem: 28 96<219.043 439.023> 605 96<211.183 430.95>
LayerCount: 2
Fore
SplineSet
406 685 m 0
 403 685 397 687 388 694 c 0
 349 725 297 761 258 796 c 0
 249 804 245 808 245 815 c 0
 245 829 289 838 303 838 c 0
 314 838 323 835 330 825 c 0
 357 786 383 746 407 706 c 0
 410 701 412 695 412 691 c 0
 412 688 410 685 406 685 c 0
360 -14 m 0
 184 -14 28 118 28 315 c 0
 28 495 147 664 369 664 c 0
 545 664 701 532 701 335 c 0
 701 155 582 -14 360 -14 c 0
375 26 m 0
 528 26 605 129 605 286 c 0
 605 471 520 622 353 622 c 0
 202 622 124 521 124 365 c 0
 124 179 208 26 375 26 c 0
EndSplineSet
Validated: 1
EndChar
StartChar: Oacute
Encoding: 211 211 2031
Width: 787
GlyphClass: 2
Flags: MW
TeX: 838 14
ItalicCorrection: 100
TopAccentHorizontal: 444
LayerCount: 2
Fore
SplineSet
419 685 m 0
 415 685 413 688 413 691 c 0
 413 695 415 701 418 706 c 0
 442 746 468 786 495 825 c 0
 502 835 511 838 522 838 c 0
 536 838 580 829 580 815 c 0
 580 808 576 804 567 796 c 0
 528 761 476 725 437 694 c 0
 428 687 422 685 419 685 c 0
438 -14 m 0
 262 -14 106 118 106 315 c 0
 106 495 225 664 447 664 c 0
 623 664 779 532 779 335 c 0
 779 155 660 -14 438 -14 c 0
453 26 m 0
 606 26 683 129 683 286 c 0
 683 471 598 622 431 622 c 0
 280 622 202 521 202 365 c 0
 202 179 286 26 453 26 c 0
EndSplineSet
Validated: 1
EndChar
StartChar: Ocircumflex
Encoding: 212 212 2350
Width: 723
GlyphClass: 2
Flags: W
TeX: 823 14
TopAccentHorizontal: 370
HStem: -14 40<278.5 471.695> 622 42<248.656 447.154>
VStem: 25 96<219.043 439.023> 602 96<211.183 430.95>
LayerCount: 2
Fore
SplineSet
240 696 m 0
 231 696 225 700 225 706 c 0
 225 710 227 714 232 718 c 2
 330 801 l 2
 349 817 356 823 371 823 c 0
 386 823 393 817 412 801 c 2
 510 718 l 2
 515 714 516 710 516 706 c 0
 516 700 511 695 502 695 c 0
 489 695 407 736 381 751 c 0
 372 756 370 756 361 751 c 0
 335 736 253 696 240 696 c 0
357 -14 m 0
 181 -14 25 118 25 315 c 0
 25 495 144 664 366 664 c 0
 542 664 698 532 698 335 c 0
 698 155 579 -14 357 -14 c 0
372 26 m 0
 525 26 602 129 602 286 c 0
 602 471 517 622 350 622 c 0
 199 622 121 521 121 365 c 0
 121 179 205 26 372 26 c 0
EndSplineSet
Validated: 1
EndChar
StartChar: Otilde
Encoding: 213 213 2369
Width: 831
TopAccentHorizontal: 411
GlyphClass: 2
Flags: MW
TeX: 824 14
LayerCount: 2
Fore
SplineSet
312 692 m 0
 305 692 296 701 296 708 c 0
 296 718 353 792 378 792 c 0
 400 792 427 791 446 789 c 0
 468 787 492 785 510 785 c 0
 525 785 539 794 549 804 c 0
 558 813 565 824 569 824 c 0
 579 824 588 817 588 807 c 0
 588 803 581 796 574 789 c 0
 558 773 540 749 527 733 c 0
 519 723 502 719 498 719 c 0
 482 719 398 727 367 727 c 0
 357 727 342 722 334 715 c 0
 322 705 315 692 312 692 c 0
410 -14 m 0
 234 -14 78 118 78 315 c 0
 78 495 197 664 419 664 c 0
 595 664 751 532 751 335 c 0
 751 155 632 -14 410 -14 c 0
425 26 m 0
 578 26 655 129 655 286 c 0
 655 471 570 622 403 622 c 0
 252 622 174 521 174 365 c 0
 174 179 258 26 425 26 c 0
EndSplineSet
Validated: 1
EndChar
StartChar: Odieresis
Encoding: 214 214 2355
Width: 786
ItalicCorrection: 100
TopAccentHorizontal: 453
GlyphClass: 2
Flags: MW
TeX: 795 14
LayerCount: 2
Fore
SplineSet
355 695 m 0
 327 695 305 717 305 745 c 0
 305 773 327 795 355 795 c 0
 383 795 405 773 405 745 c 0
 405 717 383 695 355 695 c 0
550 695 m 0
 522 695 500 717 500 745 c 0
 500 773 522 795 550 795 c 0
 578 795 600 773 600 745 c 0
 600 717 578 695 550 695 c 0
438 -14 m 0
 262 -14 106 118 106 315 c 0
 106 495 225 664 447 664 c 0
 623 664 779 532 779 335 c 0
 779 155 660 -14 438 -14 c 0
453 26 m 0
 606 26 683 129 683 286 c 0
 683 471 598 622 431 622 c 0
 280 622 202 521 202 365 c 0
 202 179 286 26 453 26 c 0
EndSplineSet
Validated: 1
EndChar
StartChar: multiply
Encoding: 215 215 8
Width: 600
Flags: W
LayerCount: 2
Fore
SplineSet
456 60 m 0
 452 60 449 61 446 64 c 2
 304 207 l 2
 302 209 299 209 297 207 c 2
 154 64 l 2
 149 59 140 59 136 63 c 0
 131 68 114 87 114 102 c 0
 114 106 116 111 119 114 c 2
 253 248 l 2
 257 252 256 254 252 258 c 2
 123 386 l 2
 119 390 118 395 118 400 c 0
 118 416 131 437 134 441 c 0
 139 446 148 446 153 441 c 2
 296 299 l 2
 301 294 301 296 303 298 c 2
 447 441 l 2
 450 444 453 446 457 446 c 0
 460 446 464 444 466 441 c 0
 473 428 483 413 483 401 c 0
 483 396 481 391 476 386 c 2
 345 255 l 2
 343 253 343 252 345 250 c 2
 481 114 l 2
 484 111 486 107 486 102 c 0
 486 84 467 60 456 60 c 0
EndSplineSet
Validated: 1
EndChar
StartChar: Oslash
Encoding: 216 216 2369
Width: 725
GlyphClass: 2
Flags: W
TeX: 664 14
ItalicCorrection: 1
TopAccentHorizontal: 423
HStem: -14 40<280.641 474.695> 622 42<251.656 450.371>
VStem: 28 96<212.178 439.023> 605 96<211.183 435.617>
LayerCount: 2
Fore
SplineSet
695 621 m 2
 624 550 l 1
 671 494 701 421 701 335 c 0
 701 155 582 -14 360 -14 c 0
 277 -14 199 15 139 66 c 1
 62 -11 l 2
 60 -13 57 -14 53 -14 c 0
 39 -14 25 -4 25 6 c 0
 25 13 29 20 35 26 c 2
 108 98 l 1
 58 154 28 228 28 315 c 0
 28 495 147 664 369 664 c 0
 454 664 535 633 595 579 c 1
 675 658 l 2
 682 665 696 663 699 654 c 0
 700 650 702 644 702 639 c 0
 702 632 700 626 695 621 c 2
124 365 m 0
 124 287 139 215 168 157 c 1
 540 525 l 1
 498 585 436 622 353 622 c 0
 202 622 124 521 124 365 c 0
605 286 m 0
 605 362 591 432 562 488 c 1
 192 119 l 1
 234 61 295 26 375 26 c 0
 528 26 605 129 605 286 c 0
EndSplineSet
Validated: 1
EndChar
StartChar: Ugrave
Encoding: 217 217 2398
Width: 712
ItalicCorrection: 78
TopAccentHorizontal: 409
GlyphClass: 2
Flags: MW
TeX: 838 14
LayerCount: 2
Fore
SplineSet
456 685 m 0
 453 685 447 687 438 694 c 0
 399 725 347 761 308 796 c 0
 299 804 295 808 295 815 c 0
 295 829 339 838 353 838 c 0
 364 838 373 835 380 825 c 0
 407 786 433 746 457 706 c 0
 460 701 462 695 462 691 c 0
 462 688 460 685 456 685 c 0
406 -14 m 0
 227 -14 137 87 137 240 c 2
 137 547 l 2
 137 595 113 614 91 620 c 0
 68 626 58 633 58 642 c 0
 58 650 70 653 87 653 c 0
 117 653 146 650 183 650 c 0
 214 650 242 652 263 652 c 0
 280 652 292 649 292 641 c 0
 292 632 281 628 259 621 c 0
 243 616 217 589 217 549 c 2
 217 268 l 2
 217 108 305 36 427 36 c 0
 564 36 626 140 626 296 c 0
 626 340 624 434 622 511 c 0
 621 562 609 612 581 620 c 0
 567 624 548 631 548 640 c 0
 548 648 560 651 577 651 c 0
 607 651 623 650 652 650 c 0
 684 650 710 653 733 653 c 0
 750 653 762 650 762 642 c 0
 762 633 752 627 729 622 c 0
 694 615 681 587 679 547 c 0
 672 432 672 342 669 250 c 0
 664 95 553 -14 406 -14 c 0
EndSplineSet
Validated: 1
EndChar
StartChar: Uacute
Encoding: 218 218 2394
Width: 717
GlyphClass: 2
Flags: W
TeX: 838 14
ItalicCorrection: 69
TopAccentHorizontal: 409
HStem: -14 50<325.425 511.672> 620 33<58.4669 116.959 235.114 289.781 548.06 599.939 695.499 759.313>
VStem: 136 80<153.613 606.064> 621 57<323.395 604.72> 625 43<161.769 455.301>
LayerCount: 2
Fore
SplineSet
390 685 m 0xe0
 386 685 384 688 384 691 c 0
 384 695 386 701 389 706 c 0
 413 746 439 786 466 825 c 0
 473 835 482 838 493 838 c 0
 507 838 551 829 551 815 c 0
 551 808 547 804 538 796 c 0
 499 761 447 725 408 694 c 0
 399 687 393 685 390 685 c 0xe0
405 -14 m 0
 226 -14 136 87 136 240 c 2
 136 547 l 2
 136 595 112 614 90 620 c 0
 67 626 57 633 57 642 c 0
 57 650 69 653 86 653 c 0
 116 653 145 650 182 650 c 0
 213 650 241 652 262 652 c 0
 279 652 291 649 291 641 c 0
 291 632 280 628 258 621 c 0
 242 616 216 589 216 549 c 2
 216 268 l 2
 216 108 304 36 426 36 c 0
 563 36 625 140 625 296 c 0xe8
 625 340 623 434 621 511 c 0
 620 562 608 612 580 620 c 0
 566 624 547 631 547 640 c 0
 547 648 559 651 576 651 c 0
 606 651 622 650 651 650 c 0
 683 650 709 653 732 653 c 0
 749 653 761 650 761 642 c 0
 761 633 751 627 728 622 c 0
 693 615 680 587 678 547 c 0xf0
 671 432 671 342 668 250 c 0xe8
 663 95 552 -14 405 -14 c 0
EndSplineSet
Validated: 1
EndChar
StartChar: Ucircumflex
Encoding: 219 219 2078
Width: 772
GlyphClass: 2
Flags: MW
TeX: 823 14
ItalicCorrection: 130
TopAccentHorizontal: 467
LayerCount: 2
Fore
SplineSet
336 696 m 0
 327 696 321 700 321 706 c 0
 321 710 323 714 328 718 c 2
 426 801 l 2
 445 817 452 823 467 823 c 0
 482 823 489 817 508 801 c 2
 606 718 l 2
 611 714 612 710 612 706 c 0
 612 700 607 695 598 695 c 0
 585 695 503 736 477 751 c 0
 468 756 466 756 457 751 c 0
 431 736 349 696 336 696 c 0
449 -14 m 0
 270 -14 180 87 180 240 c 2
 180 547 l 2
 180 595 156 614 134 620 c 0
 111 626 101 633 101 642 c 0
 101 650 113 653 130 653 c 0
 160 653 189 650 226 650 c 0
 257 650 285 652 306 652 c 0
 323 652 335 649 335 641 c 0
 335 632 324 628 302 621 c 0
 286 616 260 589 260 549 c 2
 260 268 l 2
 260 108 348 36 470 36 c 0
 607 36 669 140 669 296 c 0
 669 340 667 434 665 511 c 0
 664 562 652 612 624 620 c 0
 610 624 591 631 591 640 c 0
 591 648 603 651 620 651 c 0
 650 651 666 650 695 650 c 0
 727 650 753 653 776 653 c 0
 793 653 805 650 805 642 c 0
 805 633 795 627 772 622 c 0
 737 615 724 587 722 547 c 0
 715 432 715 342 712 250 c 0
 707 95 596 -14 449 -14 c 0
EndSplineSet
Validated: 1
EndChar
StartChar: Udieresis
Encoding: 220 220 2396
Width: 774
ItalicCorrection: 78
TopAccentHorizontal: 455
GlyphClass: 2
Flags: MW
TeX: 795 14
LayerCount: 2
Fore
SplineSet
357 695 m 0
 329 695 307 717 307 745 c 0
 307 773 329 795 357 795 c 0
 385 795 407 773 407 745 c 0
 407 717 385 695 357 695 c 0
552 695 m 0
 524 695 502 717 502 745 c 0
 502 773 524 795 552 795 c 0
 580 795 602 773 602 745 c 0
 602 717 580 695 552 695 c 0
436 -14 m 0
 257 -14 167 87 167 240 c 2
 167 547 l 2
 167 595 143 614 121 620 c 0
 98 626 88 633 88 642 c 0
 88 650 100 653 117 653 c 0
 147 653 176 650 213 650 c 0
 244 650 272 652 293 652 c 0
 310 652 322 649 322 641 c 0
 322 632 311 628 289 621 c 0
 273 616 247 589 247 549 c 2
 247 268 l 2
 247 108 335 36 457 36 c 0
 594 36 656 140 656 296 c 0
 656 340 654 434 652 511 c 0
 651 562 639 612 611 620 c 0
 597 624 578 631 578 640 c 0
 578 648 590 651 607 651 c 0
 637 651 653 650 682 650 c 0
 714 650 740 653 763 653 c 0
 780 653 792 650 792 642 c 0
 792 633 782 627 759 622 c 0
 724 615 711 587 709 547 c 0
 702 432 702 342 699 250 c 0
 694 95 583 -14 436 -14 c 0
EndSplineSet
Validated: 1
EndChar
StartChar: Yacute
Encoding: 221 221 2418
Width: 628
ItalicCorrection: 126
TopAccentHorizontal: 382
GlyphClass: 2
Flags: MW
TeX: 838 5
LayerCount: 2
Fore
SplineSet
359 685 m 0
 355 685 353 688 353 691 c 0
 353 695 355 701 358 706 c 0
 382 746 408 786 435 825 c 0
 442 835 451 838 462 838 c 0
 476 838 520 829 520 815 c 0
 520 808 516 804 507 796 c 0
 468 761 416 725 377 694 c 0
 368 687 362 685 359 685 c 0
254 -5 m 0
 237 -5 225 -2 225 6 c 0
 225 15 235 20 258 24 c 0
 308 33 336 60 336 108 c 2
 336 256 l 2
 336 283 316 321 311 330 c 2
 194 522 l 2
 179 546 139 610 105 620 c 0
 83 627 72 633 72 642 c 0
 72 650 84 653 101 653 c 0
 131 653 172 650 218 650 c 0
 249 650 277 652 298 652 c 0
 315 652 327 649 327 641 c 0
 327 632 316 626 294 621 c 0
 275 616 262 611 262 596 c 0
 262 588 266 576 275 560 c 2
 367 390 l 2
 381 364 389 352 395 352 c 0
 403 352 410 362 428 390 c 0
 458 437 478 474 512 534 c 0
 525 556 530 573 530 585 c 0
 530 610 508 617 489 620 c 0
 475 622 456 631 456 640 c 0
 456 648 468 651 485 651 c 0
 515 651 531 650 560 650 c 0
 601 650 641 653 664 653 c 0
 681 653 693 650 693 642 c 0
 693 633 668 625 640 617 c 0
 605 607 588 581 552 526 c 0
 498 443 487 425 441 350 c 0
 415 307 416 299 416 260 c 2
 416 108 l 2
 416 63 445 33 495 24 c 0
 518 20 528 15 528 6 c 0
 528 -2 516 -5 499 -5 c 0
 445 -5 428 0 382 0 c 0
 332 0 308 -5 254 -5 c 0
EndSplineSet
Validated: 33
EndChar
StartChar: Thorn
Encoding: 222 222 2392
Width: 562
GlyphClass: 2
Flags: MW
TeX: 653 5
TopAccentHorizontal: 198
LayerCount: 2
Fore
SplineSet
65 -5 m 0
 48 -5 36 -2 36 6 c 0
 36 15 46 20 69 24 c 0
 119 33 148 51 148 99 c 2
 148 549 l 2
 148 588 141 613 91 622 c 0
 68 626 58 633 58 642 c 0
 58 650 70 653 87 653 c 0
 141 653 150 650 191 650 c 0
 237 650 256 653 310 653 c 0
 327 653 339 650 339 642 c 0
 339 633 329 626 306 622 c 0
 256 613 228 597 228 549 c 2
 228 532 l 2
 228 521 228 512 234 512 c 0
 237 512 256 517 257 517 c 0
 276 522 302 524 329 524 c 0
 443 524 533 457 533 337 c 0
 533 190 408 129 270 129 c 0
 256 129 245 132 236 132 c 0
 232 132 228 129 228 123 c 2
 228 96 l 2
 228 54 257 33 307 24 c 0
 330 20 340 15 340 6 c 0
 340 -2 328 -5 311 -5 c 0
 257 -5 240 0 194 0 c 0
 144 0 119 -5 65 -5 c 0
279 158 m 0
 385 158 447 229 447 335 c 0
 447 420 406 496 313 496 c 0
 242 496 228 484 228 420 c 2
 228 216 l 2
 228 174 253 158 279 158 c 0
EndSplineSet
Validated: 1
EndChar
StartChar: germandbls
Encoding: 223 223 3995
Width: 506
GlyphClass: 2
Flags: W
TeX: 706 15
TopAccentHorizontal: 299
HStem: -15 56<301.315 390.166> -3 27<25.9975 74.9714 175.029 224.003> 352 24<28.0248 64.1752> 665 41<231.108 348.683>
VStem: 90 70<32.4474 350 389.856 539.479> 246 79<320.457 382.572> 392 63<503.629 624.193> 423 52<68.0071 149.356>
LayerCount: 2
Fore
SplineSet
315 -15 m 0xbd
 278 -15 242 -1 242 33 c 0
 242 59 248 81 266 81 c 0
 274 81 289 72 297 66 c 0
 321 46 335 41 366 41 c 0
 392 41 423 58 423 98 c 0xbd
 423 134 399 156 335 217 c 0
 257 292 246 302 246 336 c 0
 246 383 305 410 351 458 c 0
 374 482 392 519 392 555 c 0
 392 616 357 665 273 665 c 0
 207 665 160 613 160 475 c 2
 160 69 l 2
 160 41 182 30 202 24 c 0
 213 20 225 16 225 6 c 0
 225 -4 207 -3 202 -3 c 0
 163 -3 161 2 126 2 c 0
 91 2 87 -3 48 -3 c 0
 43 -3 25 -4 25 6 c 0
 25 16 37 20 48 24 c 0
 68 30 90 41 90 69 c 2
 90 350 l 1
 77 350 59 350 38 352 c 0
 34 353 27 362 27 369 c 0
 27 372 29 375 31 376 c 0
 61 384 72 392 90 402 c 1
 90 633 221 706 319 706 c 0
 398 706 455 644 455 572 c 0x7e
 455 528 438 497 376 443 c 0
 343 414 325 401 325 364 c 0
 325 336 340 327 402 266 c 0
 464 205 475 179 475 140 c 0
 475 58 392 -15 315 -15 c 0xbd
EndSplineSet
Validated: 1
EndChar
StartChar: agrave
Encoding: 224 224 4037
Width: 491
GlyphClass: 2
Flags: MW
TeX: 649 14
TopAccentHorizontal: 183
LayerCount: 2
Fore
SplineSet
274 457 m 0
 267 457 257 464 243 478 c 0
 217 504 159 572 135 607 c 0
 129 616 125 620 125 628 c 0
 125 642 149 649 174 649 c 0
 184 649 195 641 201 631 c 0
 217 604 264 521 278 484 c 0
 281 476 282 470 282 466 c 0
 282 459 279 457 274 457 c 0
167 -14 m 0
 131 -14 87 35 87 72 c 0
 87 114 109 135 158 155 c 2
 260 197 l 2
 286 208 287 210 288 237 c 2
 290 301 l 2
 291 336 269 365 231 365 c 0
 211 365 189 358 176 347 c 0
 168 341 166 330 166 318 c 2
 167 300 l 2
 167 290 121 265 101 265 c 0
 94 265 90 269 90 274 c 0
 90 295 105 321 130 343 c 0
 175 384 239 414 279 414 c 0
 327 414 362 376 361 325 c 2
 356 85 l 2
 355 57 370 38 392 38 c 0
 409 38 420 41 429 49 c 0
 433 53 435 54 437 54 c 0
 443 54 448 49 448 43 c 0
 448 37 443 27 437 21 c 0
 416 0 389 -14 368 -14 c 0
 337 -14 313 3 295 38 c 1
 292 38 l 1
 248 2 210 -14 167 -14 c 0
214 34 m 0
 240 34 258 43 273 58 c 0
 280 65 285 74 286 99 c 2
 288 148 l 2
 289 163 287 169 279 169 c 0
 276 169 270 168 259 164 c 0
 188 138 165 110 165 87 c 0
 165 52 190 34 214 34 c 0
EndSplineSet
Validated: 33
EndChar
StartChar: aacute
Encoding: 225 225 82
Width: 422
TopAccentHorizontal: 262
GlyphClass: 2
Flags: MW
TeX: 649 14
LayerCount: 2
Fore
SplineSet
171 457 m 0
 166 457 163 459 163 466 c 0
 163 470 164 476 167 484 c 0
 181 521 228 604 244 631 c 0
 250 641 261 649 271 649 c 0
 296 649 320 642 320 628 c 0
 320 620 316 616 310 607 c 0
 286 572 228 504 202 478 c 0
 188 464 178 457 171 457 c 0
111 -14 m 0
 75 -14 31 35 31 72 c 0
 31 114 53 135 102 155 c 2
 204 197 l 2
 230 208 231 210 232 237 c 2
 234 301 l 2
 235 336 213 365 175 365 c 0
 155 365 133 358 120 347 c 0
 112 341 110 330 110 318 c 2
 111 300 l 2
 111 290 65 265 45 265 c 0
 38 265 34 269 34 274 c 0
 34 295 49 321 74 343 c 0
 119 384 183 414 223 414 c 0
 271 414 306 376 305 325 c 2
 300 85 l 2
 299 57 314 38 336 38 c 0
 353 38 364 41 373 49 c 0
 377 53 379 54 381 54 c 0
 387 54 392 49 392 43 c 0
 392 37 387 27 381 21 c 0
 360 0 333 -14 312 -14 c 0
 281 -14 257 3 239 38 c 1
 236 38 l 1
 192 2 154 -14 111 -14 c 0
158 34 m 0
 184 34 202 43 217 58 c 0
 224 65 229 74 230 99 c 2
 232 148 l 2
 233 163 231 169 223 169 c 0
 220 169 214 168 203 164 c 0
 132 138 109 110 109 87 c 0
 109 52 134 34 158 34 c 0
EndSplineSet
Validated: 33
EndChar
StartChar: acircumflex
Encoding: 226 226 4044
Width: 421
GlyphClass: 2
Flags: W
TeX: 648 14
TopAccentHorizontal: 199
HStem: -14 48<98 197.414 311.435 370.606> 365 49<152.283 252> 455 21G<96.5 105 295 303.5>
VStem: 36 78<42.5666 125.471 280.17 320.237> 237 68<58.3296 168.996 199.884 353.979>
LayerCount: 2
Fore
SplineSet
200 648 m 0
 208 648 215 638 220 630 c 0
 240 599 308 481 308 468 c 0
 308 459 308 455 299 455 c 0
 291 455 278 468 270 477 c 0
 257 492 226 532 204 562 c 0
 201 566 200 566 197 562 c 0
 175 532 144 492 131 477 c 0
 123 468 109 455 101 455 c 0
 92 455 92 459 92 468 c 0
 92 481 160 599 180 630 c 0
 185 638 192 648 200 648 c 0
116 -14 m 0
 80 -14 36 35 36 72 c 0
 36 114 58 135 107 155 c 2
 209 197 l 2
 235 208 236 210 237 237 c 2
 239 301 l 2
 240 336 218 365 180 365 c 0
 160 365 138 358 125 347 c 0
 117 341 115 330 115 318 c 2
 116 300 l 2
 116 290 70 265 50 265 c 0
 43 265 39 269 39 274 c 0
 39 295 54 321 79 343 c 0
 124 384 188 414 228 414 c 0
 276 414 311 376 310 325 c 2
 305 85 l 2
 304 57 319 38 341 38 c 0
 358 38 369 41 378 49 c 0
 382 53 384 54 386 54 c 0
 392 54 397 49 397 43 c 0
 397 37 392 27 386 21 c 0
 365 0 338 -14 317 -14 c 0
 286 -14 262 3 244 38 c 1
 241 38 l 1
 197 2 159 -14 116 -14 c 0
163 34 m 0
 189 34 207 43 222 58 c 0
 229 65 234 74 235 99 c 2
 237 148 l 2
 238 163 236 169 228 169 c 0
 225 169 219 168 208 164 c 0
 137 138 114 110 114 87 c 0
 114 52 139 34 163 34 c 0
EndSplineSet
Validated: 33
EndChar
StartChar: atilde
Encoding: 227 227 84
Width: 419
GlyphClass: 2
Flags: W
TeX: 605 14
TopAccentHorizontal: 205
HStem: -14 48<96 195.414 309.435 368.606> 365 49<150.283 250> 458 21G<78 85> 492 66<154.363 290.992> 500 67<126.209 261.188>
VStem: 34 78<42.5666 125.471 280.17 320.237> 235 68<58.3296 168.996 199.884 353.979>
LayerCount: 2
Fore
SplineSet
83 458 m 0xee
 73 458 67 463 67 473 c 0
 67 483 136 567 161 567 c 0xee
 183 567 193 564 212 562 c 0
 234 560 250 558 268 558 c 0
 283 558 297 567 307 577 c 0
 321 591 331 605 335 605 c 0
 345 605 354 598 354 588 c 0
 354 584 346 576 332 562 c 0
 316 547 298 522 285 506 c 0
 277 496 260 492 256 492 c 0xf6
 240 492 181 500 145 500 c 0
 131 500 117 488 106 478 c 0
 97 470 87 458 83 458 c 0xee
114 -14 m 0
 78 -14 34 35 34 72 c 0
 34 114 56 135 105 155 c 2
 207 197 l 2
 233 208 234 210 235 237 c 2
 237 301 l 2
 238 336 216 365 178 365 c 0
 158 365 136 358 123 347 c 0
 115 341 113 330 113 318 c 2
 114 300 l 2
 114 290 68 265 48 265 c 0
 41 265 37 269 37 274 c 0
 37 295 52 321 77 343 c 0
 122 384 186 414 226 414 c 0
 274 414 309 376 308 325 c 2
 303 85 l 2
 302 57 317 38 339 38 c 0
 356 38 367 41 376 49 c 0
 380 53 382 54 384 54 c 0
 390 54 395 49 395 43 c 0
 395 37 390 27 384 21 c 0
 363 0 336 -14 315 -14 c 0
 284 -14 260 3 242 38 c 1
 239 38 l 1
 195 2 157 -14 114 -14 c 0
161 34 m 0
 187 34 205 43 220 58 c 0
 227 65 232 74 233 99 c 2
 235 148 l 2
 236 163 234 169 226 169 c 0
 223 169 217 168 206 164 c 0
 135 138 112 110 112 87 c 0
 112 52 137 34 161 34 c 0
EndSplineSet
Validated: 33
EndChar
StartChar: adieresis
Encoding: 228 228 164
Width: 523
GlyphClass: 2
Flags: MW
TeX: 608 14
TopAccentHorizontal: 250
LayerCount: 2
Fore
SplineSet
162 508 m 0
 137 508 112 533 112 558 c 0
 112 583 137 608 162 608 c 0
 187 608 212 583 212 558 c 0
 212 533 187 508 162 508 c 0
339 508 m 0
 314 508 289 533 289 558 c 0
 289 583 314 608 339 608 c 0
 364 608 389 583 389 558 c 0
 389 533 364 508 339 508 c 0
166 -14 m 0
 130 -14 86 35 86 72 c 0
 86 114 108 135 157 155 c 2
 259 197 l 2
 285 208 286 210 287 237 c 2
 289 301 l 2
 290 336 268 365 230 365 c 0
 210 365 188 358 175 347 c 0
 167 341 165 330 165 318 c 2
 166 300 l 2
 166 290 120 265 100 265 c 0
 93 265 89 269 89 274 c 0
 89 295 104 321 129 343 c 0
 174 384 238 414 278 414 c 0
 326 414 361 376 360 325 c 2
 355 85 l 2
 354 57 369 38 391 38 c 0
 408 38 419 41 428 49 c 0
 432 53 434 54 436 54 c 0
 442 54 447 49 447 43 c 0
 447 37 442 27 436 21 c 0
 415 0 388 -14 367 -14 c 0
 336 -14 312 3 294 38 c 1
 291 38 l 1
 247 2 209 -14 166 -14 c 0
213 34 m 0
 239 34 257 43 272 58 c 0
 279 65 284 74 285 99 c 2
 287 148 l 2
 288 163 286 169 278 169 c 0
 275 169 269 168 258 164 c 0
 187 138 164 110 164 87 c 0
 164 52 189 34 213 34 c 0
EndSplineSet
Validated: 33
EndChar
StartChar: aring
Encoding: 229 229 4062
Width: 484
TopAccentHorizontal: 242
GlyphClass: 2
Flags: MW
TeX: 647 14
LayerCount: 2
Fore
SplineSet
239 480 m 0
 195 480 158 519 158 563 c 0
 158 607 201 647 245 647 c 0
 289 647 326 613 326 569 c 0
 326 517 283 480 239 480 c 0
246 506 m 0
 276 506 285 530 285 562 c 0
 285 590 264 620 236 620 c 0
 208 620 199 596 199 568 c 0
 199 535 218 506 246 506 c 0
158 -14 m 0
 122 -14 78 35 78 72 c 0
 78 114 100 135 149 155 c 2
 251 197 l 2
 277 208 278 210 279 237 c 2
 281 301 l 2
 282 336 260 365 222 365 c 0
 202 365 180 358 167 347 c 0
 159 341 157 330 157 318 c 2
 158 300 l 2
 158 290 112 265 92 265 c 0
 85 265 81 269 81 274 c 0
 81 295 96 321 121 343 c 0
 166 384 230 414 270 414 c 0
 318 414 353 376 352 325 c 2
 347 85 l 2
 346 57 361 38 383 38 c 0
 400 38 411 41 420 49 c 0
 424 53 426 54 428 54 c 0
 434 54 439 49 439 43 c 0
 439 37 434 27 428 21 c 0
 407 0 380 -14 359 -14 c 0
 328 -14 304 3 286 38 c 1
 283 38 l 1
 239 2 201 -14 158 -14 c 0
205 34 m 0
 231 34 249 43 264 58 c 0
 271 65 276 74 277 99 c 2
 279 148 l 2
 280 163 278 169 270 169 c 0
 267 169 261 168 250 164 c 0
 179 138 156 110 156 87 c 0
 156 52 181 34 205 34 c 0
EndSplineSet
Validated: 33
EndChar
StartChar: ae
Encoding: 230 230 87
Width: 628
TopAccentHorizontal: 349
GlyphClass: 2
Flags: MW
TeX: 414 14
LayerCount: 2
Fore
SplineSet
154 -14 m 0
 113 -14 68 26 68 65 c 0
 68 107 92 133 141 155 c 2
 245 202 l 2
 271 214 274 217 274 233 c 2
 274 299 l 2
 274 334 251 365 214 365 c 0
 190 365 161 346 153 332 c 0
 150 327 149 320 149 313 c 0
 149 308 150 304 150 299 c 0
 150 285 94 264 81 264 c 0
 75 264 73 270 73 273 c 0
 73 294 88 320 113 342 c 0
 144 370 209 414 262 414 c 0
 282 414 317 395 325 381 c 0
 327 378 328 376 330 376 c 0
 331 376 334 378 337 380 c 0
 361 397 411 413 444 413 c 0
 496 413 561 383 561 318 c 0
 561 296 551 291 537 284 c 0
 524 277 387 218 353 203 c 0
 347 200 342 190 342 185 c 2
 342 129 l 2
 342 63 386 46 430 46 c 0
 470 46 509 57 541 94 c 0
 544 97 547 98 550 98 c 0
 557 98 563 93 563 87 c 0
 563 86 563 84 562 83 c 0
 518 19 475 -14 399 -14 c 0
 360 -14 321 0 290 26 c 0
 287 29 279 38 277 38 c 0
 275 38 272 37 269 34 c 0
 253 22 222 -13 154 -14 c 0
358 244 m 0
 407 264 466 284 485 292 c 0
 491 294 492 300 492 306 c 0
 492 344 461 378 418 378 c 0
 401 378 344 356 343 321 c 2
 343 254 l 2
 343 244 353 242 358 244 c 0
197 32 m 0
 223 32 243 45 259 59 c 0
 266 65 273 71 273 96 c 2
 273 148 l 2
 273 164 273 172 265 172 c 0
 262 172 257 171 250 169 c 0
 217 160 150 130 148 87 c 0
 148 49 178 32 197 32 c 0
EndSplineSet
Validated: 1
EndChar
StartChar: ccedilla
Encoding: 231 231 88
Width: 472
GlyphClass: 2
Flags: MW
TeX: 414 274
ItalicCorrection: 5
TopAccentHorizontal: 293
LayerCount: 2
Fore
SplineSet
408 93 m 0
 414 93 419 87 419 79 c 0
 419 71 414 61 404 48 c 0
 377 14 337 -7 289 -13 c 1
 267 -42 l 2
 264 -46 262 -49 262 -52 c 0
 262 -56 266 -60 273 -63 c 0
 305 -77 334 -106 334 -139 c 0
 334 -219 245 -274 209 -274 c 0
 188 -274 179 -264 179 -233 c 0
 179 -221 184 -214 192 -214 c 0
 202 -214 214 -225 245 -225 c 0
 271 -225 284 -206 284 -180 c 0
 284 -141 257 -123 225 -123 c 0
 212 -123 206 -129 199 -129 c 0
 192 -129 181 -123 181 -114 c 0
 181 -111 183 -107 186 -103 c 2
 256 -15 l 1
 157 -13 82 71 82 180 c 0
 82 310 176 414 293 414 c 0
 336 414 375 402 407 379 c 0
 415 373 419 367 419 360 c 0
 419 343 393 319 376 319 c 0
 369 319 363 324 355 330 c 0
 326 352 285 377 261 377 c 0
 196 377 151 310 151 212 c 0
 151 118 218 45 303 45 c 0
 342 45 366 56 398 88 c 0
 401 91 405 93 408 93 c 0
EndSplineSet
Validated: 1
EndChar
StartChar: egrave
Encoding: 232 232 89
Width: 404
GlyphClass: 2
Flags: W
TeX: 649 15
TopAccentHorizontal: 165
HStem: -15 61<188.086 313.389> 257 31<123.637 298.97> 385 29<175.117 272.964> 457 21G<255.5 261.5>
VStem: 44 64<133.835 256.062> 308 66<277.5 358.559>
LayerCount: 2
Fore
SplineSet
259 457 m 0
 252 457 242 464 228 478 c 0
 202 504 144 572 120 607 c 0
 114 616 110 620 110 628 c 0
 110 642 134 649 159 649 c 0
 169 649 180 641 186 631 c 0
 202 604 249 521 263 484 c 0
 266 476 267 470 267 466 c 0
 267 459 264 457 259 457 c 0
227 -15 m 0
 117 -15 44 72 44 203 c 0
 44 318 132 414 237 414 c 0
 317 414 374 362 374 288 c 0
 374 267 365 257 344 257 c 2
 133 257 l 2
 114 257 108 249 108 220 c 0
 108 124 177 46 262 46 c 0
 302 46 335 62 360 91 c 0
 365 98 367 99 371 99 c 0
 376 99 379 95 379 89 c 0
 379 76 373 62 361 47 c 0
 331 8 280 -15 227 -15 c 0
135 288 m 2
 226 288 l 2
 258 288 278 289 300 293 c 0
 306 294 308 301 308 315 c 0
 308 353 269 385 222 385 c 0
 176 385 123 338 123 298 c 0
 123 291 127 288 135 288 c 2
EndSplineSet
Validated: 1
EndChar
StartChar: eacute
Encoding: 233 233 4088
Width: 388
GlyphClass: 2
Flags: W
TeX: 649 15
TopAccentHorizontal: 289
HStem: -15 61<173.086 298.389> 257 31<108.637 283.97> 385 29<160.117 257.964> 457 21G<194.5 200.5>
VStem: 29 64<133.835 256.062> 293 66<277.5 358.559>
LayerCount: 2
Fore
SplineSet
197 457 m 0
 192 457 189 459 189 466 c 0
 189 470 190 476 193 484 c 0
 207 521 254 604 270 631 c 0
 276 641 287 649 297 649 c 0
 322 649 346 642 346 628 c 0
 346 620 342 616 336 607 c 0
 312 572 254 504 228 478 c 0
 214 464 204 457 197 457 c 0
212 -15 m 0
 102 -15 29 72 29 203 c 0
 29 318 117 414 222 414 c 0
 302 414 359 362 359 288 c 0
 359 267 350 257 329 257 c 2
 118 257 l 2
 99 257 93 249 93 220 c 0
 93 124 162 46 247 46 c 0
 287 46 320 62 345 91 c 0
 350 98 352 99 356 99 c 0
 361 99 364 95 364 89 c 0
 364 76 358 62 346 47 c 0
 316 8 265 -15 212 -15 c 0
120 288 m 2
 211 288 l 2
 243 288 263 289 285 293 c 0
 291 294 293 301 293 315 c 0
 293 353 254 385 207 385 c 0
 161 385 108 338 108 298 c 0
 108 291 112 288 120 288 c 2
EndSplineSet
Validated: 1
EndChar
StartChar: ecircumflex
Encoding: 234 234 3591
Width: 394
GlyphClass: 2
Flags: W
TeX: 648 15
TopAccentHorizontal: 226
HStem: -15 61<178.086 303.389> 257 31<113.637 288.97> 385 29<165.117 262.964> 455 21G<122.5 131 321 329.5>
VStem: 34 64<133.835 256.062> 298 66<277.5 358.559>
LayerCount: 2
Fore
SplineSet
226 648 m 0
 234 648 241 638 246 630 c 0
 266 599 334 481 334 468 c 0
 334 459 334 455 325 455 c 0
 317 455 304 468 296 477 c 0
 283 492 252 532 230 562 c 0
 227 566 226 566 223 562 c 0
 201 532 170 492 157 477 c 0
 149 468 135 455 127 455 c 0
 118 455 118 459 118 468 c 0
 118 481 186 599 206 630 c 0
 211 638 218 648 226 648 c 0
217 -15 m 0
 107 -15 34 72 34 203 c 0
 34 318 122 414 227 414 c 0
 307 414 364 362 364 288 c 0
 364 267 355 257 334 257 c 2
 123 257 l 2
 104 257 98 249 98 220 c 0
 98 124 167 46 252 46 c 0
 292 46 325 62 350 91 c 0
 355 98 357 99 361 99 c 0
 366 99 369 95 369 89 c 0
 369 76 363 62 351 47 c 0
 321 8 270 -15 217 -15 c 0
125 288 m 2
 216 288 l 2
 248 288 268 289 290 293 c 0
 296 294 298 301 298 315 c 0
 298 353 259 385 212 385 c 0
 166 385 113 338 113 298 c 0
 113 291 117 288 125 288 c 2
EndSplineSet
Validated: 1
EndChar
StartChar: edieresis
Encoding: 235 235 92
Width: 489
TopAccentHorizontal: 267
GlyphClass: 2
Flags: MW
TeX: 608 15
LayerCount: 2
Fore
SplineSet
179 508 m 0
 154 508 129 533 129 558 c 0
 129 583 154 608 179 608 c 0
 204 608 229 583 229 558 c 0
 229 533 204 508 179 508 c 0
356 508 m 0
 331 508 306 533 306 558 c 0
 306 583 331 608 356 608 c 0
 381 608 406 583 406 558 c 0
 406 533 381 508 356 508 c 0
258 -15 m 0
 148 -15 75 72 75 203 c 0
 75 318 163 414 268 414 c 0
 348 414 405 362 405 288 c 0
 405 267 396 257 375 257 c 2
 164 257 l 2
 145 257 139 249 139 220 c 0
 139 124 208 46 293 46 c 0
 333 46 366 62 391 91 c 0
 396 98 398 99 402 99 c 0
 407 99 410 95 410 89 c 0
 410 76 404 62 392 47 c 0
 362 8 311 -15 258 -15 c 0
166 288 m 2
 257 288 l 2
 289 288 309 289 331 293 c 0
 337 294 339 301 339 315 c 0
 339 353 300 385 253 385 c 0
 207 385 154 338 154 298 c 0
 154 291 158 288 166 288 c 2
EndSplineSet
Validated: 1
EndChar
StartChar: igrave
Encoding: 236 236 93
Width: 278
GlyphClass: 2
Flags: W
TeX: 649 3
TopAccentHorizontal: 73
HStem: -3 27<51.3057 106.669 198.375 252.674> 457 21G<170.5 176.5>
VStem: 117 70<31.0813 341.886>
LayerCount: 2
Fore
SplineSet
174 457 m 0
 167 457 157 464 143 478 c 0
 117 504 59 572 35 607 c 0
 29 616 25 620 25 628 c 0
 25 642 49 649 74 649 c 0
 84 649 95 641 101 631 c 0
 117 604 164 521 178 484 c 0
 181 476 182 470 182 466 c 0
 182 459 179 457 174 457 c 0
71 -3 m 0
 59 -3 51 0 51 8 c 0
 51 18 63 21 74 24 c 0
 102 31 117 38 117 62 c 2
 117 279 l 2
 117 315 106 347 72 352 c 0
 65 353 62 357 62 365 c 0
 62 372 65 376 71 377 c 0
 124 389 159 413 176 427 c 0
 181 431 186 434 190 434 c 0
 194 434 196 432 196 429 c 0
 196 413 187 339 187 294 c 2
 187 62 l 2
 187 39 203 31 230 24 c 0
 241 21 253 18 253 8 c 0
 253 0 246 -3 233 -3 c 0
 195 -3 187 2 152 2 c 0
 117 2 110 -3 71 -3 c 0
EndSplineSet
Validated: 1
EndChar
StartChar: iacute
Encoding: 237 237 94
Width: 256
GlyphClass: 2
Flags: W
TeX: 649 3
ItalicCorrection: 20
TopAccentHorizontal: 204
HStem: -3 27<27.3057 82.6694 174.375 228.674> 457 21G<100.5 106.5>
VStem: 93 70<31.0813 341.886>
LayerCount: 2
Fore
SplineSet
103 457 m 0
 98 457 95 459 95 466 c 0
 95 470 96 476 99 484 c 0
 113 521 160 604 176 631 c 0
 182 641 193 649 203 649 c 0
 228 649 252 642 252 628 c 0
 252 620 248 616 242 607 c 0
 218 572 160 504 134 478 c 0
 120 464 110 457 103 457 c 0
47 -3 m 0
 35 -3 27 0 27 8 c 0
 27 18 39 21 50 24 c 0
 78 31 93 38 93 62 c 2
 93 279 l 2
 93 315 82 347 48 352 c 0
 41 353 38 357 38 365 c 0
 38 372 41 376 47 377 c 0
 100 389 135 413 152 427 c 0
 157 431 162 434 166 434 c 0
 170 434 172 432 172 429 c 0
 172 413 163 339 163 294 c 2
 163 62 l 2
 163 39 179 31 206 24 c 0
 217 21 229 18 229 8 c 0
 229 0 222 -3 209 -3 c 0
 171 -3 163 2 128 2 c 0
 93 2 86 -3 47 -3 c 0
EndSplineSet
Validated: 1
EndChar
StartChar: icircumflex
Encoding: 238 238 95
Width: 262
GlyphClass: 2
Flags: W
TeX: 648 3
ItalicCorrection: 4
TopAccentHorizontal: 134
HStem: -3 27<34.3057 89.6694 181.375 235.674> 455 21G<30.5 39 229 237.5>
VStem: 100 70<31.0813 341.886>
LayerCount: 2
Fore
SplineSet
134 648 m 0
 142 648 149 638 154 630 c 0
 174 599 242 481 242 468 c 0
 242 459 242 455 233 455 c 0
 225 455 212 468 204 477 c 0
 191 492 160 532 138 562 c 0
 135 566 134 566 131 562 c 0
 109 532 78 492 65 477 c 0
 57 468 43 455 35 455 c 0
 26 455 26 459 26 468 c 0
 26 481 94 599 114 630 c 0
 119 638 126 648 134 648 c 0
54 -3 m 0
 42 -3 34 0 34 8 c 0
 34 18 46 21 57 24 c 0
 85 31 100 38 100 62 c 2
 100 279 l 2
 100 315 89 347 55 352 c 0
 48 353 45 357 45 365 c 0
 45 372 48 376 54 377 c 0
 107 389 142 413 159 427 c 0
 164 431 169 434 173 434 c 0
 177 434 179 432 179 429 c 0
 179 413 170 339 170 294 c 2
 170 62 l 2
 170 39 186 31 213 24 c 0
 224 21 236 18 236 8 c 0
 236 0 229 -3 216 -3 c 0
 178 -3 170 2 135 2 c 0
 100 2 93 -3 54 -3 c 0
EndSplineSet
Validated: 1
EndChar
StartChar: idieresis
Encoding: 239 239 96
Width: 295
GlyphClass: 2
Flags: W
TeX: 608 3
ItalicCorrection: 32
TopAccentHorizontal: 164
HStem: -3 27<64.3057 119.669 211.375 265.674> 508 100<36.7018 115.298 213.702 292.298>
VStem: 26 100<518.702 597.298> 130 70<31.0813 341.886> 203 100<518.702 597.298>
LayerCount: 2
Fore
SplineSet
76 508 m 0
 51 508 26 533 26 558 c 0
 26 583 51 608 76 608 c 0
 101 608 126 583 126 558 c 0
 126 533 101 508 76 508 c 0
253 508 m 0
 228 508 203 533 203 558 c 0
 203 583 228 608 253 608 c 0
 278 608 303 583 303 558 c 0
 303 533 278 508 253 508 c 0
84 -3 m 0
 72 -3 64 0 64 8 c 0
 64 18 76 21 87 24 c 0
 115 31 130 38 130 62 c 2
 130 279 l 2
 130 315 119 347 85 352 c 0
 78 353 75 357 75 365 c 0
 75 372 78 376 84 377 c 0
 137 389 172 413 189 427 c 0
 194 431 199 434 203 434 c 0
 207 434 209 432 209 429 c 0
 209 413 200 339 200 294 c 2
 200 62 l 2
 200 39 216 31 243 24 c 0
 254 21 266 18 266 8 c 0
 266 0 259 -3 246 -3 c 0
 208 -3 200 2 165 2 c 0
 130 2 123 -3 84 -3 c 0
EndSplineSet
Validated: 1
EndChar
StartChar: eth
Encoding: 240 240 4084
Width: 505
TopAccentHorizontal: 316
GlyphClass: 2
Flags: MW
TeX: 705 14
LayerCount: 2
Fore
SplineSet
236 -14 m 0
 124 -14 30 66 30 186 c 0
 30 310 138 414 261 414 c 0
 293 414 320 406 348 391 c 0
 357 387 358 390 356 400 c 0
 340 459 318 516 288 552 c 1
 133 472 l 2
 125 468 119 475 119 480 c 0
 119 489 119 511 127 515 c 2
 259 584 l 1
 204 636 139 667 89 678 c 0
 81 680 69 683 69 693 c 0
 69 702 81 705 95 705 c 0
 156 705 241 671 314 612 c 1
 415 665 l 2
 423 670 440 674 440 664 c 0
 440 646 438 630 422 622 c 2
 347 583 l 1
 404 522 461 427 461 250 c 0
 461 133 386 -14 236 -14 c 0
257 16 m 0
 327 16 383 111 383 219 c 0
 383 265 374 304 350 329 c 0
 322 359 282 380 241 380 c 0
 156 380 113 293 113 210 c 0
 113 111 177 16 257 16 c 0
EndSplineSet
Validated: 1
EndChar
StartChar: ntilde
Encoding: 241 241 98
Width: 536
GlyphClass: 2
Flags: W
TeX: 605 3
TopAccentHorizontal: 266
HStem: -3 27<30.2101 84.9702 177.03 231.668 310.056 363.97 456.03 510.003> 366 48<234.999 344.812> 458 21G<143 150> 492 66<219.363 355.992> 500 67<191.209 326.188>
VStem: 96 70<30.7063 325.762> 375 70<31.1488 335.799>
LayerCount: 2
Fore
SplineSet
148 458 m 0xee
 138 458 132 463 132 473 c 0
 132 483 201 567 226 567 c 0xee
 248 567 258 564 277 562 c 0
 299 560 315 558 333 558 c 0
 348 558 362 567 372 577 c 0
 386 591 396 605 400 605 c 0
 410 605 419 598 419 588 c 0
 419 584 411 576 397 562 c 0
 381 547 363 522 350 506 c 0
 342 496 325 492 321 492 c 0xf6
 305 492 246 500 210 500 c 0
 196 500 182 488 171 478 c 0
 162 470 152 458 148 458 c 0xee
50 -3 m 0
 38 -3 30 0 30 8 c 0
 30 18 38 20 53 24 c 0
 73 29 96 35 96 62 c 2
 96 277 l 2
 96 313 93 340 59 349 c 0
 53 351 49 354 49 362 c 0
 49 369 52 373 58 374 c 0
 104 386 130 404 158 425 c 0
 162 428 165 430 169 430 c 0
 172 430 174 427 174 423 c 0
 174 414 169 378 169 359 c 0
 169 353 170 348 171 347 c 0
 218 392 269 414 332 414 c 0
 397 414 445 353 445 275 c 2
 445 62 l 2
 445 35 468 30 488 24 c 0
 499 20 511 16 511 6 c 0
 511 -2 499 -3 491 -3 c 0
 451 -3 446 2 411 2 c 0
 376 2 369 -3 329 -3 c 0
 322 -3 309 -2 309 6 c 0
 309 16 321 20 332 24 c 0
 352 30 375 35 375 62 c 2
 375 272 l 2
 375 330 339 365 285 366 c 0
 237 366 202 349 174 326 c 0
 169 321 166 311 166 303 c 2
 166 62 l 2
 166 35 189 29 209 24 c 0
 225 20 232 16 232 8 c 0
 232 0 225 -3 212 -3 c 0
 172 -3 166 2 131 2 c 0
 96 2 90 -3 50 -3 c 0
EndSplineSet
Validated: 1
EndChar
StartChar: ograve
Encoding: 242 242 4069
Width: 561
TopAccentHorizontal: 222
GlyphClass: 2
Flags: MW
TeX: 649 14
LayerCount: 2
Fore
SplineSet
311 457 m 0
 304 457 294 464 280 478 c 0
 254 504 196 572 172 607 c 0
 166 616 162 620 162 628 c 0
 162 642 186 649 211 649 c 0
 221 649 232 641 238 631 c 0
 254 604 301 521 315 484 c 0
 318 476 319 470 319 466 c 0
 319 459 316 457 311 457 c 0
268 -14 m 0
 156 -14 69 70 69 187 c 0
 69 298 165 414 288 414 c 0
 404 414 494 321 494 213 c 0
 494 96 418 -14 268 -14 c 0
289 16 m 0
 334 16 372 32 392 71 c 0
 408 102 412 150 412 189 c 0
 412 284 356 383 271 383 c 0
 235 383 207 374 183 343 c 0
 156 309 151 258 151 210 c 0
 151 111 209 16 289 16 c 0
EndSplineSet
Validated: 1
EndChar
StartChar: oacute
Encoding: 243 243 100
Width: 483
GlyphClass: 2
Flags: W
TeX: 649 14
TopAccentHorizontal: 308
HStem: -14 30<193.025 307.686> 383 31<167.889 281.342> 457 21G<217.5 223.5>
VStem: 25 82<109.934 279.37> 368 82<111.572 289.08>
LayerCount: 2
Fore
SplineSet
220 457 m 0
 215 457 212 459 212 466 c 0
 212 470 213 476 216 484 c 0
 230 521 277 604 293 631 c 0
 299 641 310 649 320 649 c 0
 345 649 369 642 369 628 c 0
 369 620 365 616 359 607 c 0
 335 572 277 504 251 478 c 0
 237 464 227 457 220 457 c 0
224 -14 m 0
 112 -14 25 70 25 187 c 0
 25 298 121 414 244 414 c 0
 360 414 450 321 450 213 c 0
 450 96 374 -14 224 -14 c 0
245 16 m 0
 290 16 328 32 348 71 c 0
 364 102 368 150 368 189 c 0
 368 284 312 383 227 383 c 0
 191 383 163 374 139 343 c 0
 112 309 107 258 107 210 c 0
 107 111 165 16 245 16 c 0
EndSplineSet
Validated: 1
EndChar
StartChar: ocircumflex
Encoding: 244 244 101
Width: 476
GlyphClass: 2
Flags: W
TeX: 648 14
TopAccentHorizontal: 243
HStem: -14 30<193.025 307.686> 383 31<167.889 281.342> 455 21G<140.5 149 339 347.5>
VStem: 25 82<109.934 279.37> 368 82<111.572 289.08>
LayerCount: 2
Fore
SplineSet
244 648 m 0
 252 648 259 638 264 630 c 0
 284 599 352 481 352 468 c 0
 352 459 352 455 343 455 c 0
 335 455 322 468 314 477 c 0
 301 492 270 532 248 562 c 0
 245 566 244 566 241 562 c 0
 219 532 188 492 175 477 c 0
 167 468 153 455 145 455 c 0
 136 455 136 459 136 468 c 0
 136 481 204 599 224 630 c 0
 229 638 236 648 244 648 c 0
224 -14 m 0
 112 -14 25 70 25 187 c 0
 25 298 121 414 244 414 c 0
 360 414 450 321 450 213 c 0
 450 96 374 -14 224 -14 c 0
245 16 m 0
 290 16 328 32 348 71 c 0
 364 102 368 150 368 189 c 0
 368 284 312 383 227 383 c 0
 191 383 163 374 139 343 c 0
 112 309 107 258 107 210 c 0
 107 111 165 16 245 16 c 0
EndSplineSet
Validated: 1
EndChar
StartChar: otilde
Encoding: 245 245 102
Width: 557
GlyphClass: 2
Flags: MW
TeX: 605 14
TopAccentHorizontal: 275
LayerCount: 2
Fore
SplineSet
154 458 m 0
 144 458 138 463 138 473 c 0
 138 483 207 567 232 567 c 0
 254 567 264 564 283 562 c 0
 305 560 321 558 339 558 c 0
 354 558 368 567 378 577 c 0
 392 591 402 605 406 605 c 0
 416 605 425 598 425 588 c 0
 425 584 417 576 403 562 c 0
 387 547 369 522 356 506 c 0
 348 496 331 492 327 492 c 0
 311 492 252 500 216 500 c 0
 202 500 188 488 177 478 c 0
 168 470 158 458 154 458 c 0
263 -14 m 0
 151 -14 64 70 64 187 c 0
 64 298 160 414 283 414 c 0
 399 414 489 321 489 213 c 0
 489 96 413 -14 263 -14 c 0
284 16 m 0
 329 16 367 32 387 71 c 0
 403 102 407 150 407 189 c 0
 407 284 351 383 266 383 c 0
 230 383 202 374 178 343 c 0
 151 309 146 258 146 210 c 0
 146 111 204 16 284 16 c 0
EndSplineSet
Validated: 1
EndChar
StartChar: odieresis
Encoding: 246 246 182
Width: 446
GlyphClass: 2
Flags: MW
TeX: 608 14
ItalicCorrection: 48
TopAccentHorizontal: 254
LayerCount: 2
Fore
SplineSet
166 508 m 0
 141 508 116 533 116 558 c 0
 116 583 141 608 166 608 c 0
 191 608 216 583 216 558 c 0
 216 533 191 508 166 508 c 0
343 508 m 0
 318 508 293 533 293 558 c 0
 293 583 318 608 343 608 c 0
 368 608 393 583 393 558 c 0
 393 533 368 508 343 508 c 0
234 -14 m 0
 122 -14 35 70 35 187 c 0
 35 298 131 414 254 414 c 0
 370 414 460 321 460 213 c 0
 460 96 384 -14 234 -14 c 0
255 16 m 0
 300 16 338 32 358 71 c 0
 374 102 378 150 378 189 c 0
 378 284 322 383 237 383 c 0
 201 383 173 374 149 343 c 0
 122 309 117 258 117 210 c 0
 117 111 175 16 255 16 c 0
EndSplineSet
EndChar
StartChar: divide
Encoding: 247 247 183
Width: 553
Flags: HMW
LayerCount: 2
Fore
SplineSet
273 352 m 0
 248 352 226 373 226 399 c 0
 226 425 248 446 273 446 c 0
 299 446 320 425 320 399 c 0
 320 373 299 352 273 352 c 0
64 231 m 2
 57 231 50 236 50 241 c 0
 50 249 53 282 73 282 c 2
 491 282 l 2
 496 282 503 277 503 272 c 0
 503 253 491 231 473 231 c 2
 64 231 l 2
274 67 m 0
 249 67 227 88 227 114 c 0
 227 140 249 161 274 161 c 0
 300 161 321 140 321 114 c 0
 321 88 300 67 274 67 c 0
EndSplineSet
EndChar
StartChar: oslash
Encoding: 248 248 105
Width: 494
GlyphClass: 2
Flags: MW
TeX: 415 15
ItalicCorrection: 3
TopAccentHorizontal: 292
LayerCount: 2
Fore
SplineSet
456 374 m 2
 419 338 l 1
 447 303 464 259 464 213 c 0
 464 96 388 -14 238 -14 c 0
 187 -14 142 3 107 33 c 1
 61 -12 l 2
 59 -14 57 -15 54 -15 c 0
 42 -15 30 -4 30 5 c 0
 30 12 34 20 40 25 c 2
 79 63 l 1
 54 96 39 139 39 187 c 0
 39 298 135 414 258 414 c 0
 310 414 357 395 393 364 c 1
 442 411 l 2
 445 414 449 415 453 415 c 0
 463 415 467 408 467 400 c 0
 467 391 463 380 456 374 c 2
121 210 m 0
 121 178 127 147 138 119 c 1
 346 318 l 1
 321 357 285 383 241 383 c 0
 205 383 177 374 153 343 c 0
 126 309 121 258 121 210 c 0
382 189 m 0
 382 221 375 254 363 284 c 1
 156 81 l 1
 181 42 217 16 259 16 c 0
 304 16 342 32 362 71 c 0
 378 102 382 150 382 189 c 0
EndSplineSet
Validated: 1
EndChar
StartChar: ugrave
Encoding: 249 249 3446
Width: 551
GlyphClass: 2
Flags: W
TeX: 649 19
TopAccentHorizontal: 200
HStem: -19 56<195.992 294.45> 21 27<465.48 525.994> 365 32<289.029 359.896> 457 21G<280.5 286.5>
VStem: 94 70<71.1627 353.726> 377 70<45.8513 57 77.7796 352.364>
LayerCount: 2
Fore
SplineSet
284 457 m 0x3c
 277 457 267 464 253 478 c 0
 227 504 169 572 145 607 c 0
 139 616 135 620 135 628 c 0
 135 642 159 649 184 649 c 0
 194 649 205 641 211 631 c 0
 227 604 274 521 288 484 c 0
 291 476 292 470 292 466 c 0
 292 459 289 457 284 457 c 0x3c
375 -19 m 0xbc
 370 -19 368 -16 368 -11 c 0
 368 2 373 34 373 51 c 2
 373 57 l 1
 321 6 270 -14 208 -14 c 0
 143 -14 94 27 94 105 c 2
 94 308 l 2
 94 337 81 353 51 365 c 0
 44 367 38 370 38 381 c 0
 38 393 45 396 53 397 c 0
 98 400 115 404 152 413 c 0
 156 414 157 414 160 414 c 0
 166 414 171 411 170 400 c 0
 166 369 164 353 164 323 c 2
 164 128 l 2
 164 80 205 37 248 37 c 0xbc
 282 37 307 38 332 57 c 0
 347 68 377 91 377 132 c 2
 377 315 l 2
 377 356 330 365 310 365 c 0
 298 365 289 368 289 382 c 0
 289 394 299 397 310 397 c 0
 371 398 397 403 433 413 c 0
 436 414 440 415 443 415 c 0
 450 415 456 411 456 404 c 0
 456 402 455 399 454 395 c 0
 452 388 447 342 447 326 c 2
 447 95 l 2
 447 59 455 45 465 45 c 0
 475 45 501 48 511 48 c 0
 518 48 526 47 526 35 c 0
 526 24 520 22 512 21 c 0x7c
 460 14 424 -1 395 -13 c 0
 391 -15 381 -19 375 -19 c 0xbc
EndSplineSet
Validated: 1
EndChar
StartChar: uacute
Encoding: 250 250 3442
Width: 606
GlyphClass: 2
Flags: MW
TeX: 649 19
TopAccentHorizontal: 351
LayerCount: 2
Fore
SplineSet
267 457 m 0
 262 457 259 459 259 466 c 0
 259 470 260 476 263 484 c 0
 277 521 324 604 340 631 c 0
 346 641 357 649 367 649 c 0
 392 649 416 642 416 628 c 0
 416 620 412 616 406 607 c 0
 382 572 324 504 298 478 c 0
 284 464 274 457 267 457 c 0
405 -19 m 0
 400 -19 398 -16 398 -11 c 0
 398 2 403 34 403 51 c 2
 403 57 l 1
 351 6 300 -14 238 -14 c 0
 173 -14 124 27 124 105 c 2
 124 308 l 2
 124 337 111 353 81 365 c 0
 74 367 68 370 68 381 c 0
 68 393 75 396 83 397 c 0
 128 400 145 404 182 413 c 0
 186 414 187 414 190 414 c 0
 196 414 201 411 200 400 c 0
 196 369 194 353 194 323 c 2
 194 128 l 2
 194 80 235 37 278 37 c 0
 312 37 337 38 362 57 c 0
 377 68 407 91 407 132 c 2
 407 315 l 2
 407 356 360 365 340 365 c 0
 328 365 319 368 319 382 c 0
 319 394 329 397 340 397 c 0
 401 398 427 403 463 413 c 0
 466 414 470 415 473 415 c 0
 480 415 486 411 486 404 c 0
 486 402 485 399 484 395 c 0
 482 388 477 342 477 326 c 2
 477 95 l 2
 477 59 485 45 495 45 c 0
 505 45 531 48 541 48 c 0
 548 48 556 47 556 35 c 0
 556 24 550 22 542 21 c 0
 490 14 454 -1 425 -13 c 0
 421 -15 411 -19 405 -19 c 0
EndSplineSet
Validated: 1
EndChar
StartChar: ucircumflex
Encoding: 251 251 3443
Width: 553
TopAccentHorizontal: 258
GlyphClass: 2
Flags: MW
TeX: 648 19
LayerCount: 2
Fore
SplineSet
258 648 m 0
 266 648 273 638 278 630 c 0
 298 599 366 481 366 468 c 0
 366 459 366 455 357 455 c 0
 349 455 336 468 328 477 c 0
 315 492 284 532 262 562 c 0
 259 566 258 566 255 562 c 0
 233 532 202 492 189 477 c 0
 181 468 167 455 159 455 c 0
 150 455 150 459 150 468 c 0
 150 481 218 599 238 630 c 0
 243 638 250 648 258 648 c 0
372 -19 m 0
 367 -19 365 -16 365 -11 c 0
 365 2 370 34 370 51 c 2
 370 57 l 1
 318 6 267 -14 205 -14 c 0
 140 -14 91 27 91 105 c 2
 91 308 l 2
 91 337 78 353 48 365 c 0
 41 367 35 370 35 381 c 0
 35 393 42 396 50 397 c 0
 95 400 112 404 149 413 c 0
 153 414 154 414 157 414 c 0
 163 414 168 411 167 400 c 0
 163 369 161 353 161 323 c 2
 161 128 l 2
 161 80 202 37 245 37 c 0
 279 37 304 38 329 57 c 0
 344 68 374 91 374 132 c 2
 374 315 l 2
 374 356 327 365 307 365 c 0
 295 365 286 368 286 382 c 0
 286 394 296 397 307 397 c 0
 368 398 394 403 430 413 c 0
 433 414 437 415 440 415 c 0
 447 415 453 411 453 404 c 0
 453 402 452 399 451 395 c 0
 449 388 444 342 444 326 c 2
 444 95 l 2
 444 59 452 45 462 45 c 0
 472 45 498 48 508 48 c 0
 515 48 523 47 523 35 c 0
 523 24 517 22 509 21 c 0
 457 14 421 -1 392 -13 c 0
 388 -15 378 -19 372 -19 c 0
EndSplineSet
Validated: 1
EndChar
StartChar: udieresis
Encoding: 252 252 3445
Width: 545
GlyphClass: 2
Flags: W
TeX: 608 19
TopAccentHorizontal: 256
HStem: -19 56<189.992 288.45> 21 27<459.48 519.994> 365 32<283.029 353.896> 508 100<127.702 206.298 304.702 383.298>
VStem: 88 70<71.1627 353.726> 117 100<518.702 597.298> 294 100<518.702 597.298> 371 70<45.8513 57 77.7796 352.364>
LayerCount: 2
Fore
SplineSet
167 508 m 0x34
 142 508 117 533 117 558 c 0
 117 583 142 608 167 608 c 0
 192 608 217 583 217 558 c 0
 217 533 192 508 167 508 c 0x34
344 508 m 0
 319 508 294 533 294 558 c 0
 294 583 319 608 344 608 c 0
 369 608 394 583 394 558 c 0x32
 394 533 369 508 344 508 c 0
369 -19 m 0xb9
 364 -19 362 -16 362 -11 c 0
 362 2 367 34 367 51 c 2
 367 57 l 1
 315 6 264 -14 202 -14 c 0
 137 -14 88 27 88 105 c 2
 88 308 l 2
 88 337 75 353 45 365 c 0
 38 367 32 370 32 381 c 0
 32 393 39 396 47 397 c 0
 92 400 109 404 146 413 c 0
 150 414 151 414 154 414 c 0
 160 414 165 411 164 400 c 0
 160 369 158 353 158 323 c 2
 158 128 l 2
 158 80 199 37 242 37 c 0xb9
 276 37 301 38 326 57 c 0
 341 68 371 91 371 132 c 2
 371 315 l 2
 371 356 324 365 304 365 c 0
 292 365 283 368 283 382 c 0
 283 394 293 397 304 397 c 0
 365 398 391 403 427 413 c 0
 430 414 434 415 437 415 c 0
 444 415 450 411 450 404 c 0
 450 402 449 399 448 395 c 0
 446 388 441 342 441 326 c 2
 441 95 l 2
 441 59 449 45 459 45 c 0
 469 45 495 48 505 48 c 0
 512 48 520 47 520 35 c 0
 520 24 514 22 506 21 c 0x79
 454 14 418 -1 389 -13 c 0
 385 -15 375 -19 369 -19 c 0xb9
EndSplineSet
Validated: 1
EndChar
StartChar: yacute
Encoding: 253 253 3467
Width: 447
GlyphClass: 2
Flags: W
TeX: 649 285
ItalicCorrection: 61
TopAccentHorizontal: 348
HStem: -285 86<58.5102 155.448> 378 27<47.0556 90.8994 193.137 234.546 440.046 482.944> 457 21G<256.5 262.5>
VStem: 54 116<-271.156 -206.881> 363 121<327 400>
LayerCount: 2
Fore
SplineSet
259 457 m 0
 254 457 251 459 251 466 c 0
 251 470 252 476 255 484 c 0
 269 521 316 604 332 631 c 0
 338 641 349 649 359 649 c 0
 384 649 408 642 408 628 c 0
 408 620 404 616 398 607 c 0
 374 572 316 504 290 478 c 0
 276 464 266 457 259 457 c 0
105 -285 m 0
 79 -285 54 -274 54 -244 c 0
 54 -220 66 -199 87 -199 c 0
 102 -199 116 -205 127 -205 c 0
 135 -205 141 -202 146 -194 c 0
 168 -159 202 -93 231 -16 c 0
 233 -10 234 -2 234 7 c 0
 234 18 233 28 230 36 c 2
 114 329 l 2
 104 353 89 372 69 378 c 0
 58 382 46 386 46 396 c 0
 46 404 59 405 66 405 c 0
 106 405 104 400 139 400 c 0
 174 400 175 405 215 405 c 0
 223 405 235 402 235 394 c 0
 235 384 217 375 206 372 c 0
 192 368 186 359 186 340 c 0
 186 332 191 319 194 312 c 2
 275 112 l 2
 276 109 278 106 281 106 c 0
 283 106 285 109 286 112 c 2
 355 295 l 2
 359 304 363 322 363 332 c 0
 363 357 355 365 343 370 c 0
 332 375 314 384 314 394 c 0
 314 402 327 405 334 405 c 0
 352 405 368 400 405 400 c 0
 442 400 442 405 464 405 c 0
 471 405 484 404 484 396 c 0
 484 386 472 382 461 378 c 0
 441 372 415 343 402 311 c 2
 266 -13 l 2
 262 -22 211 -148 170 -244 c 0
 158 -271 134 -285 105 -285 c 0
EndSplineSet
Validated: 1
EndChar
StartChar: thorn
Encoding: 254 254 3791
Width: 556
GlyphClass: 2
Flags: W
TeX: 705 285
TopAccentHorizontal: 161
HStem: -285 27<66.9975 122.75 214.81 267.003> -14 31<242.371 369.672> 369 45<279.222 386.995>
VStem: 135 70<-249.996 17.9674 43.7392 338.399 348.056 626.571> 451 80<127.023 298.226>
LayerCount: 2
Fore
SplineSet
89 -285 m 0
 80 -285 66 -285 66 -276 c 0
 66 -266 78 -262 89 -258 c 0
 109 -252 135 -247 135 -219 c 2
 135 566 l 2
 135 599 122 632 89 639 c 0
 84 640 81 646 81 652 c 0
 81 658 84 663 88 664 c 0
 139 676 172 692 204 704 c 0
 205 704 205 705 206 705 c 0
 209 705 212 701 212 698 c 0
 212 686 206 652 205 562 c 2
 205 386 l 2
 205 363 206 349 207 348 c 1
 226 367 304 414 367 414 c 0
 470 414 531 319 531 225 c 0
 531 106 432 -14 306 -14 c 0
 278 -14 228 0 208 18 c 0
 205 18 205 -27 205 -33 c 2
 205 -219 l 2
 205 -247 225 -252 245 -258 c 0
 256 -262 268 -266 268 -276 c 0
 268 -285 254 -285 245 -285 c 0
 206 -285 202 -280 167 -280 c 0
 132 -280 128 -285 89 -285 c 0
321 17 m 0
 360 17 451 59 451 193 c 0
 451 347 358 369 315 369 c 0
 281 369 254 359 229 340 c 0
 214 329 205 310 205 269 c 2
 205 115 l 2
 205 96 209 60 228 42 c 0
 243 28 277 17 321 17 c 0
EndSplineSet
Validated: 1
EndChar
StartChar: ydieresis
Encoding: 255 255 3468
Width: 451
GlyphClass: 2
Flags: W
TeX: 608 285
ItalicCorrection: 61
TopAccentHorizontal: 288
HStem: -285 86<62.5102 159.448> 378 27<51.0556 94.8994 197.137 238.546 444.046 486.944> 508 100<159.702 238.298 336.702 415.298>
VStem: 58 116<-271.156 -206.881> 149 100<518.702 597.298> 326 100<518.702 597.298> 367 121<327 400>
LayerCount: 2
Fore
SplineSet
199 508 m 0xe8
 174 508 149 533 149 558 c 0
 149 583 174 608 199 608 c 0
 224 608 249 583 249 558 c 0
 249 533 224 508 199 508 c 0xe8
376 508 m 0
 351 508 326 533 326 558 c 0
 326 583 351 608 376 608 c 0
 401 608 426 583 426 558 c 0xe4
 426 533 401 508 376 508 c 0
109 -285 m 0
 83 -285 58 -274 58 -244 c 0
 58 -220 70 -199 91 -199 c 0
 106 -199 120 -205 131 -205 c 0
 139 -205 145 -202 150 -194 c 0
 172 -159 206 -93 235 -16 c 0
 237 -10 238 -2 238 7 c 0
 238 18 237 28 234 36 c 2
 118 329 l 2
 108 353 93 372 73 378 c 0
 62 382 50 386 50 396 c 0
 50 404 63 405 70 405 c 0
 110 405 108 400 143 400 c 0
 178 400 179 405 219 405 c 0
 227 405 239 402 239 394 c 0
 239 384 221 375 210 372 c 0
 196 368 190 359 190 340 c 0
 190 332 195 319 198 312 c 2
 279 112 l 2
 280 109 282 106 285 106 c 0
 287 106 289 109 290 112 c 2
 359 295 l 2
 363 304 367 322 367 332 c 0
 367 357 359 365 347 370 c 0
 336 375 318 384 318 394 c 0
 318 402 331 405 338 405 c 0
 356 405 372 400 409 400 c 0
 446 400 446 405 468 405 c 0
 475 405 488 404 488 396 c 0
 488 386 476 382 465 378 c 0
 445 372 419 343 406 311 c 2
 270 -13 l 2
 266 -22 215 -148 174 -244 c 0xf2
 162 -271 138 -285 109 -285 c 0
EndSplineSet
Validated: 1
EndChar
StartChar: Amacron
Encoding: 256 256 3472
Width: 763
GlyphClass: 2
Flags: W
TeX: 777 5
TopAccentHorizontal: 388
HStem: -5 36<26.4267 97.1888 222.015 293.525 422.098 502.898 639.158 721.277> 249 33<267.006 456.907> 723 54<247.625 539.251>
VStem: 25 178<4 93.5> 516 208<1 90.5>
LayerCount: 2
Fore
SplineSet
258 723 m 2
 251 723 244 729 244 735 c 0
 244 744 249 777 268 777 c 2
 531 777 l 2
 537 777 544 771 544 765 c 0
 544 745 529 723 513 723 c 2
 258 723 l 2
54 -5 m 0
 37 -5 25 0 25 8 c 0
 25 17 36 24 58 31 c 0
 92 41 122 58 144 108 c 0
 219 279 263 393 331 578 c 0
 338 597 343 615 345 636 c 1
 357 640 369 643 381 651 c 0
 393 659 396 679 400 685 c 0
 401 686 404 686 405 684 c 0
 408 678 409 670 412 662 c 0
 476 459 557 223 590 128 c 0
 618 48 651 35 691 28 c 0
 714 24 724 14 724 5 c 0
 724 -3 712 -5 695 -5 c 0
 667 -5 601 1 556 1 c 0
 517 1 475 0 451 0 c 0
 434 0 422 4 422 12 c 0
 422 21 437 28 455 31 c 0
 499 38 516 54 516 76 c 0
 516 105 492 188 477 238 c 0
 474 248 468 249 450 249 c 2
 261 249 l 2
 255 249 249 245 244 231 c 0
 235 205 203 100 203 87 c 0
 203 58 229 38 261 30 c 0
 284 24 294 19 294 10 c 0
 294 2 282 -1 265 -1 c 0
 247 -1 211 1 174 1 c 0
 130 1 87 -5 54 -5 c 0
288 282 m 2
 443 282 l 2
 453 282 457 282 457 287 c 0
 457 289 456 293 455 297 c 2
 377 541 l 2
 373 553 371 559 368 559 c 0
 366 559 364 553 360 542 c 2
 269 297 l 2
 268 294 267 291 267 289 c 0
 267 282 275 282 288 282 c 2
EndSplineSet
Validated: 1
EndChar
StartChar: amacron
Encoding: 257 257 4011
Width: 509
TopAccentHorizontal: 243
GlyphClass: 2
Flags: MW
TeX: 555 14
LayerCount: 2
Fore
SplineSet
138 500 m 2
 131 500 124 506 124 512 c 0
 124 521 129 555 148 555 c 2
 351 555 l 2
 357 555 364 549 364 543 c 0
 364 521 354 500 333 500 c 2
 138 500 l 2
160 -14 m 0
 124 -14 80 35 80 72 c 0
 80 114 102 135 151 155 c 2
 253 197 l 2
 279 208 280 210 281 237 c 2
 283 301 l 2
 284 336 262 365 224 365 c 0
 204 365 182 358 169 347 c 0
 161 341 159 330 159 318 c 2
 160 300 l 2
 160 290 114 265 94 265 c 0
 87 265 83 269 83 274 c 0
 83 295 98 321 123 343 c 0
 168 384 232 414 272 414 c 0
 320 414 355 376 354 325 c 2
 349 85 l 2
 348 57 363 38 385 38 c 0
 402 38 413 41 422 49 c 0
 426 53 428 54 430 54 c 0
 436 54 441 49 441 43 c 0
 441 37 436 27 430 21 c 0
 409 0 382 -14 361 -14 c 0
 330 -14 306 3 288 38 c 1
 285 38 l 1
 241 2 203 -14 160 -14 c 0
207 34 m 0
 233 34 251 43 266 58 c 0
 273 65 278 74 279 99 c 2
 281 148 l 2
 282 163 280 169 272 169 c 0
 269 169 263 168 252 164 c 0
 181 138 158 110 158 87 c 0
 158 52 183 34 207 34 c 0
EndSplineSet
Validated: 33
EndChar
StartChar: Abreve
Encoding: 258 258 3470
Width: 774
TopAccentHorizontal: 398
GlyphClass: 2
Flags: MW
TeX: 820 5
LayerCount: 2
Fore
SplineSet
398 692 m 0
 313 692 261 756 261 796 c 0
 261 809 265 820 271 820 c 0
 281 820 289 807 295 799 c 0
 322 767 355 752 398 752 c 0
 441 752 474 767 501 799 c 0
 507 807 515 820 525 820 c 0
 535 820 535 809 535 796 c 0
 535 756 483 692 398 692 c 0
62 -5 m 0
 45 -5 33 0 33 8 c 0
 33 17 44 24 66 31 c 0
 100 41 130 58 152 108 c 0
 227 279 271 393 339 578 c 0
 346 597 351 615 353 636 c 1
 365 640 377 643 389 651 c 0
 401 659 404 679 408 685 c 0
 409 686 412 686 413 684 c 0
 416 678 417 670 420 662 c 0
 484 459 565 223 598 128 c 0
 626 48 659 35 699 28 c 0
 722 24 732 14 732 5 c 0
 732 -3 720 -5 703 -5 c 0
 675 -5 609 1 564 1 c 0
 525 1 483 0 459 0 c 0
 442 0 430 4 430 12 c 0
 430 21 445 28 463 31 c 0
 507 38 524 54 524 76 c 0
 524 105 500 188 485 238 c 0
 482 248 476 249 458 249 c 2
 269 249 l 2
 263 249 257 245 252 231 c 0
 243 205 211 100 211 87 c 0
 211 58 237 38 269 30 c 0
 292 24 302 19 302 10 c 0
 302 2 290 -1 273 -1 c 0
 255 -1 219 1 182 1 c 0
 138 1 95 -5 62 -5 c 0
296 282 m 2
 451 282 l 2
 461 282 465 282 465 287 c 0
 465 289 464 293 463 297 c 2
 385 541 l 2
 381 553 379 559 376 559 c 0
 374 559 372 553 368 542 c 2
 277 297 l 2
 276 294 275 291 275 289 c 0
 275 282 283 282 296 282 c 2
EndSplineSet
Validated: 1
EndChar
StartChar: abreve
Encoding: 259 259 3924
Width: 487
GlyphClass: 2
Flags: MW
TeX: 608 14
TopAccentHorizontal: 243
LayerCount: 2
Fore
SplineSet
243 478 m 0
 173 478 136 534 136 584 c 0
 136 597 141 608 151 608 c 0
 161 608 164 597 166 587 c 0
 171 562 193 538 243 538 c 0
 293 538 315 562 320 587 c 0
 322 597 325 608 335 608 c 0
 345 608 350 597 350 584 c 0
 350 534 313 478 243 478 c 0
159 -14 m 0
 123 -14 79 35 79 72 c 0
 79 114 101 135 150 155 c 2
 252 197 l 2
 278 208 279 210 280 237 c 2
 282 301 l 2
 283 336 261 365 223 365 c 0
 203 365 181 358 168 347 c 0
 160 341 158 330 158 318 c 2
 159 300 l 2
 159 290 113 265 93 265 c 0
 86 265 82 269 82 274 c 0
 82 295 97 321 122 343 c 0
 167 384 231 414 271 414 c 0
 319 414 354 376 353 325 c 2
 348 85 l 2
 347 57 362 38 384 38 c 0
 401 38 412 41 421 49 c 0
 425 53 427 54 429 54 c 0
 435 54 440 49 440 43 c 0
 440 37 435 27 429 21 c 0
 408 0 381 -14 360 -14 c 0
 329 -14 305 3 287 38 c 1
 284 38 l 1
 240 2 202 -14 159 -14 c 0
206 34 m 0
 232 34 250 43 265 58 c 0
 272 65 277 74 278 99 c 2
 280 148 l 2
 281 163 279 169 271 169 c 0
 268 169 262 168 251 164 c 0
 180 138 157 110 157 87 c 0
 157 52 182 34 206 34 c 0
EndSplineSet
Validated: 33
EndChar
StartChar: Aogonek
Encoding: 260 260 3472
Width: 822
GlyphClass: 2
Flags: MW
TeX: 685 287
TopAccentHorizontal: 407
LayerCount: 2
Fore
SplineSet
714 28 m 0
 737 24 747 14 747 5 c 0
 747 -3 735 -5 718 -5 c 0
 698 -5 657 -2 619 0 c 1
 586 -28 531 -85 531 -155 c 0
 531 -190 562 -216 597 -216 c 0
 632 -216 670 -181 679 -176 c 0
 684 -173 691 -174 691 -182 c 0
 691 -225 614 -287 560 -287 c 0
 497 -287 446 -237 446 -174 c 0
 446 -99 540 -30 588 1 c 1
 579 1 l 2
 540 1 498 0 474 0 c 0
 457 0 445 4 445 12 c 0
 445 21 460 28 478 31 c 0
 522 38 539 54 539 76 c 0
 539 105 515 188 500 238 c 0
 497 248 491 249 473 249 c 2
 284 249 l 2
 278 249 272 245 267 231 c 0
 258 205 226 100 226 87 c 0
 226 58 252 38 284 30 c 0
 307 24 317 19 317 10 c 0
 317 2 305 -1 288 -1 c 0
 270 -1 234 1 197 1 c 0
 153 1 110 -5 77 -5 c 0
 60 -5 48 0 48 8 c 0
 48 17 59 24 81 31 c 0
 115 41 145 58 167 108 c 0
 242 279 286 393 354 578 c 0
 361 597 366 615 368 636 c 1
 380 640 392 643 404 651 c 0
 416 659 419 679 423 685 c 0
 424 686 427 686 428 684 c 0
 431 678 432 670 435 662 c 0
 499 459 580 223 613 128 c 0
 641 48 674 35 714 28 c 0
466 282 m 2
 476 282 480 282 480 287 c 0
 480 289 479 293 478 297 c 2
 400 541 l 2
 396 553 394 559 391 559 c 0
 389 559 387 553 383 542 c 2
 292 297 l 2
 291 294 290 291 290 289 c 0
 290 282 298 282 311 282 c 2
 466 282 l 2
EndSplineSet
Validated: 1
EndChar
StartChar: aogonek
Encoding: 261 261 3875
Width: 425
GlyphClass: 2
Flags: W
TeX: 414 287
TopAccentHorizontal: 186
HStem: -287 66<282.324 351.883> -14 48<87 186.414> 365 49<141.283 241>
VStem: 25 78<42.5666 125.471 280.17 320.237> 193 74<-206.017 -105.896> 226 68<58.3296 168.996 199.884 353.979>
LayerCount: 2
Fore
SplineSet
386 -200 m 0xf8
 390 -200 394 -201 394 -207 c 0
 394 -226 350 -287 294 -287 c 0xf4
 236 -287 193 -253 193 -179 c 0xf8
 193 -110 254 -49 297 -14 c 1
 270 -11 249 6 233 38 c 1
 230 38 l 1
 186 2 148 -14 105 -14 c 0
 69 -14 25 35 25 72 c 0
 25 114 47 135 96 155 c 2
 198 197 l 2
 224 208 225 210 226 237 c 2
 228 301 l 2
 229 336 207 365 169 365 c 0
 149 365 127 358 114 347 c 0
 106 341 104 330 104 318 c 2
 105 300 l 2
 105 290 59 265 39 265 c 0
 32 265 28 269 28 274 c 0
 28 295 43 321 68 343 c 0
 113 384 177 414 217 414 c 0
 265 414 300 376 299 325 c 2
 294 85 l 2xf4
 293 57 308 38 330 38 c 0
 347 38 358 41 367 49 c 0
 371 53 373 54 375 54 c 0
 381 54 386 49 386 43 c 0
 386 37 381 27 375 21 c 0
 369 15 362 9 354 4 c 0
 313 -36 267 -81 267 -152 c 0
 267 -196 293 -221 327 -221 c 0
 362 -221 381 -200 386 -200 c 0xf8
226 148 m 2
 227 163 225 169 217 169 c 0
 214 169 208 168 197 164 c 0
 126 138 103 110 103 87 c 0
 103 52 128 34 152 34 c 0
 178 34 196 43 211 58 c 0
 218 65 223 74 224 99 c 2
 226 148 l 2
EndSplineSet
Validated: 33
EndChar
StartChar: Cacute
Encoding: 262 262 3474
Width: 704
GlyphClass: 2
Flags: W
TeX: 838 15
TopAccentHorizontal: 465
HStem: -15 31<363.76 530.413> 632 31<354.78 536.297>
VStem: 70 101<225.428 434.419> 638 34<476.228 539.064>
LayerCount: 2
Fore
SplineSet
392 685 m 0
 388 685 386 688 386 691 c 0
 386 695 388 701 391 706 c 0
 415 746 441 786 468 825 c 0
 475 835 484 838 495 838 c 0
 509 838 553 829 553 815 c 0
 553 808 549 804 540 796 c 0
 501 761 449 725 410 694 c 0
 401 687 395 685 392 685 c 0
431 -15 m 0
 244 -15 70 119 70 323 c 0
 70 517 251 663 456 663 c 0
 533 663 566 654 634 637 c 0
 654 632 661 621 663 603 c 0
 666 572 670 540 672 488 c 0
 673 473 644 464 638 487 c 0
 625 538 611 574 576 598 c 0
 543 620 494 632 439 632 c 0
 283 632 171 494 171 347 c 0
 171 184 280 16 446 16 c 0
 542 16 601 62 645 141 c 0
 654 158 679 159 679 138 c 0
 679 122 664 70 652 41 c 0
 642 22 641 21 620 14 c 0
 571 -6 496 -15 431 -15 c 0
EndSplineSet
Validated: 33
EndChar
StartChar: cacute
Encoding: 263 263 3971
Width: 394
GlyphClass: 2
Flags: W
TeX: 649 15
TopAccentHorizontal: 306
HStem: -15 60<178.332 305.274> 377 37<162.065 261.89> 457 21G<208.5 214.5>
VStem: 33 69<125.033 282.32>
LayerCount: 2
Fore
SplineSet
211 457 m 0
 206 457 203 459 203 466 c 0
 203 470 204 476 207 484 c 0
 221 521 268 604 284 631 c 0
 290 641 301 649 311 649 c 0
 336 649 360 642 360 628 c 0
 360 620 356 616 350 607 c 0
 326 572 268 504 242 478 c 0
 228 464 218 457 211 457 c 0
211 -15 m 0
 110 -15 33 69 33 180 c 0
 33 310 127 414 244 414 c 0
 287 414 326 402 358 379 c 0
 366 373 370 367 370 360 c 0
 370 343 344 319 327 319 c 0
 320 319 314 324 306 330 c 0
 277 352 236 377 212 377 c 0
 147 377 102 310 102 212 c 0
 102 118 169 45 254 45 c 0
 293 45 317 56 349 88 c 0
 352 91 356 93 359 93 c 0
 365 93 370 87 370 79 c 0
 370 71 365 61 355 48 c 0
 323 7 272 -15 211 -15 c 0
EndSplineSet
Validated: 1
EndChar
StartChar: Ccircumflex
Encoding: 264 264 3476
Width: 703
GlyphClass: 2
Flags: W
TeX: 823 15
TopAccentHorizontal: 424
HStem: -15 31<362.76 529.413> 632 31<353.78 535.297>
VStem: 69 101<225.428 434.419> 637 34<476.228 539.064>
LayerCount: 2
Fore
SplineSet
293 696 m 0
 284 696 278 700 278 706 c 0
 278 710 280 714 285 718 c 2
 383 801 l 2
 402 817 409 823 424 823 c 0
 439 823 446 817 465 801 c 2
 563 718 l 2
 568 714 569 710 569 706 c 0
 569 700 564 695 555 695 c 0
 542 695 460 736 434 751 c 0
 425 756 423 756 414 751 c 0
 388 736 306 696 293 696 c 0
430 -15 m 0
 243 -15 69 119 69 323 c 0
 69 517 250 663 455 663 c 0
 532 663 565 654 633 637 c 0
 653 632 660 621 662 603 c 0
 665 572 669 540 671 488 c 0
 672 473 643 464 637 487 c 0
 624 538 610 574 575 598 c 0
 542 620 493 632 438 632 c 0
 282 632 170 494 170 347 c 0
 170 184 279 16 445 16 c 0
 541 16 600 62 644 141 c 0
 653 158 678 159 678 138 c 0
 678 122 663 70 651 41 c 0
 641 22 640 21 619 14 c 0
 570 -6 495 -15 430 -15 c 0
EndSplineSet
Validated: 33
EndChar
StartChar: ccircumflex
Encoding: 265 265 3983
Width: 488
GlyphClass: 2
Flags: MW
TeX: 648 15
TopAccentHorizontal: 276
LayerCount: 2
Fore
SplineSet
276 648 m 0
 284 648 291 638 296 630 c 0
 316 599 384 481 384 468 c 0
 384 459 384 455 375 455 c 0
 367 455 354 468 346 477 c 0
 333 492 302 532 280 562 c 0
 277 566 276 566 273 562 c 0
 251 532 220 492 207 477 c 0
 199 468 185 455 177 455 c 0
 168 455 168 459 168 468 c 0
 168 481 236 599 256 630 c 0
 261 638 268 648 276 648 c 0
252 -15 m 0
 151 -15 74 69 74 180 c 0
 74 310 168 414 285 414 c 0
 328 414 367 402 399 379 c 0
 407 373 411 367 411 360 c 0
 411 343 385 319 368 319 c 0
 361 319 355 324 347 330 c 0
 318 352 277 377 253 377 c 0
 188 377 143 310 143 212 c 0
 143 118 210 45 295 45 c 0
 334 45 358 56 390 88 c 0
 393 91 397 93 400 93 c 0
 406 93 411 87 411 79 c 0
 411 71 406 61 396 48 c 0
 364 7 313 -15 252 -15 c 0
EndSplineSet
Validated: 1
EndChar
StartChar: Cdotaccent
Encoding: 266 266 3476
Width: 791
ItalicCorrection: 19
TopAccentHorizontal: 499
GlyphClass: 2
Flags: MW
TeX: 805 15
LayerCount: 2
Fore
SplineSet
459 695 m 0
 429 695 404 720 404 750 c 0
 404 780 429 805 459 805 c 0
 489 805 514 780 514 750 c 0
 514 720 489 695 459 695 c 0
465 -15 m 0
 278 -15 104 119 104 323 c 0
 104 517 285 663 490 663 c 0
 567 663 600 654 668 637 c 0
 688 632 695 621 697 603 c 0
 700 572 704 540 706 488 c 0
 707 473 678 464 672 487 c 0
 659 538 645 574 610 598 c 0
 577 620 528 632 473 632 c 0
 317 632 205 494 205 347 c 0
 205 184 314 16 480 16 c 0
 576 16 635 62 679 141 c 0
 688 158 713 159 713 138 c 0
 713 122 698 70 686 41 c 0
 676 22 675 21 654 14 c 0
 605 -6 530 -15 465 -15 c 0
EndSplineSet
Validated: 33
EndChar
StartChar: cdotaccent
Encoding: 267 267 124
Width: 409
TopAccentHorizontal: 245
GlyphClass: 2
Flags: MW
TeX: 617 15
LayerCount: 2
Fore
SplineSet
245 516 m 0
 217 516 195 538 195 566 c 0
 195 595 217 617 245 617 c 0
 274 617 296 595 296 566 c 0
 296 538 274 516 245 516 c 0
221 -15 m 0
 120 -15 43 69 43 180 c 0
 43 310 137 414 254 414 c 0
 297 414 336 402 368 379 c 0
 376 373 380 367 380 360 c 0
 380 343 354 319 337 319 c 0
 330 319 324 324 316 330 c 0
 287 352 246 377 222 377 c 0
 157 377 112 310 112 212 c 0
 112 118 179 45 264 45 c 0
 303 45 327 56 359 88 c 0
 362 91 366 93 369 93 c 0
 375 93 380 87 380 79 c 0
 380 71 375 61 365 48 c 0
 333 7 282 -15 221 -15 c 0
EndSplineSet
Validated: 1
EndChar
StartChar: Ccaron
Encoding: 268 268 3475
Width: 704
GlyphClass: 2
Flags: W
TeX: 823 15
TopAccentHorizontal: 427
HStem: -15 31<363.76 530.413> 632 31<354.78 536.297>
VStem: 70 101<225.428 434.419> 638 34<476.228 539.064>
LayerCount: 2
Fore
SplineSet
295 822 m 0
 308 822 390 782 416 767 c 0
 425 762 427 762 436 767 c 0
 462 782 544 823 557 823 c 0
 566 823 571 818 571 812 c 0
 571 808 570 804 565 800 c 2
 467 722 l 2
 447 706 441 700 426 700 c 0
 411 700 405 706 385 722 c 2
 287 800 l 2
 282 804 280 808 280 812 c 0
 280 818 286 822 295 822 c 0
431 -15 m 0
 244 -15 70 119 70 323 c 0
 70 517 251 663 456 663 c 0
 533 663 566 654 634 637 c 0
 654 632 661 621 663 603 c 0
 666 572 670 540 672 488 c 0
 673 473 644 464 638 487 c 0
 625 538 611 574 576 598 c 0
 543 620 494 632 439 632 c 0
 283 632 171 494 171 347 c 0
 171 184 280 16 446 16 c 0
 542 16 601 62 645 141 c 0
 654 158 679 159 679 138 c 0
 679 122 664 70 652 41 c 0
 642 22 641 21 620 14 c 0
 571 -6 496 -15 431 -15 c 0
EndSplineSet
Validated: 33
EndChar
StartChar: ccaron
Encoding: 269 269 126
Width: 491
GlyphClass: 2
Flags: MW
TeX: 648 15
TopAccentHorizontal: 276
LayerCount: 2
Fore
SplineSet
276 455 m 0
 268 455 261 465 256 473 c 0
 236 504 168 622 168 635 c 0
 168 644 168 648 177 648 c 0
 185 648 199 635 207 626 c 0
 220 611 251 571 273 541 c 0
 276 537 277 537 280 541 c 0
 302 571 333 611 346 626 c 0
 354 635 367 648 375 648 c 0
 384 648 384 644 384 635 c 0
 384 622 316 504 296 473 c 0
 291 465 284 455 276 455 c 0
252 -15 m 0
 151 -15 74 69 74 180 c 0
 74 310 168 414 285 414 c 0
 328 414 367 402 399 379 c 0
 407 373 411 367 411 360 c 0
 411 343 385 319 368 319 c 0
 361 319 355 324 347 330 c 0
 318 352 277 377 253 377 c 0
 188 377 143 310 143 212 c 0
 143 118 210 45 295 45 c 0
 334 45 358 56 390 88 c 0
 393 91 397 93 400 93 c 0
 406 93 411 87 411 79 c 0
 411 71 406 61 396 48 c 0
 364 7 313 -15 252 -15 c 0
EndSplineSet
Validated: 1
EndChar
